<mxfile host="app.diagrams.net" modified="2023-01-16T11:31:48.150Z" agent="5.0 (Windows)" etag="eC5hYIc5ImFsHS_Lfz8M" version="20.8.5" type="github">
  <diagram id="y0MvCqDMI1tPlNCTdOtr" name="Page-1">
    <mxGraphModel dx="6354" dy="2766" grid="1" gridSize="10" guides="1" tooltips="1" connect="1" arrows="1" fold="1" page="1" pageScale="1" pageWidth="827" pageHeight="1169" math="0" shadow="0">
      <root>
        <mxCell id="0" />
        <mxCell id="1" parent="0" />
        <mxCell id="HTa7G4qSwP5oYnX5caP1-1" value="" style="rounded=1;whiteSpace=wrap;html=1;rotation=90;" parent="1" vertex="1">
          <mxGeometry x="-126.06" y="1547.71" width="211.87" height="146.25" as="geometry" />
        </mxCell>
        <mxCell id="HTa7G4qSwP5oYnX5caP1-2" value="Registro" style="rounded=1;whiteSpace=wrap;html=1;fillColor=#33FF99;" parent="1" vertex="1">
          <mxGeometry x="-56.260000000000005" y="1534.9" width="66" height="30" as="geometry" />
        </mxCell>
        <mxCell id="HTa7G4qSwP5oYnX5caP1-3" value="Nombre y apellido" style="rounded=1;whiteSpace=wrap;html=1;" parent="1" vertex="1">
          <mxGeometry x="-73.26" y="1584.9" width="110" height="30" as="geometry" />
        </mxCell>
        <mxCell id="HTa7G4qSwP5oYnX5caP1-4" value="Correo" style="rounded=1;whiteSpace=wrap;html=1;" parent="1" vertex="1">
          <mxGeometry x="-73.26" y="1624.9" width="110" height="30" as="geometry" />
        </mxCell>
        <mxCell id="HTa7G4qSwP5oYnX5caP1-5" value="password" style="rounded=1;whiteSpace=wrap;html=1;" parent="1" vertex="1">
          <mxGeometry x="-73.26" y="1673.03" width="110" height="30" as="geometry" />
        </mxCell>
        <mxCell id="HTa7G4qSwP5oYnX5caP1-6" value="" style="rounded=1;whiteSpace=wrap;html=1;rotation=90;" parent="1" vertex="1">
          <mxGeometry x="72.67000000000002" y="1533.65" width="180" height="146.25" as="geometry" />
        </mxCell>
        <mxCell id="HTa7G4qSwP5oYnX5caP1-7" value="Login" style="rounded=1;whiteSpace=wrap;html=1;fillColor=#33FF99;" parent="1" vertex="1">
          <mxGeometry x="126.54000000000002" y="1536.77" width="66" height="30" as="geometry" />
        </mxCell>
        <mxCell id="HTa7G4qSwP5oYnX5caP1-8" value="Correo" style="rounded=1;whiteSpace=wrap;html=1;" parent="1" vertex="1">
          <mxGeometry x="107.67000000000002" y="1584.9" width="110" height="30" as="geometry" />
        </mxCell>
        <mxCell id="HTa7G4qSwP5oYnX5caP1-9" value="password" style="rounded=1;whiteSpace=wrap;html=1;" parent="1" vertex="1">
          <mxGeometry x="109.54000000000002" y="1634.9" width="110" height="30" as="geometry" />
        </mxCell>
        <mxCell id="HTa7G4qSwP5oYnX5caP1-10" value="&lt;b&gt;Usuario Final&lt;/b&gt;" style="text;html=1;align=center;verticalAlign=middle;resizable=0;points=[];autosize=1;" parent="1" vertex="1">
          <mxGeometry x="96.74000000000001" y="1464.9" width="90" height="20" as="geometry" />
        </mxCell>
        <mxCell id="HTa7G4qSwP5oYnX5caP1-11" value="&lt;b&gt;Profesional de la Salud&lt;/b&gt;" style="text;html=1;align=center;verticalAlign=middle;resizable=0;points=[];autosize=1;" parent="1" vertex="1">
          <mxGeometry x="87.67000000000002" y="1784.9" width="150" height="20" as="geometry" />
        </mxCell>
        <mxCell id="HTa7G4qSwP5oYnX5caP1-12" value="" style="rounded=1;whiteSpace=wrap;html=1;rotation=90;" parent="1" vertex="1">
          <mxGeometry x="275.41999999999996" y="1501" width="262.42" height="292.29" as="geometry" />
        </mxCell>
        <mxCell id="HTa7G4qSwP5oYnX5caP1-13" value="Mi perfil" style="rounded=1;whiteSpace=wrap;html=1;fillColor=#33FFFF;" parent="1" vertex="1">
          <mxGeometry x="276.74" y="1536.77" width="80" height="30" as="geometry" />
        </mxCell>
        <mxCell id="HTa7G4qSwP5oYnX5caP1-14" value="Mis Familiares" style="rounded=1;whiteSpace=wrap;html=1;" parent="1" vertex="1">
          <mxGeometry x="276.74" y="1577.9" width="80" height="30" as="geometry" />
        </mxCell>
        <mxCell id="HTa7G4qSwP5oYnX5caP1-15" value="Profesionales de la Salud" style="rounded=1;whiteSpace=wrap;html=1;" parent="1" vertex="1">
          <mxGeometry x="276.74" y="1617.9" width="80" height="30" as="geometry" />
        </mxCell>
        <mxCell id="HTa7G4qSwP5oYnX5caP1-16" value="Consultas Chat" style="rounded=1;whiteSpace=wrap;html=1;" parent="1" vertex="1">
          <mxGeometry x="276.74" y="1734.9" width="80" height="30" as="geometry" />
        </mxCell>
        <mxCell id="HTa7G4qSwP5oYnX5caP1-17" value="Aplicativo : &lt;b&gt;Salud Ayllu&lt;/b&gt;" style="text;html=1;align=center;verticalAlign=middle;resizable=0;points=[];autosize=1;" parent="1" vertex="1">
          <mxGeometry x="89.54000000000002" y="1424.9" width="130" height="20" as="geometry" />
        </mxCell>
        <mxCell id="HTa7G4qSwP5oYnX5caP1-18" value="Nombre y Apellido" style="rounded=1;whiteSpace=wrap;html=1;" parent="1" vertex="1">
          <mxGeometry x="386.74" y="1534.9" width="130" height="30" as="geometry" />
        </mxCell>
        <mxCell id="HTa7G4qSwP5oYnX5caP1-19" value="" style="endArrow=none;dashed=1;html=1;entryX=0.129;entryY=0.602;entryDx=0;entryDy=0;entryPerimeter=0;exitX=0.886;exitY=0.602;exitDx=0;exitDy=0;exitPerimeter=0;" parent="1" edge="1">
          <mxGeometry width="50" height="50" relative="1" as="geometry">
            <mxPoint x="372.8164199999999" y="1709.94832" as="sourcePoint" />
            <mxPoint x="372.8164199999999" y="1539.91098" as="targetPoint" />
          </mxGeometry>
        </mxCell>
        <mxCell id="HTa7G4qSwP5oYnX5caP1-20" value="Correo (No se puede modificar)" style="rounded=1;whiteSpace=wrap;html=1;" parent="1" vertex="1">
          <mxGeometry x="386.74" y="1603.9" width="130" height="30" as="geometry" />
        </mxCell>
        <mxCell id="HTa7G4qSwP5oYnX5caP1-21" value="Telefono" style="rounded=1;whiteSpace=wrap;html=1;" parent="1" vertex="1">
          <mxGeometry x="386.74" y="1647.9" width="130" height="30" as="geometry" />
        </mxCell>
        <mxCell id="HTa7G4qSwP5oYnX5caP1-22" value="Cambiar password" style="rounded=1;whiteSpace=wrap;html=1;" parent="1" vertex="1">
          <mxGeometry x="388.94000000000005" y="1695.9" width="130" height="30" as="geometry" />
        </mxCell>
        <mxCell id="HTa7G4qSwP5oYnX5caP1-23" value="DNI / PP/CE" style="rounded=1;whiteSpace=wrap;html=1;" parent="1" vertex="1">
          <mxGeometry x="386.74" y="1574.77" width="130" height="20.13" as="geometry" />
        </mxCell>
        <mxCell id="HTa7G4qSwP5oYnX5caP1-24" value="Guardar" style="rounded=1;whiteSpace=wrap;html=1;" parent="1" vertex="1">
          <mxGeometry x="406.74" y="1734.9" width="97.8" height="30" as="geometry" />
        </mxCell>
        <mxCell id="HTa7G4qSwP5oYnX5caP1-25" value="" style="rounded=1;whiteSpace=wrap;html=1;rotation=90;" parent="1" vertex="1">
          <mxGeometry x="625.28" y="1462.46" width="272.68" height="379.62" as="geometry" />
        </mxCell>
        <mxCell id="HTa7G4qSwP5oYnX5caP1-26" value="Mi perfil" style="rounded=1;whiteSpace=wrap;html=1;" parent="1" vertex="1">
          <mxGeometry x="588.06" y="1536.77" width="80" height="30" as="geometry" />
        </mxCell>
        <mxCell id="HTa7G4qSwP5oYnX5caP1-27" value="Mis Familiares" style="rounded=1;whiteSpace=wrap;html=1;fillColor=#33FFFF;" parent="1" vertex="1">
          <mxGeometry x="588.06" y="1577.9" width="80" height="30" as="geometry" />
        </mxCell>
        <mxCell id="HTa7G4qSwP5oYnX5caP1-28" value="Profesionales de la Salud" style="rounded=1;whiteSpace=wrap;html=1;" parent="1" vertex="1">
          <mxGeometry x="588.06" y="1617.9" width="80" height="30" as="geometry" />
        </mxCell>
        <mxCell id="HTa7G4qSwP5oYnX5caP1-29" value="Consultas Chat" style="rounded=1;whiteSpace=wrap;html=1;" parent="1" vertex="1">
          <mxGeometry x="588.06" y="1734.9" width="80" height="30" as="geometry" />
        </mxCell>
        <mxCell id="HTa7G4qSwP5oYnX5caP1-30" value="Mi Nombre" style="rounded=1;whiteSpace=wrap;html=1;" parent="1" vertex="1">
          <mxGeometry x="701.74" y="1541.9" width="90" height="20" as="geometry" />
        </mxCell>
        <mxCell id="HTa7G4qSwP5oYnX5caP1-31" value="" style="endArrow=none;dashed=1;html=1;entryX=0.129;entryY=0.602;entryDx=0;entryDy=0;entryPerimeter=0;exitX=0.886;exitY=0.602;exitDx=0;exitDy=0;exitPerimeter=0;" parent="1" edge="1">
          <mxGeometry width="50" height="50" relative="1" as="geometry">
            <mxPoint x="684.13642" y="1709.94832" as="sourcePoint" />
            <mxPoint x="684.13642" y="1539.91098" as="targetPoint" />
          </mxGeometry>
        </mxCell>
        <mxCell id="HTa7G4qSwP5oYnX5caP1-32" value="Papa" style="rounded=1;whiteSpace=wrap;html=1;" parent="1" vertex="1">
          <mxGeometry x="703.26" y="1572.9" width="86.48" height="17" as="geometry" />
        </mxCell>
        <mxCell id="HTa7G4qSwP5oYnX5caP1-33" value="Mama" style="rounded=1;whiteSpace=wrap;html=1;" parent="1" vertex="1">
          <mxGeometry x="703.26" y="1603.9" width="83.48" height="17" as="geometry" />
        </mxCell>
        <mxCell id="HTa7G4qSwP5oYnX5caP1-34" value="Mas familiares" style="rounded=1;whiteSpace=wrap;html=1;" parent="1" vertex="1">
          <mxGeometry x="719.16" y="1637.9" width="87.58" height="30" as="geometry" />
        </mxCell>
        <mxCell id="HTa7G4qSwP5oYnX5caP1-35" value="" style="rounded=1;whiteSpace=wrap;html=1;rotation=90;" parent="1" vertex="1">
          <mxGeometry x="985.18" y="1514.83" width="275.18" height="281.91" as="geometry" />
        </mxCell>
        <mxCell id="HTa7G4qSwP5oYnX5caP1-36" value="Mi perfil" style="rounded=1;whiteSpace=wrap;html=1;" parent="1" vertex="1">
          <mxGeometry x="998.0599999999998" y="1539.02" width="80" height="30" as="geometry" />
        </mxCell>
        <mxCell id="HTa7G4qSwP5oYnX5caP1-37" value="Mis Familiares" style="rounded=1;whiteSpace=wrap;html=1;" parent="1" vertex="1">
          <mxGeometry x="998.0599999999998" y="1580.15" width="80" height="30" as="geometry" />
        </mxCell>
        <mxCell id="HTa7G4qSwP5oYnX5caP1-38" value="Profesionales de la Salud" style="rounded=1;whiteSpace=wrap;html=1;fillColor=#33FFFF;" parent="1" vertex="1">
          <mxGeometry x="998.0599999999998" y="1620.15" width="80" height="30" as="geometry" />
        </mxCell>
        <mxCell id="HTa7G4qSwP5oYnX5caP1-39" value="Consultas Chat" style="rounded=1;whiteSpace=wrap;html=1;" parent="1" vertex="1">
          <mxGeometry x="998.0599999999998" y="1744.9" width="80" height="30" as="geometry" />
        </mxCell>
        <mxCell id="HTa7G4qSwP5oYnX5caP1-40" value="Tipo de Atencion V" style="rounded=1;whiteSpace=wrap;html=1;" parent="1" vertex="1">
          <mxGeometry x="1108.06" y="1537.15" width="128.68" height="30" as="geometry" />
        </mxCell>
        <mxCell id="HTa7G4qSwP5oYnX5caP1-41" value="" style="endArrow=none;dashed=1;html=1;entryX=0.129;entryY=0.602;entryDx=0;entryDy=0;entryPerimeter=0;exitX=0.933;exitY=0.602;exitDx=0;exitDy=0;exitPerimeter=0;" parent="1" source="HTa7G4qSwP5oYnX5caP1-35" edge="1">
          <mxGeometry width="50" height="50" relative="1" as="geometry">
            <mxPoint x="1094.13642" y="1712.19832" as="sourcePoint" />
            <mxPoint x="1094.13642" y="1542.16098" as="targetPoint" />
          </mxGeometry>
        </mxCell>
        <mxCell id="HTa7G4qSwP5oYnX5caP1-42" value="" style="ellipse;whiteSpace=wrap;html=1;aspect=fixed;fillColor=#FFFFFF;" parent="1" vertex="1">
          <mxGeometry x="690.3799999999999" y="1637.4" width="25" height="25" as="geometry" />
        </mxCell>
        <mxCell id="HTa7G4qSwP5oYnX5caP1-43" value="&lt;b&gt;&lt;font style=&quot;font-size: 18px&quot;&gt;+&lt;/font&gt;&lt;/b&gt;" style="text;html=1;align=center;verticalAlign=middle;resizable=0;points=[];autosize=1;" parent="1" vertex="1">
          <mxGeometry x="688.06" y="1639.4" width="30" height="20" as="geometry" />
        </mxCell>
        <mxCell id="HTa7G4qSwP5oYnX5caP1-44" value="Edad" style="rounded=1;whiteSpace=wrap;html=1;" parent="1" vertex="1">
          <mxGeometry x="803.74" y="1542.65" width="40" height="21.25" as="geometry" />
        </mxCell>
        <mxCell id="HTa7G4qSwP5oYnX5caP1-45" value="Edad" style="rounded=1;whiteSpace=wrap;html=1;" parent="1" vertex="1">
          <mxGeometry x="803.74" y="1574.65" width="40" height="21.25" as="geometry" />
        </mxCell>
        <mxCell id="HTa7G4qSwP5oYnX5caP1-46" value="Edad" style="rounded=1;whiteSpace=wrap;html=1;" parent="1" vertex="1">
          <mxGeometry x="803.74" y="1603.65" width="40" height="21.25" as="geometry" />
        </mxCell>
        <mxCell id="HTa7G4qSwP5oYnX5caP1-47" value="Email" style="rounded=1;whiteSpace=wrap;html=1;" parent="1" vertex="1">
          <mxGeometry x="862.74" y="1575.65" width="40" height="21.25" as="geometry" />
        </mxCell>
        <mxCell id="HTa7G4qSwP5oYnX5caP1-48" value="Email" style="rounded=1;whiteSpace=wrap;html=1;" parent="1" vertex="1">
          <mxGeometry x="862.74" y="1607.9" width="40" height="21.25" as="geometry" />
        </mxCell>
        <mxCell id="HTa7G4qSwP5oYnX5caP1-49" value="Edad" style="rounded=1;whiteSpace=wrap;html=1;" parent="1" vertex="1">
          <mxGeometry x="812.74" y="1642.4" width="40" height="21.25" as="geometry" />
        </mxCell>
        <mxCell id="HTa7G4qSwP5oYnX5caP1-50" value="Email" style="rounded=1;whiteSpace=wrap;html=1;" parent="1" vertex="1">
          <mxGeometry x="864.74" y="1642.65" width="40" height="21.25" as="geometry" />
        </mxCell>
        <mxCell id="HTa7G4qSwP5oYnX5caP1-51" value="&amp;gt;" style="rounded=1;whiteSpace=wrap;html=1;" parent="1" vertex="1">
          <mxGeometry x="912.74" y="1575.65" width="20" height="21.25" as="geometry" />
        </mxCell>
        <mxCell id="HTa7G4qSwP5oYnX5caP1-52" value="&amp;gt;" style="rounded=1;whiteSpace=wrap;html=1;" parent="1" vertex="1">
          <mxGeometry x="912.74" y="1607.65" width="20" height="21.25" as="geometry" />
        </mxCell>
        <mxCell id="HTa7G4qSwP5oYnX5caP1-53" value="&amp;gt;" style="rounded=1;whiteSpace=wrap;html=1;" parent="1" vertex="1">
          <mxGeometry x="912.74" y="1640.65" width="20" height="21.25" as="geometry" />
        </mxCell>
        <mxCell id="HTa7G4qSwP5oYnX5caP1-54" value="" style="rounded=1;whiteSpace=wrap;html=1;fillColor=#FFFFFF;" parent="1" vertex="1">
          <mxGeometry x="1201.74" y="1420" width="165" height="74.9" as="geometry" />
        </mxCell>
        <mxCell id="HTa7G4qSwP5oYnX5caP1-55" value="- Atencion a Domicilio" style="text;html=1;align=center;verticalAlign=middle;resizable=0;points=[];autosize=1;" parent="1" vertex="1">
          <mxGeometry x="1195.74" y="1421.9" width="130" height="20" as="geometry" />
        </mxCell>
        <mxCell id="HTa7G4qSwP5oYnX5caP1-56" value="- Atencion Online" style="text;html=1;align=center;verticalAlign=middle;resizable=0;points=[];autosize=1;" parent="1" vertex="1">
          <mxGeometry x="1201.74" y="1441.9" width="100" height="20" as="geometry" />
        </mxCell>
        <mxCell id="HTa7G4qSwP5oYnX5caP1-57" value="- Atencion en establecimiento" style="text;html=1;align=center;verticalAlign=middle;resizable=0;points=[];autosize=1;" parent="1" vertex="1">
          <mxGeometry x="1194.74" y="1461.9" width="170" height="20" as="geometry" />
        </mxCell>
        <mxCell id="HTa7G4qSwP5oYnX5caP1-58" value="" style="endArrow=classic;html=1;exitX=1;exitY=0.75;exitDx=0;exitDy=0;entryX=0.582;entryY=1;entryDx=0;entryDy=0;entryPerimeter=0;" parent="1" source="HTa7G4qSwP5oYnX5caP1-40" target="HTa7G4qSwP5oYnX5caP1-54" edge="1">
          <mxGeometry width="50" height="50" relative="1" as="geometry">
            <mxPoint x="1181.74" y="1534.9" as="sourcePoint" />
            <mxPoint x="1231.74" y="1484.9" as="targetPoint" />
            <Array as="points">
              <mxPoint x="1296.74" y="1559.9" />
            </Array>
          </mxGeometry>
        </mxCell>
        <mxCell id="HTa7G4qSwP5oYnX5caP1-59" style="edgeStyle=orthogonalEdgeStyle;rounded=0;orthogonalLoop=1;jettySize=auto;html=1;exitX=1;exitY=0.5;exitDx=0;exitDy=0;entryX=0.012;entryY=0.342;entryDx=0;entryDy=0;entryPerimeter=0;" parent="1" source="HTa7G4qSwP5oYnX5caP1-60" target="HTa7G4qSwP5oYnX5caP1-61" edge="1">
          <mxGeometry relative="1" as="geometry" />
        </mxCell>
        <mxCell id="HTa7G4qSwP5oYnX5caP1-60" value="Profesional de Salud V" style="rounded=1;whiteSpace=wrap;html=1;" parent="1" vertex="1">
          <mxGeometry x="1108.06" y="1580.15" width="128.68" height="30" as="geometry" />
        </mxCell>
        <mxCell id="HTa7G4qSwP5oYnX5caP1-61" value="" style="rounded=1;whiteSpace=wrap;html=1;fillColor=#FFFFFF;" parent="1" vertex="1">
          <mxGeometry x="1285.74" y="1569.32" width="251" height="135.58" as="geometry" />
        </mxCell>
        <mxCell id="HTa7G4qSwP5oYnX5caP1-62" value="&lt;div&gt;-&lt;b&gt; Fisioterapeuta &lt;/b&gt;, Geriatra, Neurologo, &lt;br&gt;&lt;/div&gt;&lt;div&gt;Traumatologico, Cardiorespiratorio&lt;/div&gt;" style="text;html=1;align=center;verticalAlign=middle;resizable=0;points=[];autosize=1;" parent="1" vertex="1">
          <mxGeometry x="1280.74" y="1624.9" width="220" height="30" as="geometry" />
        </mxCell>
        <mxCell id="HTa7G4qSwP5oYnX5caP1-63" value="&lt;b&gt;- Enfermero&lt;/b&gt;" style="text;html=1;align=center;verticalAlign=middle;resizable=0;points=[];autosize=1;" parent="1" vertex="1">
          <mxGeometry x="1286.74" y="1661.9" width="80" height="20" as="geometry" />
        </mxCell>
        <mxCell id="HTa7G4qSwP5oYnX5caP1-64" value="Transporte Especial" style="rounded=1;whiteSpace=wrap;html=1;" parent="1" vertex="1">
          <mxGeometry x="997.7399999999999" y="1663.65" width="80" height="30" as="geometry" />
        </mxCell>
        <mxCell id="HTa7G4qSwP5oYnX5caP1-65" value="&lt;div&gt;Implementos &lt;br&gt;&lt;/div&gt;&lt;div&gt;de Salud&lt;br&gt;&lt;/div&gt;" style="rounded=1;whiteSpace=wrap;html=1;" parent="1" vertex="1">
          <mxGeometry x="997.7399999999999" y="1701.71" width="80" height="30" as="geometry" />
        </mxCell>
        <mxCell id="HTa7G4qSwP5oYnX5caP1-66" value="Transporte Especial" style="rounded=1;whiteSpace=wrap;html=1;" parent="1" vertex="1">
          <mxGeometry x="586.74" y="1657.84" width="80" height="30" as="geometry" />
        </mxCell>
        <mxCell id="HTa7G4qSwP5oYnX5caP1-67" value="&lt;div&gt;Implementos &lt;br&gt;&lt;/div&gt;&lt;div&gt;de Salud&lt;br&gt;&lt;/div&gt;" style="rounded=1;whiteSpace=wrap;html=1;" parent="1" vertex="1">
          <mxGeometry x="586.74" y="1695.9" width="80" height="30" as="geometry" />
        </mxCell>
        <mxCell id="HTa7G4qSwP5oYnX5caP1-68" value="Transporte Especial" style="rounded=1;whiteSpace=wrap;html=1;" parent="1" vertex="1">
          <mxGeometry x="275.41999999999996" y="1657.84" width="80" height="30" as="geometry" />
        </mxCell>
        <mxCell id="HTa7G4qSwP5oYnX5caP1-69" value="&lt;div&gt;Implementos &lt;br&gt;&lt;/div&gt;&lt;div&gt;de Salud&lt;br&gt;&lt;/div&gt;" style="rounded=1;whiteSpace=wrap;html=1;" parent="1" vertex="1">
          <mxGeometry x="275.41999999999996" y="1695.9" width="80" height="30" as="geometry" />
        </mxCell>
        <mxCell id="HTa7G4qSwP5oYnX5caP1-70" value="Especialidad&amp;nbsp; V" style="rounded=1;whiteSpace=wrap;html=1;" parent="1" vertex="1">
          <mxGeometry x="1108.06" y="1624.9" width="128.68" height="30" as="geometry" />
        </mxCell>
        <mxCell id="HTa7G4qSwP5oYnX5caP1-71" value="&lt;div&gt;-&lt;b&gt; Medico,&lt;/b&gt; Cardiologo, Neurologo, Geriatrico&lt;br&gt;&lt;/div&gt;&lt;div&gt;Traumatologo , Pediatra, Neumologo&lt;/div&gt;" style="text;html=1;align=center;verticalAlign=middle;resizable=0;points=[];autosize=1;" parent="1" vertex="1">
          <mxGeometry x="1285.74" y="1584.9" width="240" height="30" as="geometry" />
        </mxCell>
        <mxCell id="HTa7G4qSwP5oYnX5caP1-72" value="Distrito disponible V" style="rounded=1;whiteSpace=wrap;html=1;" parent="1" vertex="1">
          <mxGeometry x="1108.06" y="1667.9" width="128.68" height="30" as="geometry" />
        </mxCell>
        <mxCell id="mVTbrcH1SR3zDorAHqVb-15" value="" style="rounded=0;whiteSpace=wrap;html=1;fillColor=#B9E0A5;" parent="1" vertex="1">
          <mxGeometry x="-329.54999999999995" y="-670" width="1100" height="798" as="geometry" />
        </mxCell>
        <mxCell id="mVTbrcH1SR3zDorAHqVb-16" value="" style="rounded=0;whiteSpace=wrap;html=1;rotation=90;" parent="1" vertex="1">
          <mxGeometry x="424.59000000000015" y="-356.1500000000001" width="418.29" height="180" as="geometry" />
        </mxCell>
        <mxCell id="mVTbrcH1SR3zDorAHqVb-17" value="" style="rounded=0;whiteSpace=wrap;html=1;" parent="1" vertex="1">
          <mxGeometry x="33.74000000000001" y="-342" width="510" height="285" as="geometry" />
        </mxCell>
        <mxCell id="mVTbrcH1SR3zDorAHqVb-18" value="" style="rounded=0;whiteSpace=wrap;html=1;rotation=90;" parent="1" vertex="1">
          <mxGeometry x="-493.29999999999995" y="-435.75" width="735" height="322.5" as="geometry" />
        </mxCell>
        <mxCell id="mVTbrcH1SR3zDorAHqVb-20" value="Vista a aparque" style="text;html=1;align=center;verticalAlign=middle;resizable=0;points=[];autosize=1;" parent="1" vertex="1">
          <mxGeometry x="860.45" y="-162" width="100" height="20" as="geometry" />
        </mxCell>
        <mxCell id="mVTbrcH1SR3zDorAHqVb-21" value="&lt;font style=&quot;font-size: 24px&quot;&gt;CONSTRUCCION DE EDIFICIO MAS DE 20 PISOS&lt;/font&gt;" style="rounded=0;whiteSpace=wrap;html=1;" parent="1" vertex="1">
          <mxGeometry x="-557.05" y="-890" width="1327.5" height="220" as="geometry" />
        </mxCell>
        <mxCell id="mVTbrcH1SR3zDorAHqVb-22" value="" style="rounded=0;whiteSpace=wrap;html=1;rotation=90;" parent="1" vertex="1">
          <mxGeometry x="-904.55" y="-320" width="925" height="225" as="geometry" />
        </mxCell>
        <mxCell id="mVTbrcH1SR3zDorAHqVb-24" value="" style="rounded=0;whiteSpace=wrap;html=1;rotation=90;" parent="1" vertex="1">
          <mxGeometry x="407.18000000000006" y="-305.5500000000002" width="952.82" height="225" as="geometry" />
        </mxCell>
        <mxCell id="mVTbrcH1SR3zDorAHqVb-27" value="" style="rounded=0;whiteSpace=wrap;html=1;" parent="1" vertex="1">
          <mxGeometry x="34.450000000000045" y="-57" width="686" height="147" as="geometry" />
        </mxCell>
        <mxCell id="mVTbrcH1SR3zDorAHqVb-28" value="&lt;font style=&quot;font-size: 36px&quot;&gt;Cocina&lt;/font&gt;" style="text;whiteSpace=wrap;html=1;" parent="1" vertex="1">
          <mxGeometry x="572.95" y="-310" width="190" height="30" as="geometry" />
        </mxCell>
        <mxCell id="mVTbrcH1SR3zDorAHqVb-29" value="&lt;font style=&quot;font-size: 36px&quot;&gt;sala&lt;/font&gt;" style="text;whiteSpace=wrap;html=1;" parent="1" vertex="1">
          <mxGeometry x="136.00000000000006" y="-200.68" width="190" height="30" as="geometry" />
        </mxCell>
        <mxCell id="mVTbrcH1SR3zDorAHqVb-30" value="" style="whiteSpace=wrap;html=1;aspect=fixed;" parent="1" vertex="1">
          <mxGeometry x="302.95000000000005" y="-342" width="80" height="80" as="geometry" />
        </mxCell>
        <mxCell id="mVTbrcH1SR3zDorAHqVb-31" value="&lt;font style=&quot;font-size: 18px&quot;&gt;COLUMNA&lt;/font&gt;" style="text;whiteSpace=wrap;html=1;" parent="1" vertex="1">
          <mxGeometry x="296.95000000000005" y="-327" width="190" height="30" as="geometry" />
        </mxCell>
        <mxCell id="mVTbrcH1SR3zDorAHqVb-32" value="" style="rounded=1;whiteSpace=wrap;html=1;rotation=90;fillColor=#99FFCC;" parent="1" vertex="1">
          <mxGeometry x="482.95000000000005" y="-195" width="120" height="10" as="geometry" />
        </mxCell>
        <mxCell id="mVTbrcH1SR3zDorAHqVb-33" value="" style="rounded=1;whiteSpace=wrap;html=1;rotation=90;fillColor=#99FFCC;" parent="1" vertex="1">
          <mxGeometry x="-27.049999999999955" y="-123.25" width="120" height="10" as="geometry" />
        </mxCell>
        <mxCell id="mVTbrcH1SR3zDorAHqVb-34" value="" style="rounded=1;whiteSpace=wrap;html=1;rotation=-180;fillColor=#99FFCC;" parent="1" vertex="1">
          <mxGeometry x="-91.26" y="-44" width="96.22" height="17" as="geometry" />
        </mxCell>
        <mxCell id="mVTbrcH1SR3zDorAHqVb-35" value="" style="rounded=1;whiteSpace=wrap;html=1;rotation=-90;fillColor=#99FFCC;" parent="1" vertex="1">
          <mxGeometry x="-168.79999999999995" y="-92" width="120" height="10" as="geometry" />
        </mxCell>
        <mxCell id="mVTbrcH1SR3zDorAHqVb-36" value="" style="rounded=1;whiteSpace=wrap;html=1;rotation=-180;fillColor=#99FFCC;" parent="1" vertex="1">
          <mxGeometry x="-86.25999999999999" y="-349" width="120" height="10" as="geometry" />
        </mxCell>
        <mxCell id="mVTbrcH1SR3zDorAHqVb-37" value="" style="rounded=1;whiteSpace=wrap;html=1;rotation=90;fillColor=#99FFCC;" parent="1" vertex="1">
          <mxGeometry x="-145.8499999999999" y="-415.21000000000004" width="102.41" height="10" as="geometry" />
        </mxCell>
        <mxCell id="mVTbrcH1SR3zDorAHqVb-38" value="" style="rounded=1;whiteSpace=wrap;html=1;rotation=90;fillColor=#99FFCC;" parent="1" vertex="1">
          <mxGeometry x="-258.26" y="-262" width="120" height="10" as="geometry" />
        </mxCell>
        <mxCell id="mVTbrcH1SR3zDorAHqVb-39" value="" style="rounded=1;whiteSpace=wrap;html=1;rotation=0;fillColor=#99FFCC;" parent="1" vertex="1">
          <mxGeometry x="82.95000000000005" y="-64.25" width="120" height="10" as="geometry" />
        </mxCell>
        <mxCell id="mVTbrcH1SR3zDorAHqVb-40" value="&lt;font style=&quot;font-size: 14px&quot;&gt;PUERTA PRINCIPAL&lt;/font&gt;" style="text;whiteSpace=wrap;html=1;" parent="1" vertex="1">
          <mxGeometry x="82.95000000000005" y="-52" width="190" height="30" as="geometry" />
        </mxCell>
        <mxCell id="mVTbrcH1SR3zDorAHqVb-41" value="" style="rounded=0;whiteSpace=wrap;html=1;rotation=90;" parent="1" vertex="1">
          <mxGeometry x="-104.8" y="-40.75" width="125" height="150.5" as="geometry" />
        </mxCell>
        <mxCell id="mVTbrcH1SR3zDorAHqVb-42" value="" style="rounded=0;whiteSpace=wrap;html=1;rotation=90;" parent="1" vertex="1">
          <mxGeometry x="-320.66999999999996" y="-114.11999999999989" width="240" height="171.25" as="geometry" />
        </mxCell>
        <mxCell id="mVTbrcH1SR3zDorAHqVb-43" value="&lt;font style=&quot;font-size: 18px&quot;&gt;CUARTO MEDIANO&lt;/font&gt;" style="text;whiteSpace=wrap;html=1;" parent="1" vertex="1">
          <mxGeometry x="-283.26" y="-54.25" width="190" height="30" as="geometry" />
        </mxCell>
        <mxCell id="mVTbrcH1SR3zDorAHqVb-44" value="&lt;div&gt;&lt;font style=&quot;font-size: 18px&quot;&gt;CUARTO &lt;br&gt;&lt;/font&gt;&lt;/div&gt;&lt;div&gt;&lt;font style=&quot;font-size: 18px&quot;&gt;PEQUEÑO&lt;/font&gt;&lt;/div&gt;" style="text;whiteSpace=wrap;html=1;" parent="1" vertex="1">
          <mxGeometry x="-80.66999999999996" y="1.5" width="190" height="30" as="geometry" />
        </mxCell>
        <mxCell id="mVTbrcH1SR3zDorAHqVb-45" value="" style="rounded=0;whiteSpace=wrap;html=1;rotation=90;" parent="1" vertex="1">
          <mxGeometry x="-339.55999999999995" y="-283.5999999999999" width="184.92" height="83.31" as="geometry" />
        </mxCell>
        <mxCell id="mVTbrcH1SR3zDorAHqVb-46" value="&lt;font style=&quot;font-size: 24px&quot;&gt;BAÑO&lt;/font&gt;" style="text;whiteSpace=wrap;html=1;" parent="1" vertex="1">
          <mxGeometry x="-281.54999999999995" y="-258" width="190" height="30" as="geometry" />
        </mxCell>
        <mxCell id="mVTbrcH1SR3zDorAHqVb-47" value="" style="rounded=0;whiteSpace=wrap;html=1;rotation=90;" parent="1" vertex="1">
          <mxGeometry x="-240.43999999999994" y="-480.3000000000002" width="124.82" height="158.6" as="geometry" />
        </mxCell>
        <mxCell id="mVTbrcH1SR3zDorAHqVb-48" value="&lt;font style=&quot;font-size: 24px&quot;&gt;BAÑO&lt;/font&gt;" style="text;whiteSpace=wrap;html=1;" parent="1" vertex="1">
          <mxGeometry x="-233.86" y="-425.21000000000004" width="91.21" height="30" as="geometry" />
        </mxCell>
        <mxCell id="mVTbrcH1SR3zDorAHqVb-49" value="&lt;font style=&quot;font-size: 24px&quot;&gt;CUARTO PRINCIPAL&lt;/font&gt;" style="text;whiteSpace=wrap;html=1;" parent="1" vertex="1">
          <mxGeometry x="-245.79999999999995" y="-570" width="240" height="30" as="geometry" />
        </mxCell>
        <mxCell id="mVTbrcH1SR3zDorAHqVb-50" value="" style="rounded=0;whiteSpace=wrap;html=1;fillColor=#FFFF00;" parent="1" vertex="1">
          <mxGeometry x="52.950000000000045" y="-354" width="230" height="20" as="geometry" />
        </mxCell>
        <mxCell id="mVTbrcH1SR3zDorAHqVb-51" value="" style="rounded=0;whiteSpace=wrap;html=1;fillColor=#FFFF00;" parent="1" vertex="1">
          <mxGeometry x="401.94000000000005" y="-354" width="131.01" height="20" as="geometry" />
        </mxCell>
        <mxCell id="mVTbrcH1SR3zDorAHqVb-52" value="" style="rounded=0;whiteSpace=wrap;html=1;fillColor=#FFFF00;" parent="1" vertex="1">
          <mxGeometry x="566.94" y="-490" width="61.01" height="20" as="geometry" />
        </mxCell>
        <mxCell id="mVTbrcH1SR3zDorAHqVb-54" value="" style="rounded=0;whiteSpace=wrap;html=1;fillColor=#FFFF00;rotation=-90;" parent="1" vertex="1">
          <mxGeometry x="-13.059999999999945" y="-555" width="111.01" height="20" as="geometry" />
        </mxCell>
        <mxCell id="mVTbrcH1SR3zDorAHqVb-56" value="" style="rounded=0;whiteSpace=wrap;html=1;fillColor=#FFFF00;rotation=-180;" parent="1" vertex="1">
          <mxGeometry x="-93.25999999999988" y="90" width="89.21" height="20" as="geometry" />
        </mxCell>
        <mxCell id="mVTbrcH1SR3zDorAHqVb-57" value="" style="rounded=0;whiteSpace=wrap;html=1;fillColor=#FFFFFF;rotation=90;" parent="1" vertex="1">
          <mxGeometry x="-338.1099999999999" y="-414.2800000000002" width="132.23" height="25.91" as="geometry" />
        </mxCell>
        <mxCell id="mVTbrcH1SR3zDorAHqVb-58" value="" style="endArrow=none;html=1;entryX=0;entryY=0;entryDx=0;entryDy=0;exitX=1;exitY=1;exitDx=0;exitDy=0;" parent="1" source="mVTbrcH1SR3zDorAHqVb-22" target="mVTbrcH1SR3zDorAHqVb-22" edge="1">
          <mxGeometry width="50" height="50" relative="1" as="geometry">
            <mxPoint x="152.95000000000005" y="-340" as="sourcePoint" />
            <mxPoint x="202.95000000000005" y="-390" as="targetPoint" />
          </mxGeometry>
        </mxCell>
        <mxCell id="mVTbrcH1SR3zDorAHqVb-59" value="" style="endArrow=none;html=1;entryX=0;entryY=1;entryDx=0;entryDy=0;exitX=1;exitY=0;exitDx=0;exitDy=0;startArrow=none;" parent="1" source="mVTbrcH1SR3zDorAHqVb-22" target="mVTbrcH1SR3zDorAHqVb-22" edge="1">
          <mxGeometry width="50" height="50" relative="1" as="geometry">
            <mxPoint x="-564.55" y="130" as="sourcePoint" />
            <mxPoint x="-339.54999999999995" y="-780.0000000000009" as="targetPoint" />
          </mxGeometry>
        </mxCell>
        <mxCell id="mVTbrcH1SR3zDorAHqVb-60" value="" style="endArrow=none;html=1;entryX=1;entryY=0;entryDx=0;entryDy=0;exitX=0;exitY=1;exitDx=0;exitDy=0;" parent="1" source="mVTbrcH1SR3zDorAHqVb-21" target="mVTbrcH1SR3zDorAHqVb-21" edge="1">
          <mxGeometry width="50" height="50" relative="1" as="geometry">
            <mxPoint x="-554.55" y="130" as="sourcePoint" />
            <mxPoint x="-329.54999999999995" y="-780.0000000000009" as="targetPoint" />
          </mxGeometry>
        </mxCell>
        <mxCell id="mVTbrcH1SR3zDorAHqVb-61" value="" style="endArrow=none;html=1;entryX=1;entryY=0;entryDx=0;entryDy=0;exitX=0;exitY=0;exitDx=0;exitDy=0;" parent="1" source="mVTbrcH1SR3zDorAHqVb-21" target="mVTbrcH1SR3zDorAHqVb-15" edge="1">
          <mxGeometry width="50" height="50" relative="1" as="geometry">
            <mxPoint x="-329.54999999999995" y="-767.0000000000009" as="sourcePoint" />
            <mxPoint x="770.45" y="-877.0000000000005" as="targetPoint" />
          </mxGeometry>
        </mxCell>
        <mxCell id="mVTbrcH1SR3zDorAHqVb-62" value="" style="endArrow=none;html=1;entryX=1.007;entryY=0.015;entryDx=0;entryDy=0;exitX=1;exitY=0;exitDx=0;exitDy=0;entryPerimeter=0;startArrow=none;" parent="1" target="mVTbrcH1SR3zDorAHqVb-15" edge="1" source="mVTbrcH1SR3zDorAHqVb-24">
          <mxGeometry width="50" height="50" relative="1" as="geometry">
            <mxPoint x="995.45" y="280" as="sourcePoint" />
            <mxPoint x="770.45" y="-630.0000000000005" as="targetPoint" />
          </mxGeometry>
        </mxCell>
        <mxCell id="mVTbrcH1SR3zDorAHqVb-63" value="" style="endArrow=none;html=1;entryX=0.012;entryY=0.014;entryDx=0;entryDy=0;exitX=1;exitY=1;exitDx=0;exitDy=0;entryPerimeter=0;" parent="1" source="mVTbrcH1SR3zDorAHqVb-24" target="mVTbrcH1SR3zDorAHqVb-24" edge="1">
          <mxGeometry width="50" height="50" relative="1" as="geometry">
            <mxPoint x="995.45" y="130" as="sourcePoint" />
            <mxPoint x="770.45" y="-780.0000000000005" as="targetPoint" />
          </mxGeometry>
        </mxCell>
        <mxCell id="mVTbrcH1SR3zDorAHqVb-64" value="" style="rounded=0;whiteSpace=wrap;html=1;fillColor=#FFFFFF;rotation=90;" parent="1" vertex="1">
          <mxGeometry x="288.26000000000005" y="-75.59999999999991" width="96.12" height="133.35" as="geometry" />
        </mxCell>
        <mxCell id="mVTbrcH1SR3zDorAHqVb-65" value="&lt;font style=&quot;font-size: 18px&quot;&gt;ASENSOR&lt;/font&gt;" style="text;html=1;align=center;verticalAlign=middle;resizable=0;points=[];autosize=1;" parent="1" vertex="1">
          <mxGeometry x="286.32000000000005" y="-22" width="100" height="20" as="geometry" />
        </mxCell>
        <mxCell id="mVTbrcH1SR3zDorAHqVb-66" value="" style="rounded=0;whiteSpace=wrap;html=1;fillColor=#FFFFFF;rotation=90;" parent="1" vertex="1">
          <mxGeometry x="419.38000000000005" y="-75.59999999999991" width="96.12" height="133.35" as="geometry" />
        </mxCell>
        <mxCell id="mVTbrcH1SR3zDorAHqVb-67" value="&lt;font style=&quot;font-size: 18px&quot;&gt;ESCALERAS&lt;/font&gt;" style="text;html=1;align=center;verticalAlign=middle;resizable=0;points=[];autosize=1;" parent="1" vertex="1">
          <mxGeometry x="405.50000000000006" y="-22" width="120" height="20" as="geometry" />
        </mxCell>
        <mxCell id="mVTbrcH1SR3zDorAHqVb-68" value="" style="rounded=0;whiteSpace=wrap;html=1;fillColor=#FFFF00;rotation=-90;" parent="1" vertex="1">
          <mxGeometry x="-270.03999999999996" y="-439.48" width="21.25" height="12.99" as="geometry" />
        </mxCell>
        <mxCell id="mVTbrcH1SR3zDorAHqVb-69" value="" style="rounded=0;whiteSpace=wrap;html=1;fillColor=#FFFF00;rotation=-90;" parent="1" vertex="1">
          <mxGeometry x="-277.5799999999999" y="-350.5300000000002" width="11.17" height="20" as="geometry" />
        </mxCell>
        <mxCell id="mVTbrcH1SR3zDorAHqVb-70" value="" style="shape=orEllipse;perimeter=ellipsePerimeter;whiteSpace=wrap;html=1;backgroundOutline=1;fillColor=#FFFFFF;" parent="1" vertex="1">
          <mxGeometry x="-187.04999999999995" y="-239.5" width="80" height="80" as="geometry" />
        </mxCell>
        <mxCell id="mVTbrcH1SR3zDorAHqVb-71" value="&lt;div&gt;&lt;font style=&quot;font-size: 14px&quot;&gt;ESCALERA&lt;/font&gt;&lt;/div&gt;&lt;div&gt;&lt;font style=&quot;font-size: 14px&quot;&gt; CARACOL&lt;/font&gt;&lt;/div&gt;" style="text;html=1;align=center;verticalAlign=middle;resizable=0;points=[];autosize=1;" parent="1" vertex="1">
          <mxGeometry x="-181.54999999999995" y="-283.5999999999999" width="90" height="40" as="geometry" />
        </mxCell>
        <mxCell id="mVTbrcH1SR3zDorAHqVb-72" value="" style="rounded=0;whiteSpace=wrap;html=1;fillColor=#FFFFFF;rotation=90;" parent="1" vertex="1">
          <mxGeometry x="9.75" y="7.420000000000073" width="285.93" height="226.71" as="geometry" />
        </mxCell>
        <mxCell id="mVTbrcH1SR3zDorAHqVb-73" value="&lt;font style=&quot;font-size: 18px&quot;&gt;PASADIZO&lt;/font&gt;" style="text;html=1;align=center;verticalAlign=middle;resizable=0;points=[];autosize=1;" parent="1" vertex="1">
          <mxGeometry x="82.95000000000005" y="99.5" width="110" height="20" as="geometry" />
        </mxCell>
        <mxCell id="mVTbrcH1SR3zDorAHqVb-75" value="" style="rounded=0;whiteSpace=wrap;html=1;strokeColor=#3333FF;fillColor=#66B2FF;" parent="1" vertex="1">
          <mxGeometry x="1345.45" y="-678.68" width="1100" height="798" as="geometry" />
        </mxCell>
        <mxCell id="mVTbrcH1SR3zDorAHqVb-76" value="" style="rounded=0;whiteSpace=wrap;html=1;rotation=90;" parent="1" vertex="1">
          <mxGeometry x="2099.59" y="-364.8300000000001" width="418.29" height="180" as="geometry" />
        </mxCell>
        <mxCell id="mVTbrcH1SR3zDorAHqVb-77" value="" style="rounded=0;whiteSpace=wrap;html=1;" parent="1" vertex="1">
          <mxGeometry x="1708.74" y="-350.68" width="510" height="285" as="geometry" />
        </mxCell>
        <mxCell id="mVTbrcH1SR3zDorAHqVb-78" value="" style="rounded=0;whiteSpace=wrap;html=1;rotation=90;" parent="1" vertex="1">
          <mxGeometry x="1181.7" y="-444.43" width="735" height="322.5" as="geometry" />
        </mxCell>
        <mxCell id="mVTbrcH1SR3zDorAHqVb-79" value="Vista a aparque" style="text;html=1;align=center;verticalAlign=middle;resizable=0;points=[];autosize=1;" parent="1" vertex="1">
          <mxGeometry x="2535.45" y="-170.68" width="100" height="20" as="geometry" />
        </mxCell>
        <mxCell id="mVTbrcH1SR3zDorAHqVb-80" value="&lt;font style=&quot;font-size: 24px&quot;&gt;CONSTRUCCION DE EDIFICIO MAS DE 20 PISOS&lt;/font&gt;" style="rounded=0;whiteSpace=wrap;html=1;" parent="1" vertex="1">
          <mxGeometry x="1117.95" y="-898.68" width="1327.5" height="220" as="geometry" />
        </mxCell>
        <mxCell id="mVTbrcH1SR3zDorAHqVb-81" value="" style="rounded=0;whiteSpace=wrap;html=1;rotation=90;" parent="1" vertex="1">
          <mxGeometry x="770.45" y="-328.68" width="925" height="225" as="geometry" />
        </mxCell>
        <mxCell id="mVTbrcH1SR3zDorAHqVb-83" value="" style="rounded=0;whiteSpace=wrap;html=1;rotation=90;" parent="1" vertex="1">
          <mxGeometry x="2082.1800000000003" y="-314.2300000000002" width="952.82" height="225" as="geometry" />
        </mxCell>
        <mxCell id="mVTbrcH1SR3zDorAHqVb-84" value="&lt;font style=&quot;font-size: 24px&quot;&gt;casa de 1 piso&lt;/font&gt;" style="text;whiteSpace=wrap;html=1;" parent="1" vertex="1">
          <mxGeometry x="2474.09" y="-386.68" width="190" height="30" as="geometry" />
        </mxCell>
        <mxCell id="mVTbrcH1SR3zDorAHqVb-85" value="" style="rounded=0;whiteSpace=wrap;html=1;" parent="1" vertex="1">
          <mxGeometry x="1780" y="-65.68" width="615.45" height="147" as="geometry" />
        </mxCell>
        <mxCell id="mVTbrcH1SR3zDorAHqVb-86" value="&lt;font style=&quot;font-size: 24px&quot;&gt;Cocina&lt;/font&gt;" style="text;whiteSpace=wrap;html=1;" parent="1" vertex="1">
          <mxGeometry x="2262.29" y="-126.72999999999999" width="120" height="30" as="geometry" />
        </mxCell>
        <mxCell id="mVTbrcH1SR3zDorAHqVb-87" value="&lt;font style=&quot;font-size: 36px&quot;&gt;sala&lt;/font&gt;" style="text;whiteSpace=wrap;html=1;" parent="1" vertex="1">
          <mxGeometry x="1930" y="-226.95000000000002" width="190" height="30" as="geometry" />
        </mxCell>
        <mxCell id="mVTbrcH1SR3zDorAHqVb-88" value="" style="whiteSpace=wrap;html=1;aspect=fixed;" parent="1" vertex="1">
          <mxGeometry x="1977.95" y="-350.68" width="80" height="80" as="geometry" />
        </mxCell>
        <mxCell id="mVTbrcH1SR3zDorAHqVb-89" value="&lt;font style=&quot;font-size: 18px&quot;&gt;COLUMNA&lt;/font&gt;" style="text;whiteSpace=wrap;html=1;" parent="1" vertex="1">
          <mxGeometry x="1971.95" y="-335.68" width="190" height="30" as="geometry" />
        </mxCell>
        <mxCell id="mVTbrcH1SR3zDorAHqVb-90" value="" style="rounded=1;whiteSpace=wrap;html=1;rotation=90;fillColor=#99FFCC;" parent="1" vertex="1">
          <mxGeometry x="2173.98" y="-123.72999999999999" width="87.95" height="10" as="geometry" />
        </mxCell>
        <mxCell id="mVTbrcH1SR3zDorAHqVb-91" value="" style="rounded=1;whiteSpace=wrap;html=1;rotation=90;fillColor=#99FFCC;" parent="1" vertex="1">
          <mxGeometry x="1650" y="-239.5" width="120" height="10" as="geometry" />
        </mxCell>
        <mxCell id="mVTbrcH1SR3zDorAHqVb-93" value="" style="rounded=1;whiteSpace=wrap;html=1;rotation=-180;fillColor=#99FFCC;" parent="1" vertex="1">
          <mxGeometry x="1571.74" y="-75.6" width="120" height="10" as="geometry" />
        </mxCell>
        <mxCell id="mVTbrcH1SR3zDorAHqVb-94" value="" style="rounded=1;whiteSpace=wrap;html=1;rotation=-180;fillColor=#99FFCC;" parent="1" vertex="1">
          <mxGeometry x="1584" y="-488.98" width="120" height="10" as="geometry" />
        </mxCell>
        <mxCell id="mVTbrcH1SR3zDorAHqVb-95" value="" style="rounded=1;whiteSpace=wrap;html=1;rotation=90;fillColor=#99FFCC;" parent="1" vertex="1">
          <mxGeometry x="1527.5900000000001" y="-403.89000000000004" width="102.41" height="10" as="geometry" />
        </mxCell>
        <mxCell id="mVTbrcH1SR3zDorAHqVb-96" value="" style="rounded=1;whiteSpace=wrap;html=1;rotation=90;fillColor=#99FFCC;" parent="1" vertex="1">
          <mxGeometry x="1443.11" y="-316.05" width="63.26" height="10" as="geometry" />
        </mxCell>
        <mxCell id="mVTbrcH1SR3zDorAHqVb-100" value="" style="rounded=0;whiteSpace=wrap;html=1;rotation=90;" parent="1" vertex="1">
          <mxGeometry x="1571.4" y="-130.41" width="150" height="276.81" as="geometry" />
        </mxCell>
        <mxCell id="mVTbrcH1SR3zDorAHqVb-101" value="&lt;font style=&quot;font-size: 24px;&quot;&gt;Cuarto Meidano - Oficina&lt;/font&gt;" style="text;whiteSpace=wrap;html=1;" parent="1" vertex="1">
          <mxGeometry x="1536.74" y="-7.180000000000007" width="190" height="30" as="geometry" />
        </mxCell>
        <mxCell id="mVTbrcH1SR3zDorAHqVb-103" value="" style="rounded=0;whiteSpace=wrap;html=1;rotation=90;" parent="1" vertex="1">
          <mxGeometry x="1335.44" y="-292.2799999999999" width="184.92" height="83.31" as="geometry" />
        </mxCell>
        <mxCell id="mVTbrcH1SR3zDorAHqVb-104" value="&lt;div&gt;&lt;font style=&quot;font-size: 18px&quot;&gt;LAVAN&lt;/font&gt;&lt;/div&gt;&lt;div&gt;&lt;font style=&quot;font-size: 18px&quot;&gt;DERIA&lt;/font&gt;&lt;/div&gt;" style="text;whiteSpace=wrap;html=1;" parent="1" vertex="1">
          <mxGeometry x="1394.63" y="-269.5" width="66.55" height="30" as="geometry" />
        </mxCell>
        <mxCell id="mVTbrcH1SR3zDorAHqVb-105" value="" style="rounded=0;whiteSpace=wrap;html=1;rotation=90;" parent="1" vertex="1">
          <mxGeometry x="1434.56" y="-488.9800000000002" width="124.82" height="158.6" as="geometry" />
        </mxCell>
        <mxCell id="mVTbrcH1SR3zDorAHqVb-106" value="&lt;font style=&quot;font-size: 24px&quot;&gt;BAÑO&lt;/font&gt;" style="text;whiteSpace=wrap;html=1;" parent="1" vertex="1">
          <mxGeometry x="1441.1399999999999" y="-433.89000000000004" width="91.21" height="30" as="geometry" />
        </mxCell>
        <mxCell id="mVTbrcH1SR3zDorAHqVb-107" value="&lt;font style=&quot;font-size: 24px&quot;&gt;CUARTO PRINCIPAL&lt;/font&gt;" style="text;whiteSpace=wrap;html=1;" parent="1" vertex="1">
          <mxGeometry x="1455.45" y="-568.68" width="240" height="30" as="geometry" />
        </mxCell>
        <mxCell id="mVTbrcH1SR3zDorAHqVb-108" value="" style="rounded=0;whiteSpace=wrap;html=1;fillColor=#FFFF00;" parent="1" vertex="1">
          <mxGeometry x="1727.95" y="-362.68" width="230" height="20" as="geometry" />
        </mxCell>
        <mxCell id="mVTbrcH1SR3zDorAHqVb-109" value="" style="rounded=0;whiteSpace=wrap;html=1;fillColor=#FFFF00;" parent="1" vertex="1">
          <mxGeometry x="2076.94" y="-362.68" width="131.01" height="20" as="geometry" />
        </mxCell>
        <mxCell id="mVTbrcH1SR3zDorAHqVb-110" value="" style="rounded=0;whiteSpace=wrap;html=1;fillColor=#FFFF00;rotation=90;" parent="1" vertex="1">
          <mxGeometry x="2366.28" y="-121.93" width="61.01" height="20" as="geometry" />
        </mxCell>
        <mxCell id="mVTbrcH1SR3zDorAHqVb-111" value="" style="rounded=0;whiteSpace=wrap;html=1;fillColor=#FFFF00;rotation=-90;" parent="1" vertex="1">
          <mxGeometry x="1661.94" y="-563.68" width="111.01" height="20" as="geometry" />
        </mxCell>
        <mxCell id="mVTbrcH1SR3zDorAHqVb-112" value="" style="rounded=0;whiteSpace=wrap;html=1;fillColor=#FFFF00;rotation=-90;" parent="1" vertex="1">
          <mxGeometry x="1270.5" y="-46.5" width="212" height="20" as="geometry" />
        </mxCell>
        <mxCell id="mVTbrcH1SR3zDorAHqVb-114" value="" style="rounded=0;whiteSpace=wrap;html=1;fillColor=#FFFFFF;rotation=90;" parent="1" vertex="1">
          <mxGeometry x="1336.89" y="-422.9600000000002" width="132.23" height="25.91" as="geometry" />
        </mxCell>
        <mxCell id="mVTbrcH1SR3zDorAHqVb-115" value="" style="endArrow=none;html=1;entryX=0;entryY=0;entryDx=0;entryDy=0;exitX=1;exitY=1;exitDx=0;exitDy=0;startArrow=none;" parent="1" source="mVTbrcH1SR3zDorAHqVb-82" target="mVTbrcH1SR3zDorAHqVb-81" edge="1">
          <mxGeometry width="50" height="50" relative="1" as="geometry">
            <mxPoint x="1827.95" y="-348.68" as="sourcePoint" />
            <mxPoint x="1877.95" y="-398.68" as="targetPoint" />
          </mxGeometry>
        </mxCell>
        <mxCell id="mVTbrcH1SR3zDorAHqVb-116" value="" style="endArrow=none;html=1;entryX=0;entryY=1;entryDx=0;entryDy=0;exitX=1;exitY=0;exitDx=0;exitDy=0;" parent="1" source="mVTbrcH1SR3zDorAHqVb-81" target="mVTbrcH1SR3zDorAHqVb-81" edge="1">
          <mxGeometry width="50" height="50" relative="1" as="geometry">
            <mxPoint x="1110.45" y="121.32" as="sourcePoint" />
            <mxPoint x="1335.45" y="-788.6800000000009" as="targetPoint" />
          </mxGeometry>
        </mxCell>
        <mxCell id="mVTbrcH1SR3zDorAHqVb-117" value="" style="endArrow=none;html=1;entryX=1;entryY=0;entryDx=0;entryDy=0;exitX=0;exitY=1;exitDx=0;exitDy=0;" parent="1" source="mVTbrcH1SR3zDorAHqVb-80" target="mVTbrcH1SR3zDorAHqVb-80" edge="1">
          <mxGeometry width="50" height="50" relative="1" as="geometry">
            <mxPoint x="1120.45" y="121.32" as="sourcePoint" />
            <mxPoint x="1345.45" y="-788.6800000000009" as="targetPoint" />
          </mxGeometry>
        </mxCell>
        <mxCell id="mVTbrcH1SR3zDorAHqVb-118" value="" style="endArrow=none;html=1;entryX=1;entryY=0;entryDx=0;entryDy=0;exitX=0;exitY=0;exitDx=0;exitDy=0;" parent="1" source="mVTbrcH1SR3zDorAHqVb-80" target="mVTbrcH1SR3zDorAHqVb-75" edge="1">
          <mxGeometry width="50" height="50" relative="1" as="geometry">
            <mxPoint x="1345.45" y="-775.6800000000009" as="sourcePoint" />
            <mxPoint x="2445.45" y="-885.6800000000004" as="targetPoint" />
          </mxGeometry>
        </mxCell>
        <mxCell id="mVTbrcH1SR3zDorAHqVb-119" value="" style="endArrow=none;html=1;exitX=1;exitY=0;exitDx=0;exitDy=0;" parent="1" edge="1">
          <mxGeometry width="50" height="50" relative="1" as="geometry">
            <mxPoint x="2670.45" y="271.32" as="sourcePoint" />
            <mxPoint x="2450" y="-680" as="targetPoint" />
          </mxGeometry>
        </mxCell>
        <mxCell id="mVTbrcH1SR3zDorAHqVb-120" value="" style="endArrow=none;html=1;entryX=0.012;entryY=0.014;entryDx=0;entryDy=0;exitX=1;exitY=1;exitDx=0;exitDy=0;entryPerimeter=0;" parent="1" source="mVTbrcH1SR3zDorAHqVb-83" target="mVTbrcH1SR3zDorAHqVb-83" edge="1">
          <mxGeometry width="50" height="50" relative="1" as="geometry">
            <mxPoint x="2670.45" y="121.32" as="sourcePoint" />
            <mxPoint x="2445.45" y="-788.6800000000004" as="targetPoint" />
          </mxGeometry>
        </mxCell>
        <mxCell id="mVTbrcH1SR3zDorAHqVb-123" value="" style="rounded=0;whiteSpace=wrap;html=1;fillColor=#FFFFFF;rotation=90;" parent="1" vertex="1">
          <mxGeometry x="1948.17" y="-230.51" width="96.12" height="425.79" as="geometry" />
        </mxCell>
        <mxCell id="mVTbrcH1SR3zDorAHqVb-125" value="" style="rounded=0;whiteSpace=wrap;html=1;fillColor=#FFFF00;rotation=-90;" parent="1" vertex="1">
          <mxGeometry x="1404.96" y="-448.16" width="21.25" height="12.99" as="geometry" />
        </mxCell>
        <mxCell id="mVTbrcH1SR3zDorAHqVb-126" value="" style="rounded=0;whiteSpace=wrap;html=1;fillColor=#FFFF00;rotation=-90;" parent="1" vertex="1">
          <mxGeometry x="1397.42" y="-359.2100000000002" width="11.17" height="20" as="geometry" />
        </mxCell>
        <mxCell id="mVTbrcH1SR3zDorAHqVb-130" value="&lt;font style=&quot;font-size: 18px&quot;&gt;TANQUE DE GAS&lt;/font&gt;" style="text;html=1;align=center;verticalAlign=middle;resizable=0;points=[];autosize=1;" parent="1" vertex="1">
          <mxGeometry x="1872" y="-27" width="160" height="20" as="geometry" />
        </mxCell>
        <mxCell id="mVTbrcH1SR3zDorAHqVb-133" value="" style="endArrow=none;html=1;" parent="1" edge="1">
          <mxGeometry width="50" height="50" relative="1" as="geometry">
            <mxPoint x="2226" y="-200" as="sourcePoint" />
            <mxPoint x="2395" y="-200" as="targetPoint" />
            <Array as="points">
              <mxPoint x="2296" y="-200" />
            </Array>
          </mxGeometry>
        </mxCell>
        <mxCell id="mVTbrcH1SR3zDorAHqVb-134" value="&lt;div&gt;&lt;font style=&quot;font-size: 24px&quot;&gt;&lt;b&gt;&lt;font style=&quot;font-size: 18px&quot;&gt;TERRAZA&lt;/font&gt;&lt;/b&gt;/&lt;/font&gt;&lt;/div&gt;&lt;div&gt;&lt;font style=&quot;font-size: 24px&quot;&gt;Comedor&lt;br&gt;&lt;/font&gt;&lt;/div&gt;" style="text;whiteSpace=wrap;html=1;" parent="1" vertex="1">
          <mxGeometry x="2250" y="-416.67999999999995" width="120" height="30" as="geometry" />
        </mxCell>
        <mxCell id="mVTbrcH1SR3zDorAHqVb-6" value="" style="endArrow=classic;html=1;" parent="1" edge="1">
          <mxGeometry width="50" height="50" relative="1" as="geometry">
            <mxPoint x="2400.45" y="-405.21" as="sourcePoint" />
            <mxPoint x="2770.45" y="272.79" as="targetPoint" />
          </mxGeometry>
        </mxCell>
        <mxCell id="mVTbrcH1SR3zDorAHqVb-135" value="&lt;font style=&quot;font-size: 18px&quot;&gt;VISTA AL PARQUE&lt;/font&gt;" style="text;html=1;align=center;verticalAlign=middle;resizable=0;points=[];autosize=1;rotation=60;" parent="1" vertex="1">
          <mxGeometry x="2680" y="190" width="170" height="20" as="geometry" />
        </mxCell>
        <mxCell id="mVTbrcH1SR3zDorAHqVb-136" value="" style="rounded=0;whiteSpace=wrap;html=1;rotation=90;" parent="1" vertex="1">
          <mxGeometry x="1328.54" y="-100.53" width="240" height="130.07" as="geometry" />
        </mxCell>
        <mxCell id="mVTbrcH1SR3zDorAHqVb-137" value="&lt;div&gt;&lt;font style=&quot;font-size: 18px&quot;&gt;TERRAZA/&lt;/font&gt;&lt;/div&gt;&lt;div&gt;&lt;font style=&quot;font-size: 18px&quot;&gt;TENDEDERO&lt;br&gt;&lt;/font&gt;&lt;/div&gt;" style="text;whiteSpace=wrap;html=1;" parent="1" vertex="1">
          <mxGeometry x="1393.5" y="-75.6" width="106.5" height="54" as="geometry" />
        </mxCell>
        <mxCell id="B_jd62QVZYPn1DrVgohh-6" value="" style="edgeStyle=orthogonalEdgeStyle;rounded=0;orthogonalLoop=1;jettySize=auto;html=1;fontSize=24;" edge="1" parent="1" source="mVTbrcH1SR3zDorAHqVb-139" target="mVTbrcH1SR3zDorAHqVb-134">
          <mxGeometry relative="1" as="geometry" />
        </mxCell>
        <mxCell id="mVTbrcH1SR3zDorAHqVb-139" value="" style="rounded=0;whiteSpace=wrap;html=1;fillColor=#FFFF00;rotation=90;" parent="1" vertex="1">
          <mxGeometry x="2311.5" y="-385.71" width="179" height="20" as="geometry" />
        </mxCell>
        <mxCell id="mVTbrcH1SR3zDorAHqVb-140" value="" style="endArrow=none;dashed=1;html=1;entryX=0.5;entryY=1;entryDx=0;entryDy=0;" parent="1" target="mVTbrcH1SR3zDorAHqVb-30" edge="1">
          <mxGeometry width="50" height="50" relative="1" as="geometry">
            <mxPoint x="340" y="-60" as="sourcePoint" />
            <mxPoint x="340" y="-271" as="targetPoint" />
          </mxGeometry>
        </mxCell>
        <mxCell id="mVTbrcH1SR3zDorAHqVb-142" value="&lt;b&gt;&lt;font style=&quot;font-size: 18px&quot;&gt;COMEDOR&lt;/font&gt;&lt;/b&gt;" style="text;whiteSpace=wrap;html=1;" parent="1" vertex="1">
          <mxGeometry x="398.50000000000006" y="-205" width="190" height="30" as="geometry" />
        </mxCell>
        <mxCell id="mVTbrcH1SR3zDorAHqVb-144" value="" style="rounded=1;whiteSpace=wrap;html=1;rotation=90;fillColor=#99FFCC;" parent="1" vertex="1">
          <mxGeometry x="2154.69" y="-275.67" width="126.53" height="10" as="geometry" />
        </mxCell>
        <mxCell id="mVTbrcH1SR3zDorAHqVb-145" value="" style="rounded=1;whiteSpace=wrap;html=1;rotation=-90;fillColor=#99FFCC;" parent="1" vertex="1">
          <mxGeometry x="1482.5" y="-116.73" width="65" height="10" as="geometry" />
        </mxCell>
        <mxCell id="mVTbrcH1SR3zDorAHqVb-146" value="" style="rounded=0;whiteSpace=wrap;html=1;fillColor=#FFFF00;rotation=-90;" parent="1" vertex="1">
          <mxGeometry x="1330.13" y="-563.68" width="111.01" height="20" as="geometry" />
        </mxCell>
        <mxCell id="mVTbrcH1SR3zDorAHqVb-147" value="&lt;div&gt;&lt;font style=&quot;font-size: 18px&quot;&gt;MEDIO&lt;/font&gt;&lt;/div&gt;&lt;div&gt;&lt;font style=&quot;font-size: 18px&quot;&gt;BAÑO&lt;br&gt;&lt;/font&gt;&lt;/div&gt;" style="rounded=0;whiteSpace=wrap;html=1;fillColor=#FFFFFF;" parent="1" vertex="1">
          <mxGeometry x="1384" y="-342" width="86" height="60" as="geometry" />
        </mxCell>
        <mxCell id="mVTbrcH1SR3zDorAHqVb-148" value="" style="shape=orEllipse;perimeter=ellipsePerimeter;whiteSpace=wrap;html=1;backgroundOutline=1;fillColor=#FFFFFF;" parent="1" vertex="1">
          <mxGeometry x="1484.5" y="-239.5" width="80" height="80" as="geometry" />
        </mxCell>
        <mxCell id="mVTbrcH1SR3zDorAHqVb-149" value="&lt;div&gt;&lt;font style=&quot;font-size: 14px&quot;&gt;ESCALERA&lt;/font&gt;&lt;/div&gt;&lt;div&gt;&lt;font style=&quot;font-size: 14px&quot;&gt; CARACOL&lt;/font&gt;&lt;/div&gt;" style="text;html=1;align=center;verticalAlign=middle;resizable=0;points=[];autosize=1;" parent="1" vertex="1">
          <mxGeometry x="1490" y="-283.5999999999999" width="90" height="40" as="geometry" />
        </mxCell>
        <mxCell id="JYmNuX4NXv4MnhDAqqSF-1" value="&lt;font style=&quot;font-size: 24px&quot;&gt;4,2&lt;/font&gt;" style="text;html=1;align=center;verticalAlign=middle;resizable=0;points=[];autosize=1;" parent="1" vertex="1">
          <mxGeometry x="2399" y="-248" width="50" height="20" as="geometry" />
        </mxCell>
        <mxCell id="JYmNuX4NXv4MnhDAqqSF-2" value="&lt;font style=&quot;font-size: 24px&quot;&gt;2,3.&lt;/font&gt;" style="text;html=1;align=center;verticalAlign=middle;resizable=0;points=[];autosize=1;" parent="1" vertex="1">
          <mxGeometry x="2275" y="-520" width="60" height="20" as="geometry" />
        </mxCell>
        <mxCell id="JYmNuX4NXv4MnhDAqqSF-3" value="&lt;font style=&quot;font-size: 24px&quot;&gt;5,8&lt;/font&gt;" style="text;html=1;align=center;verticalAlign=middle;resizable=0;points=[];autosize=1;" parent="1" vertex="1">
          <mxGeometry x="1960.32" y="-398" width="50" height="20" as="geometry" />
        </mxCell>
        <mxCell id="JYmNuX4NXv4MnhDAqqSF-4" value="&lt;font style=&quot;font-size: 24px&quot;&gt;4,7&lt;/font&gt;" style="text;html=1;align=center;verticalAlign=middle;resizable=0;points=[];autosize=1;" parent="1" vertex="1">
          <mxGeometry x="1738" y="-498.98" width="50" height="20" as="geometry" />
        </mxCell>
        <mxCell id="JYmNuX4NXv4MnhDAqqSF-5" value="&lt;font style=&quot;font-size: 24px&quot;&gt;3,90&lt;/font&gt;" style="text;html=1;align=center;verticalAlign=middle;resizable=0;points=[];autosize=1;" parent="1" vertex="1">
          <mxGeometry x="1507" y="-638.6800000000001" width="60" height="20" as="geometry" />
        </mxCell>
        <mxCell id="JYmNuX4NXv4MnhDAqqSF-6" value="&lt;font style=&quot;font-size: 24px&quot;&gt;3&lt;/font&gt;" style="text;html=1;align=center;verticalAlign=middle;resizable=0;points=[];autosize=1;" parent="1" vertex="1">
          <mxGeometry x="1400" y="-565.0000000000001" width="30" height="20" as="geometry" />
        </mxCell>
        <mxCell id="JYmNuX4NXv4MnhDAqqSF-7" value="" style="endArrow=none;html=1;exitX=0.25;exitY=0;exitDx=0;exitDy=0;entryX=0.4;entryY=0.086;entryDx=0;entryDy=0;entryPerimeter=0;" parent="1" edge="1">
          <mxGeometry width="50" height="50" relative="1" as="geometry">
            <mxPoint x="1733.4499999999998" y="-382.68000000000006" as="sourcePoint" />
            <mxPoint x="1733.4499999999998" y="-630.0519999999999" as="targetPoint" />
          </mxGeometry>
        </mxCell>
        <mxCell id="JYmNuX4NXv4MnhDAqqSF-8" value="&lt;font style=&quot;font-size: 24px&quot;&gt;2,80&lt;/font&gt;" style="text;html=1;align=center;verticalAlign=middle;resizable=0;points=[];autosize=1;" parent="1" vertex="1">
          <mxGeometry x="1457" y="-510.00000000000006" width="60" height="20" as="geometry" />
        </mxCell>
        <mxCell id="JYmNuX4NXv4MnhDAqqSF-9" value="&lt;font style=&quot;font-size: 24px&quot;&gt;3,3&lt;/font&gt;" style="text;html=1;align=center;verticalAlign=middle;resizable=0;points=[];autosize=1;" parent="1" vertex="1">
          <mxGeometry x="1528.36" y="-422.96000000000004" width="50" height="20" as="geometry" />
        </mxCell>
        <mxCell id="JYmNuX4NXv4MnhDAqqSF-10" value="&lt;font style=&quot;font-size: 24px&quot;&gt;2,80&lt;/font&gt;" style="text;html=1;align=center;verticalAlign=middle;resizable=0;points=[];autosize=1;" parent="1" vertex="1">
          <mxGeometry x="1455.45" y="-379.21000000000004" width="60" height="20" as="geometry" />
        </mxCell>
        <mxCell id="JYmNuX4NXv4MnhDAqqSF-12" value="&lt;font style=&quot;font-size: 24px&quot;&gt;5,30&lt;/font&gt;" style="text;html=1;align=center;verticalAlign=middle;resizable=0;points=[];autosize=1;" parent="1" vertex="1">
          <mxGeometry x="1493" y="89.74999999999989" width="60" height="20" as="geometry" />
        </mxCell>
        <mxCell id="65Ek00tLqhpVI4wB596t-12" value="" style="endArrow=none;dashed=1;html=1;dashPattern=1 3;strokeWidth=2;" parent="1" edge="1">
          <mxGeometry width="50" height="50" relative="1" as="geometry">
            <mxPoint x="-1238.9077049180332" y="-719.9399999999978" as="sourcePoint" />
            <mxPoint x="-1243.2499999999995" y="-717.7399999999989" as="targetPoint" />
          </mxGeometry>
        </mxCell>
        <mxCell id="65Ek00tLqhpVI4wB596t-14" value="" style="endArrow=none;dashed=1;html=1;dashPattern=1 3;strokeWidth=2;" parent="1" edge="1">
          <mxGeometry width="50" height="50" relative="1" as="geometry">
            <mxPoint x="-1243.2499999999995" y="-737.7399999999989" as="sourcePoint" />
            <mxPoint x="-1244.17" y="-738.0380066445186" as="targetPoint" />
          </mxGeometry>
        </mxCell>
        <mxCell id="65Ek00tLqhpVI4wB596t-37" value="" style="rounded=0;whiteSpace=wrap;html=1;rotation=90;" parent="1" vertex="1">
          <mxGeometry x="-1793.7599999999998" y="-993.9700000000003" width="430" height="815" as="geometry" />
        </mxCell>
        <mxCell id="65Ek00tLqhpVI4wB596t-38" value="" style="rounded=0;whiteSpace=wrap;html=1;rotation=90;" parent="1" vertex="1">
          <mxGeometry x="-1375.96" y="-728.2800000000007" width="274.53" height="133.73" as="geometry" />
        </mxCell>
        <mxCell id="65Ek00tLqhpVI4wB596t-39" value="" style="rounded=0;whiteSpace=wrap;html=1;rotation=90;" parent="1" vertex="1">
          <mxGeometry x="-1236.31" y="-466.4499999999998" width="137.11" height="27.34" as="geometry" />
        </mxCell>
        <mxCell id="65Ek00tLqhpVI4wB596t-40" value="" style="rounded=0;whiteSpace=wrap;html=1;rotation=90;" parent="1" vertex="1">
          <mxGeometry x="-2031.6599999999999" y="-757.3299999999999" width="255.45" height="166.39" as="geometry" />
        </mxCell>
        <mxCell id="65Ek00tLqhpVI4wB596t-41" value="" style="rounded=0;whiteSpace=wrap;html=1;rotation=90;" parent="1" vertex="1">
          <mxGeometry x="-1987.04" y="-543.5" width="169.89" height="166.39" as="geometry" />
        </mxCell>
        <mxCell id="65Ek00tLqhpVI4wB596t-42" value="&lt;font style=&quot;font-size: 36px&quot;&gt;&lt;b&gt;Cuarto&lt;/b&gt;&lt;/font&gt;" style="text;html=1;align=center;verticalAlign=middle;resizable=0;points=[];autosize=1;strokeColor=none;" parent="1" vertex="1">
          <mxGeometry x="-1973.69" y="-480.5699999999997" width="130" height="30" as="geometry" />
        </mxCell>
        <mxCell id="65Ek00tLqhpVI4wB596t-43" value="&lt;font style=&quot;font-size: 36px&quot;&gt;&lt;b&gt;Cuarto&lt;/b&gt;&lt;/font&gt;" style="text;html=1;align=center;verticalAlign=middle;resizable=0;points=[];autosize=1;strokeColor=none;" parent="1" vertex="1">
          <mxGeometry x="-1963.04" y="-678.6800000000003" width="130" height="30" as="geometry" />
        </mxCell>
        <mxCell id="65Ek00tLqhpVI4wB596t-45" value="&lt;font style=&quot;font-size: 24px&quot;&gt;&lt;b&gt;Cocina&lt;/b&gt;&lt;/font&gt;" style="text;html=1;align=center;verticalAlign=middle;resizable=0;points=[];autosize=1;strokeColor=none;" parent="1" vertex="1">
          <mxGeometry x="-1286.6399999999999" y="-688.1399999999994" width="100" height="20" as="geometry" />
        </mxCell>
        <mxCell id="65Ek00tLqhpVI4wB596t-46" value="&lt;font style=&quot;font-size: 18px&quot;&gt;PC&lt;/font&gt;" style="rounded=1;whiteSpace=wrap;html=1;" parent="1" vertex="1">
          <mxGeometry x="-1647.0000000000002" y="-781.9900000000007" width="101.4" height="26.81" as="geometry" />
        </mxCell>
        <mxCell id="65Ek00tLqhpVI4wB596t-47" value="&lt;font style=&quot;font-size: 18px&quot;&gt;PC&lt;/font&gt;" style="rounded=1;whiteSpace=wrap;html=1;" parent="1" vertex="1">
          <mxGeometry x="-1770.02" y="-784.1600000000008" width="101.4" height="26.81" as="geometry" />
        </mxCell>
        <mxCell id="65Ek00tLqhpVI4wB596t-48" value="&lt;font style=&quot;font-size: 18px&quot;&gt;PC&lt;/font&gt;" style="rounded=1;whiteSpace=wrap;html=1;rotation=-90;" parent="1" vertex="1">
          <mxGeometry x="-1840.02" y="-650.9500000000007" width="101.4" height="26.81" as="geometry" />
        </mxCell>
        <mxCell id="65Ek00tLqhpVI4wB596t-49" value="" style="rounded=0;whiteSpace=wrap;html=1;rotation=90;" parent="1" vertex="1">
          <mxGeometry x="-1553.3899999999999" y="-745.7799999999997" width="137.11" height="27.34" as="geometry" />
        </mxCell>
        <mxCell id="65Ek00tLqhpVI4wB596t-50" value="" style="rounded=0;whiteSpace=wrap;html=1;rotation=90;" parent="1" vertex="1">
          <mxGeometry x="-1553.3899999999999" y="-608.21" width="137.11" height="27.34" as="geometry" />
        </mxCell>
        <mxCell id="65Ek00tLqhpVI4wB596t-51" value="" style="rounded=0;whiteSpace=wrap;html=1;rotation=90;" parent="1" vertex="1">
          <mxGeometry x="-1333.1" y="-562.9300000000003" width="55.05" height="27.34" as="geometry" />
        </mxCell>
        <mxCell id="65Ek00tLqhpVI4wB596t-52" value="" style="rounded=0;whiteSpace=wrap;html=1;rotation=-180;" parent="1" vertex="1">
          <mxGeometry x="-1320.66" y="-385.6800000000003" width="83.02" height="27.34" as="geometry" />
        </mxCell>
        <mxCell id="65Ek00tLqhpVI4wB596t-53" value="&lt;font style=&quot;font-size: 18px&quot;&gt;PC&lt;/font&gt;" style="rounded=1;whiteSpace=wrap;html=1;rotation=90;" parent="1" vertex="1">
          <mxGeometry x="-1580.0100000000002" y="-648.6800000000003" width="101.4" height="26.81" as="geometry" />
        </mxCell>
        <mxCell id="65Ek00tLqhpVI4wB596t-55" value="" style="rounded=1;whiteSpace=wrap;html=1;" parent="1" vertex="1">
          <mxGeometry x="-1447.1" y="-784.1599999999999" width="120" height="52.69" as="geometry" />
        </mxCell>
        <mxCell id="65Ek00tLqhpVI4wB596t-54" value="&lt;font style=&quot;font-size: 18px&quot;&gt;&lt;b&gt;MAQUINA&lt;/b&gt;&lt;/font&gt;" style="text;html=1;align=center;verticalAlign=middle;resizable=0;points=[];autosize=1;strokeColor=none;" parent="1" vertex="1">
          <mxGeometry x="-1431.7600000000002" y="-767.1099999999997" width="100" height="20" as="geometry" />
        </mxCell>
        <mxCell id="d5ky2tss_7Emb2lWA8z1-3" value="Description Control  V" style="swimlane;childLayout=stackLayout;horizontal=1;startSize=30;horizontalStack=0;rounded=1;fontSize=14;fontStyle=0;strokeWidth=2;resizeParent=0;resizeLast=1;shadow=0;dashed=0;align=center;" parent="1" vertex="1">
          <mxGeometry x="-1100.8199999999997" y="5332.63" width="260" height="91" as="geometry" />
        </mxCell>
        <mxCell id="d5ky2tss_7Emb2lWA8z1-4" value="+Attribute1&#xa;+Attribute2&#xa;+Attribute3" style="align=left;strokeColor=none;fillColor=none;spacingLeft=4;fontSize=12;verticalAlign=top;resizable=0;rotatable=0;part=1;" parent="d5ky2tss_7Emb2lWA8z1-3" vertex="1">
          <mxGeometry y="30" width="260" height="61" as="geometry" />
        </mxCell>
        <mxCell id="d5ky2tss_7Emb2lWA8z1-5" value="Description Control  V" style="swimlane;childLayout=stackLayout;horizontal=1;startSize=30;horizontalStack=0;rounded=1;fontSize=14;fontStyle=0;strokeWidth=2;resizeParent=0;resizeLast=1;shadow=0;dashed=0;align=center;" parent="1" vertex="1">
          <mxGeometry x="-1100.8199999999997" y="5332.63" width="260" height="91" as="geometry" />
        </mxCell>
        <mxCell id="d5ky2tss_7Emb2lWA8z1-6" value="+Attribute1&#xa;+Attribute2&#xa;+Attribute3" style="align=left;strokeColor=none;fillColor=none;spacingLeft=4;fontSize=12;verticalAlign=top;resizable=0;rotatable=0;part=1;" parent="d5ky2tss_7Emb2lWA8z1-5" vertex="1">
          <mxGeometry y="30" width="260" height="61" as="geometry" />
        </mxCell>
        <mxCell id="d5ky2tss_7Emb2lWA8z1-7" value="Description Control V" style="swimlane;childLayout=stackLayout;horizontal=1;startSize=30;horizontalStack=0;rounded=1;fontSize=14;fontStyle=0;strokeWidth=2;resizeParent=0;resizeLast=1;shadow=0;dashed=0;align=center;" parent="1" vertex="1">
          <mxGeometry x="-1090.21" y="5335.24" width="260" height="91" as="geometry" />
        </mxCell>
        <mxCell id="d5ky2tss_7Emb2lWA8z1-8" value="+Attribute1&#xa;+Attribute2&#xa;+Attribute3" style="align=left;strokeColor=none;fillColor=none;spacingLeft=4;fontSize=12;verticalAlign=top;resizable=0;rotatable=0;part=1;" parent="d5ky2tss_7Emb2lWA8z1-7" vertex="1">
          <mxGeometry y="30" width="260" height="61" as="geometry" />
        </mxCell>
        <mxCell id="d5ky2tss_7Emb2lWA8z1-9" value="" style="rounded=1;whiteSpace=wrap;html=1;rotation=90;" parent="1" vertex="1">
          <mxGeometry x="-1178.5099999999998" y="5471.88" width="544.89" height="756.37" as="geometry" />
        </mxCell>
        <mxCell id="d5ky2tss_7Emb2lWA8z1-10" value="Description Control  V" style="swimlane;childLayout=stackLayout;horizontal=1;startSize=30;horizontalStack=0;rounded=1;fontSize=14;fontStyle=0;strokeWidth=2;resizeParent=0;resizeLast=1;shadow=0;dashed=0;align=center;" parent="1" vertex="1">
          <mxGeometry x="-1957.1399999999999" y="5338.59" width="260" height="91" as="geometry" />
        </mxCell>
        <mxCell id="d5ky2tss_7Emb2lWA8z1-11" value="+Attribute1&#xa;+Attribute2&#xa;+Attribute3" style="align=left;strokeColor=none;fillColor=none;spacingLeft=4;fontSize=12;verticalAlign=top;resizable=0;rotatable=0;part=1;" parent="d5ky2tss_7Emb2lWA8z1-10" vertex="1">
          <mxGeometry y="30" width="260" height="61" as="geometry" />
        </mxCell>
        <mxCell id="d5ky2tss_7Emb2lWA8z1-12" value="Description Control  V" style="swimlane;childLayout=stackLayout;horizontal=1;startSize=30;horizontalStack=0;rounded=1;fontSize=14;fontStyle=0;strokeWidth=2;resizeParent=0;resizeLast=1;shadow=0;dashed=0;align=center;" parent="1" vertex="1">
          <mxGeometry x="-1957.1399999999999" y="5338.59" width="260" height="91" as="geometry" />
        </mxCell>
        <mxCell id="d5ky2tss_7Emb2lWA8z1-13" value="+Attribute1&#xa;+Attribute2&#xa;+Attribute3" style="align=left;strokeColor=none;fillColor=none;spacingLeft=4;fontSize=12;verticalAlign=top;resizable=0;rotatable=0;part=1;" parent="d5ky2tss_7Emb2lWA8z1-12" vertex="1">
          <mxGeometry y="30" width="260" height="61" as="geometry" />
        </mxCell>
        <mxCell id="d5ky2tss_7Emb2lWA8z1-14" value="Description Handset V" style="swimlane;childLayout=stackLayout;horizontal=1;startSize=30;horizontalStack=0;rounded=1;fontSize=14;fontStyle=0;strokeWidth=2;resizeParent=0;resizeLast=1;shadow=0;dashed=0;align=center;" parent="1" vertex="1">
          <mxGeometry x="-1130.2" y="5944" width="260" height="91" as="geometry" />
        </mxCell>
        <mxCell id="d5ky2tss_7Emb2lWA8z1-15" value="+Attribute1&#xa;+Attribute2&#xa;+Attribute3" style="align=left;strokeColor=none;fillColor=none;spacingLeft=4;fontSize=12;verticalAlign=top;resizable=0;rotatable=0;part=1;" parent="d5ky2tss_7Emb2lWA8z1-14" vertex="1">
          <mxGeometry y="30" width="260" height="61" as="geometry" />
        </mxCell>
        <mxCell id="d5ky2tss_7Emb2lWA8z1-16" value="" style="rounded=1;whiteSpace=wrap;html=1;rotation=90;" parent="1" vertex="1">
          <mxGeometry x="-1923.96" y="4939.6" width="415.86" height="793.87" as="geometry" />
        </mxCell>
        <mxCell id="d5ky2tss_7Emb2lWA8z1-17" value="" style="rounded=1;whiteSpace=wrap;html=1;fillColor=#FFFFFF;" parent="1" vertex="1">
          <mxGeometry x="-2090.2799999999997" y="5179.17" width="75.43" height="31.49" as="geometry" />
        </mxCell>
        <mxCell id="d5ky2tss_7Emb2lWA8z1-18" value="" style="endArrow=none;html=1;" parent="1" edge="1">
          <mxGeometry width="50" height="50" relative="1" as="geometry">
            <mxPoint x="-1985.85" y="5456.660000000001" as="sourcePoint" />
            <mxPoint x="-1985.3699999999994" y="5179.95" as="targetPoint" />
          </mxGeometry>
        </mxCell>
        <mxCell id="d5ky2tss_7Emb2lWA8z1-19" value="Images V" style="rounded=1;whiteSpace=wrap;html=1;fillColor=#FFFFFF;" parent="1" vertex="1">
          <mxGeometry x="-2092.41" y="5389.57" width="75.56" height="30.25" as="geometry" />
        </mxCell>
        <mxCell id="d5ky2tss_7Emb2lWA8z1-20" value="Users V" style="rounded=1;whiteSpace=wrap;html=1;fillColor=#FFFFFF;" parent="1" vertex="1">
          <mxGeometry x="-2092.41" y="5468.66" width="75.56" height="30.25" as="geometry" />
        </mxCell>
        <mxCell id="d5ky2tss_7Emb2lWA8z1-21" value="Socio Bitel V" style="rounded=1;whiteSpace=wrap;html=1;fillColor=#FFFFFF;" parent="1" vertex="1">
          <mxGeometry x="-2090.9700000000003" y="5223.68" width="81.12" height="27.77" as="geometry" />
        </mxCell>
        <mxCell id="d5ky2tss_7Emb2lWA8z1-22" value="&lt;div&gt;Planes&amp;nbsp; V&lt;br&gt;&lt;/div&gt;" style="rounded=1;whiteSpace=wrap;html=1;fillColor=#FFFFFF;" parent="1" vertex="1">
          <mxGeometry x="-2089.2799999999997" y="5270.7" width="73.43" height="28.89" as="geometry" />
        </mxCell>
        <mxCell id="d5ky2tss_7Emb2lWA8z1-23" value="Carrusel Plans &amp;gt;&lt;div&gt;&lt;br&gt;&lt;/div&gt;&lt;div&gt;&lt;br&gt;&lt;/div&gt;" style="rounded=1;whiteSpace=wrap;html=1;fillColor=#FFE599;" parent="1" vertex="1">
          <mxGeometry x="-2092.41" y="5309.23" width="75.56" height="65.81" as="geometry" />
        </mxCell>
        <mxCell id="d5ky2tss_7Emb2lWA8z1-24" value="" style="endArrow=none;dashed=1;html=1;dashPattern=1 3;strokeWidth=2;" parent="1" edge="1">
          <mxGeometry width="50" height="50" relative="1" as="geometry">
            <mxPoint x="-1549.9777049180339" y="5247.81" as="sourcePoint" />
            <mxPoint x="-1554.3199999999993" y="5250.010000000001" as="targetPoint" />
          </mxGeometry>
        </mxCell>
        <mxCell id="d5ky2tss_7Emb2lWA8z1-25" value="Orders&amp;nbsp; V" style="text;html=1;align=center;verticalAlign=middle;resizable=0;points=[];autosize=1;" parent="1" vertex="1">
          <mxGeometry x="-2087.5699999999997" y="5185.01" width="70" height="20" as="geometry" />
        </mxCell>
        <mxCell id="d5ky2tss_7Emb2lWA8z1-26" value="" style="endArrow=none;dashed=1;html=1;dashPattern=1 3;strokeWidth=2;" parent="1" edge="1">
          <mxGeometry width="50" height="50" relative="1" as="geometry">
            <mxPoint x="-1554.3199999999993" y="5230.010000000001" as="sourcePoint" />
            <mxPoint x="-1555.2400000000002" y="5229.711993355483" as="targetPoint" />
          </mxGeometry>
        </mxCell>
        <mxCell id="d5ky2tss_7Emb2lWA8z1-27" value="" style="rounded=1;whiteSpace=wrap;html=1;rotation=90;" parent="1" vertex="1">
          <mxGeometry x="-1952.86" y="5442.19" width="444.86" height="780.92" as="geometry" />
        </mxCell>
        <mxCell id="d5ky2tss_7Emb2lWA8z1-28" value="" style="rounded=1;whiteSpace=wrap;html=1;fillColor=#FFFFFF;" parent="1" vertex="1">
          <mxGeometry x="-2098.2000000000003" y="5660.79" width="75.43" height="31.49" as="geometry" />
        </mxCell>
        <mxCell id="d5ky2tss_7Emb2lWA8z1-29" value="" style="endArrow=none;html=1;exitX=0.998;exitY=0.836;exitDx=0;exitDy=0;exitPerimeter=0;entryX=0.003;entryY=0.833;entryDx=0;entryDy=0;entryPerimeter=0;" parent="1" source="d5ky2tss_7Emb2lWA8z1-27" target="d5ky2tss_7Emb2lWA8z1-27" edge="1">
          <mxGeometry width="50" height="50" relative="1" as="geometry">
            <mxPoint x="-1993.7699999999998" y="5946.28" as="sourcePoint" />
            <mxPoint x="-1993.2899999999995" y="5669.570000000001" as="targetPoint" />
          </mxGeometry>
        </mxCell>
        <mxCell id="d5ky2tss_7Emb2lWA8z1-30" value="Images V" style="rounded=1;whiteSpace=wrap;html=1;fillColor=#FFFFFF;" parent="1" vertex="1">
          <mxGeometry x="-2100.33" y="5872.19" width="75.56" height="30.25" as="geometry" />
        </mxCell>
        <mxCell id="d5ky2tss_7Emb2lWA8z1-31" value="Users V" style="rounded=1;whiteSpace=wrap;html=1;fillColor=#FFFFFF;" parent="1" vertex="1">
          <mxGeometry x="-2098.4900000000002" y="5968" width="75.56" height="30.25" as="geometry" />
        </mxCell>
        <mxCell id="d5ky2tss_7Emb2lWA8z1-32" value="Socio Bitel V" style="rounded=1;whiteSpace=wrap;html=1;fillColor=#FFFFFF;" parent="1" vertex="1">
          <mxGeometry x="-2098.89" y="5705.3" width="81.12" height="27.77" as="geometry" />
        </mxCell>
        <mxCell id="d5ky2tss_7Emb2lWA8z1-33" value="&lt;div&gt;Planes&lt;br&gt;&lt;/div&gt;&lt;div&gt;&lt;br&gt;&lt;/div&gt;&lt;div&gt;Equipos &amp;gt;&lt;br&gt;&lt;/div&gt;" style="rounded=1;whiteSpace=wrap;html=1;fillColor=#FFF2CC;" parent="1" vertex="1">
          <mxGeometry x="-2098.2000000000003" y="5747.7699999999995" width="73.43" height="54.51" as="geometry" />
        </mxCell>
        <mxCell id="d5ky2tss_7Emb2lWA8z1-34" value="Products V" style="rounded=1;whiteSpace=wrap;html=1;fillColor=#FFFFFF;" parent="1" vertex="1">
          <mxGeometry x="-2100.33" y="5823.849999999999" width="75.56" height="30.25" as="geometry" />
        </mxCell>
        <mxCell id="d5ky2tss_7Emb2lWA8z1-35" value="" style="endArrow=none;dashed=1;html=1;dashPattern=1 3;strokeWidth=2;" parent="1" edge="1">
          <mxGeometry width="50" height="50" relative="1" as="geometry">
            <mxPoint x="-1557.8977049180335" y="5729.430000000001" as="sourcePoint" />
            <mxPoint x="-1562.2400000000002" y="5731.63" as="targetPoint" />
          </mxGeometry>
        </mxCell>
        <mxCell id="d5ky2tss_7Emb2lWA8z1-36" value="Orders&amp;nbsp; &amp;gt;" style="text;html=1;align=center;verticalAlign=middle;resizable=0;points=[];autosize=1;" parent="1" vertex="1">
          <mxGeometry x="-2095.4900000000002" y="5666.63" width="70" height="20" as="geometry" />
        </mxCell>
        <mxCell id="d5ky2tss_7Emb2lWA8z1-37" value="" style="endArrow=none;dashed=1;html=1;dashPattern=1 3;strokeWidth=2;" parent="1" edge="1">
          <mxGeometry width="50" height="50" relative="1" as="geometry">
            <mxPoint x="-1562.2400000000002" y="5711.63" as="sourcePoint" />
            <mxPoint x="-1563.1599999999994" y="5711.331993355482" as="targetPoint" />
          </mxGeometry>
        </mxCell>
        <mxCell id="d5ky2tss_7Emb2lWA8z1-38" value="" style="endArrow=none;dashed=1;html=1;exitX=0;exitY=0.5;exitDx=0;exitDy=0;entryX=1;entryY=0.5;entryDx=0;entryDy=0;" parent="1" source="d5ky2tss_7Emb2lWA8z1-33" target="d5ky2tss_7Emb2lWA8z1-33" edge="1">
          <mxGeometry width="50" height="50" relative="1" as="geometry">
            <mxPoint x="-1692.7699999999998" y="5762.28" as="sourcePoint" />
            <mxPoint x="-1642.7699999999998" y="5712.28" as="targetPoint" />
          </mxGeometry>
        </mxCell>
        <mxCell id="d5ky2tss_7Emb2lWA8z1-39" value="Payments V" style="rounded=1;whiteSpace=wrap;html=1;fillColor=#FFFFFF;" parent="1" vertex="1">
          <mxGeometry x="-2101.05" y="5919.28" width="75.56" height="30.25" as="geometry" />
        </mxCell>
        <mxCell id="d5ky2tss_7Emb2lWA8z1-40" value="" style="rounded=0;whiteSpace=wrap;html=1;fillColor=#FFFFFF;" parent="1" vertex="1">
          <mxGeometry x="-1961.6999999999998" y="5658.94" width="565.52" height="32.65" as="geometry" />
        </mxCell>
        <mxCell id="d5ky2tss_7Emb2lWA8z1-41" value="Model" style="text;html=1;align=center;verticalAlign=middle;resizable=0;points=[];autosize=1;" parent="1" vertex="1">
          <mxGeometry x="-1812.4899999999998" y="5665.26" width="50" height="20" as="geometry" />
        </mxCell>
        <mxCell id="d5ky2tss_7Emb2lWA8z1-42" value="&lt;div&gt;&lt;font style=&quot;font-size: 12px&quot;&gt;Priority&lt;/font&gt;&lt;br&gt;&lt;/div&gt;" style="text;html=1;align=center;verticalAlign=middle;resizable=0;points=[];autosize=1;" parent="1" vertex="1">
          <mxGeometry x="-1743.22" y="5664.269999999999" width="50" height="20" as="geometry" />
        </mxCell>
        <mxCell id="d5ky2tss_7Emb2lWA8z1-43" value="Publish" style="text;html=1;align=center;verticalAlign=middle;resizable=0;points=[];autosize=1;" parent="1" vertex="1">
          <mxGeometry x="-1545.18" y="5663" width="60" height="20" as="geometry" />
        </mxCell>
        <mxCell id="d5ky2tss_7Emb2lWA8z1-44" value="Brand" style="text;html=1;align=center;verticalAlign=middle;resizable=0;points=[];autosize=1;" parent="1" vertex="1">
          <mxGeometry x="-1882.12" y="5664.45" width="50" height="20" as="geometry" />
        </mxCell>
        <mxCell id="d5ky2tss_7Emb2lWA8z1-45" value="&lt;div&gt;Date&lt;/div&gt;&lt;div&gt;Update&lt;br&gt;&lt;/div&gt;" style="text;html=1;align=center;verticalAlign=middle;resizable=0;points=[];autosize=1;" parent="1" vertex="1">
          <mxGeometry x="-1607.1799999999998" y="5658.94" width="50" height="30" as="geometry" />
        </mxCell>
        <mxCell id="d5ky2tss_7Emb2lWA8z1-46" value="Id Brand" style="text;html=1;align=center;verticalAlign=middle;resizable=0;points=[];autosize=1;" parent="1" vertex="1">
          <mxGeometry x="-1959.4899999999996" y="5664.46" width="60" height="20" as="geometry" />
        </mxCell>
        <mxCell id="d5ky2tss_7Emb2lWA8z1-47" value="Cost" style="text;html=1;align=center;verticalAlign=middle;resizable=0;points=[];autosize=1;" parent="1" vertex="1">
          <mxGeometry x="-1665.43" y="5666.46" width="40" height="20" as="geometry" />
        </mxCell>
        <mxCell id="d5ky2tss_7Emb2lWA8z1-48" value="" style="endArrow=none;dashed=1;html=1;dashPattern=1 3;strokeWidth=2;" parent="1" edge="1">
          <mxGeometry width="50" height="50" relative="1" as="geometry">
            <mxPoint x="-1683.2900000000004" y="5667.349999999999" as="sourcePoint" />
            <mxPoint x="-1683.2900000000004" y="5687.349999999999" as="targetPoint" />
          </mxGeometry>
        </mxCell>
        <mxCell id="d5ky2tss_7Emb2lWA8z1-49" value="" style="endArrow=none;dashed=1;html=1;dashPattern=1 3;strokeWidth=2;" parent="1" edge="1">
          <mxGeometry width="50" height="50" relative="1" as="geometry">
            <mxPoint x="-1743.2900000000004" y="5667.349999999999" as="sourcePoint" />
            <mxPoint x="-1743.2900000000004" y="5687.349999999999" as="targetPoint" />
          </mxGeometry>
        </mxCell>
        <mxCell id="d5ky2tss_7Emb2lWA8z1-50" value="" style="endArrow=none;dashed=1;html=1;dashPattern=1 3;strokeWidth=2;" parent="1" edge="1">
          <mxGeometry width="50" height="50" relative="1" as="geometry">
            <mxPoint x="-1901.2900000000004" y="5667.349999999999" as="sourcePoint" />
            <mxPoint x="-1901.2900000000004" y="5687.349999999999" as="targetPoint" />
          </mxGeometry>
        </mxCell>
        <mxCell id="d5ky2tss_7Emb2lWA8z1-51" value="" style="endArrow=none;dashed=1;html=1;dashPattern=1 3;strokeWidth=2;" parent="1" edge="1">
          <mxGeometry width="50" height="50" relative="1" as="geometry">
            <mxPoint x="-1613.2900000000004" y="5667.349999999999" as="sourcePoint" />
            <mxPoint x="-1613.2900000000004" y="5687.349999999999" as="targetPoint" />
          </mxGeometry>
        </mxCell>
        <mxCell id="d5ky2tss_7Emb2lWA8z1-52" value="" style="endArrow=none;dashed=1;html=1;dashPattern=1 3;strokeWidth=2;" parent="1" edge="1">
          <mxGeometry width="50" height="50" relative="1" as="geometry">
            <mxPoint x="-1816.2900000000004" y="5667.349999999999" as="sourcePoint" />
            <mxPoint x="-1816.2900000000004" y="5687.349999999999" as="targetPoint" />
          </mxGeometry>
        </mxCell>
        <mxCell id="d5ky2tss_7Emb2lWA8z1-53" value="" style="endArrow=none;dashed=1;html=1;dashPattern=1 3;strokeWidth=2;" parent="1" edge="1">
          <mxGeometry width="50" height="50" relative="1" as="geometry">
            <mxPoint x="-1544.2900000000004" y="5667.349999999999" as="sourcePoint" />
            <mxPoint x="-1544.2900000000004" y="5687.349999999999" as="targetPoint" />
          </mxGeometry>
        </mxCell>
        <mxCell id="d5ky2tss_7Emb2lWA8z1-54" value="" style="endArrow=none;dashed=1;html=1;dashPattern=1 3;strokeWidth=2;" parent="1" edge="1">
          <mxGeometry width="50" height="50" relative="1" as="geometry">
            <mxPoint x="-1483.2900000000004" y="5667.349999999999" as="sourcePoint" />
            <mxPoint x="-1483.2900000000004" y="5687.349999999999" as="targetPoint" />
          </mxGeometry>
        </mxCell>
        <mxCell id="d5ky2tss_7Emb2lWA8z1-55" value="&lt;div&gt;Status &lt;br&gt;&lt;/div&gt;&lt;div&gt;(Active/Paused)&lt;/div&gt;" style="text;html=1;align=center;verticalAlign=middle;resizable=0;points=[];autosize=1;" parent="1" vertex="1">
          <mxGeometry x="-1485.86" y="5661.259999999999" width="100" height="30" as="geometry" />
        </mxCell>
        <mxCell id="d5ky2tss_7Emb2lWA8z1-56" value="P40" style="text;html=1;align=center;verticalAlign=middle;resizable=0;points=[];autosize=1;" parent="1" vertex="1">
          <mxGeometry x="-1799.9099999999999" y="5707.2699999999995" width="40" height="20" as="geometry" />
        </mxCell>
        <mxCell id="d5ky2tss_7Emb2lWA8z1-57" value="10" style="text;html=1;align=center;verticalAlign=middle;resizable=0;points=[];autosize=1;" parent="1" vertex="1">
          <mxGeometry x="-1726.82" y="5707.509999999999" width="30" height="20" as="geometry" />
        </mxCell>
        <mxCell id="d5ky2tss_7Emb2lWA8z1-58" value="S/ 1000.00" style="text;html=1;align=center;verticalAlign=middle;resizable=0;points=[];autosize=1;" parent="1" vertex="1">
          <mxGeometry x="-1678.4099999999999" y="5705.69" width="70" height="20" as="geometry" />
        </mxCell>
        <mxCell id="d5ky2tss_7Emb2lWA8z1-59" value="10/08/20" style="text;html=1;align=center;verticalAlign=middle;resizable=0;points=[];autosize=1;" parent="1" vertex="1">
          <mxGeometry x="-1546.79" y="5709.389999999999" width="60" height="20" as="geometry" />
        </mxCell>
        <mxCell id="d5ky2tss_7Emb2lWA8z1-60" value="45" style="text;html=1;align=center;verticalAlign=middle;resizable=0;points=[];autosize=1;" parent="1" vertex="1">
          <mxGeometry x="-1943.1799999999998" y="5706.509999999999" width="30" height="20" as="geometry" />
        </mxCell>
        <mxCell id="d5ky2tss_7Emb2lWA8z1-61" value="Huawei" style="text;html=1;align=center;verticalAlign=middle;resizable=0;points=[];autosize=1;" parent="1" vertex="1">
          <mxGeometry x="-1884.1799999999998" y="5707.2699999999995" width="60" height="20" as="geometry" />
        </mxCell>
        <mxCell id="d5ky2tss_7Emb2lWA8z1-62" value="Activated" style="text;html=1;align=center;verticalAlign=middle;resizable=0;points=[];autosize=1;" parent="1" vertex="1">
          <mxGeometry x="-1463.8799999999999" y="5707.2699999999995" width="60" height="20" as="geometry" />
        </mxCell>
        <mxCell id="d5ky2tss_7Emb2lWA8z1-63" value="08/08/20" style="text;html=1;align=center;verticalAlign=middle;resizable=0;points=[];autosize=1;" parent="1" vertex="1">
          <mxGeometry x="-1611.1799999999998" y="5705.69" width="60" height="20" as="geometry" />
        </mxCell>
        <mxCell id="d5ky2tss_7Emb2lWA8z1-64" value="A30" style="text;html=1;align=center;verticalAlign=middle;resizable=0;points=[];autosize=1;" parent="1" vertex="1">
          <mxGeometry x="-1799.9099999999999" y="5734.2699999999995" width="40" height="20" as="geometry" />
        </mxCell>
        <mxCell id="d5ky2tss_7Emb2lWA8z1-65" value="8" style="text;html=1;align=center;verticalAlign=middle;resizable=0;points=[];autosize=1;" parent="1" vertex="1">
          <mxGeometry x="-1721.82" y="5734.509999999999" width="20" height="20" as="geometry" />
        </mxCell>
        <mxCell id="d5ky2tss_7Emb2lWA8z1-66" value="S/ 800.00" style="text;html=1;align=center;verticalAlign=middle;resizable=0;points=[];autosize=1;" parent="1" vertex="1">
          <mxGeometry x="-1678.4099999999999" y="5732.69" width="70" height="20" as="geometry" />
        </mxCell>
        <mxCell id="d5ky2tss_7Emb2lWA8z1-67" value="10/08/20" style="text;html=1;align=center;verticalAlign=middle;resizable=0;points=[];autosize=1;" parent="1" vertex="1">
          <mxGeometry x="-1546.79" y="5736.389999999999" width="60" height="20" as="geometry" />
        </mxCell>
        <mxCell id="d5ky2tss_7Emb2lWA8z1-68" value="30" style="text;html=1;align=center;verticalAlign=middle;resizable=0;points=[];autosize=1;" parent="1" vertex="1">
          <mxGeometry x="-1943.1799999999998" y="5733.509999999999" width="30" height="20" as="geometry" />
        </mxCell>
        <mxCell id="d5ky2tss_7Emb2lWA8z1-69" value="Samsung" style="text;html=1;align=center;verticalAlign=middle;resizable=0;points=[];autosize=1;" parent="1" vertex="1">
          <mxGeometry x="-1889.1799999999998" y="5734.2699999999995" width="70" height="20" as="geometry" />
        </mxCell>
        <mxCell id="d5ky2tss_7Emb2lWA8z1-70" value="Activated" style="text;html=1;align=center;verticalAlign=middle;resizable=0;points=[];autosize=1;" parent="1" vertex="1">
          <mxGeometry x="-1463.8799999999999" y="5734.2699999999995" width="60" height="20" as="geometry" />
        </mxCell>
        <mxCell id="d5ky2tss_7Emb2lWA8z1-71" value="08/08/20" style="text;html=1;align=center;verticalAlign=middle;resizable=0;points=[];autosize=1;" parent="1" vertex="1">
          <mxGeometry x="-1611.1799999999998" y="5732.69" width="60" height="20" as="geometry" />
        </mxCell>
        <mxCell id="d5ky2tss_7Emb2lWA8z1-72" value="BPro" style="text;html=1;align=center;verticalAlign=middle;resizable=0;points=[];autosize=1;" parent="1" vertex="1">
          <mxGeometry x="-1799.9099999999999" y="5761.2699999999995" width="40" height="20" as="geometry" />
        </mxCell>
        <mxCell id="d5ky2tss_7Emb2lWA8z1-73" value="1" style="text;html=1;align=center;verticalAlign=middle;resizable=0;points=[];autosize=1;" parent="1" vertex="1">
          <mxGeometry x="-1721.82" y="5761.509999999999" width="20" height="20" as="geometry" />
        </mxCell>
        <mxCell id="d5ky2tss_7Emb2lWA8z1-74" value="S/ 200.00" style="text;html=1;align=center;verticalAlign=middle;resizable=0;points=[];autosize=1;" parent="1" vertex="1">
          <mxGeometry x="-1678.4099999999999" y="5759.69" width="70" height="20" as="geometry" />
        </mxCell>
        <mxCell id="d5ky2tss_7Emb2lWA8z1-75" value="10/08/20" style="text;html=1;align=center;verticalAlign=middle;resizable=0;points=[];autosize=1;" parent="1" vertex="1">
          <mxGeometry x="-1546.79" y="5763.389999999999" width="60" height="20" as="geometry" />
        </mxCell>
        <mxCell id="d5ky2tss_7Emb2lWA8z1-76" value="15" style="text;html=1;align=center;verticalAlign=middle;resizable=0;points=[];autosize=1;" parent="1" vertex="1">
          <mxGeometry x="-1943.1799999999998" y="5760.509999999999" width="30" height="20" as="geometry" />
        </mxCell>
        <mxCell id="d5ky2tss_7Emb2lWA8z1-77" value="Bitel" style="text;html=1;align=center;verticalAlign=middle;resizable=0;points=[];autosize=1;" parent="1" vertex="1">
          <mxGeometry x="-1874.1799999999998" y="5761.2699999999995" width="40" height="20" as="geometry" />
        </mxCell>
        <mxCell id="d5ky2tss_7Emb2lWA8z1-78" value="Activated" style="text;html=1;align=center;verticalAlign=middle;resizable=0;points=[];autosize=1;" parent="1" vertex="1">
          <mxGeometry x="-1463.8799999999999" y="5761.2699999999995" width="60" height="20" as="geometry" />
        </mxCell>
        <mxCell id="d5ky2tss_7Emb2lWA8z1-79" value="08/08/20" style="text;html=1;align=center;verticalAlign=middle;resizable=0;points=[];autosize=1;" parent="1" vertex="1">
          <mxGeometry x="-1611.1799999999998" y="5759.69" width="60" height="20" as="geometry" />
        </mxCell>
        <mxCell id="d5ky2tss_7Emb2lWA8z1-80" value="Edit" style="rounded=1;whiteSpace=wrap;html=1;fillColor=#CCFFE6;" parent="1" vertex="1">
          <mxGeometry x="-1392.77" y="5706.499999999999" width="38.36" height="16.77" as="geometry" />
        </mxCell>
        <mxCell id="d5ky2tss_7Emb2lWA8z1-81" value="Edit" style="rounded=1;whiteSpace=wrap;html=1;fillColor=#CCFFE6;" parent="1" vertex="1">
          <mxGeometry x="-1392.77" y="5736.19" width="38.36" height="15.08" as="geometry" />
        </mxCell>
        <mxCell id="d5ky2tss_7Emb2lWA8z1-82" value="Edit" style="rounded=1;whiteSpace=wrap;html=1;fillColor=#CCFFE6;" parent="1" vertex="1">
          <mxGeometry x="-1393.3399999999997" y="5765.509999999999" width="38.36" height="14.76" as="geometry" />
        </mxCell>
        <mxCell id="d5ky2tss_7Emb2lWA8z1-83" value="" style="endArrow=none;dashed=1;html=1;dashPattern=1 3;strokeWidth=2;exitX=0;exitY=0.5;exitDx=0;exitDy=0;entryX=1;entryY=0.5;entryDx=0;entryDy=0;" parent="1" source="d5ky2tss_7Emb2lWA8z1-23" target="d5ky2tss_7Emb2lWA8z1-23" edge="1">
          <mxGeometry width="50" height="50" relative="1" as="geometry">
            <mxPoint x="-1503.54" y="5175.04" as="sourcePoint" />
            <mxPoint x="-1453.54" y="5125.04" as="targetPoint" />
          </mxGeometry>
        </mxCell>
        <mxCell id="d5ky2tss_7Emb2lWA8z1-84" value="Catalogo" style="text;html=1;align=center;verticalAlign=middle;resizable=0;points=[];autosize=1;" parent="1" vertex="1">
          <mxGeometry x="-2092.5699999999997" y="5345.04" width="70" height="20" as="geometry" />
        </mxCell>
        <mxCell id="d5ky2tss_7Emb2lWA8z1-85" value="Payments V" style="rounded=1;whiteSpace=wrap;html=1;fillColor=#FFFFFF;" parent="1" vertex="1">
          <mxGeometry x="-2092.41" y="5429.05" width="75.56" height="30.25" as="geometry" />
        </mxCell>
        <mxCell id="d5ky2tss_7Emb2lWA8z1-86" value="&lt;font style=&quot;font-size: 14px&quot;&gt;&lt;b&gt;Equipos&lt;/b&gt;&lt;/font&gt;" style="text;html=1;align=center;verticalAlign=middle;resizable=0;points=[];autosize=1;" parent="1" vertex="1">
          <mxGeometry x="-1953.1799999999998" y="5621.28" width="70" height="20" as="geometry" />
        </mxCell>
        <mxCell id="d5ky2tss_7Emb2lWA8z1-87" style="edgeStyle=orthogonalEdgeStyle;rounded=0;orthogonalLoop=1;jettySize=auto;html=1;exitX=1;exitY=0.5;exitDx=0;exitDy=0;" parent="1" source="d5ky2tss_7Emb2lWA8z1-88" target="d5ky2tss_7Emb2lWA8z1-9" edge="1">
          <mxGeometry relative="1" as="geometry">
            <Array as="points">
              <mxPoint x="-1315.35" y="5637.54" />
              <mxPoint x="-1315.35" y="5832.54" />
            </Array>
          </mxGeometry>
        </mxCell>
        <mxCell id="d5ky2tss_7Emb2lWA8z1-88" value="" style="rounded=1;whiteSpace=wrap;html=1;fillColor=#FFFFFF;" parent="1" vertex="1">
          <mxGeometry x="-1472.3999999999999" y="5621.28" width="87.05" height="31.49" as="geometry" />
        </mxCell>
        <mxCell id="d5ky2tss_7Emb2lWA8z1-89" value="&lt;div&gt;&lt;b&gt;+ New Brand/&lt;/b&gt;&lt;/div&gt;&lt;div&gt;&lt;b&gt;Product&lt;/b&gt;&lt;/div&gt;" style="text;html=1;align=center;verticalAlign=middle;resizable=0;points=[];autosize=1;" parent="1" vertex="1">
          <mxGeometry x="-1479.6899999999996" y="5622.02" width="90" height="30" as="geometry" />
        </mxCell>
        <mxCell id="d5ky2tss_7Emb2lWA8z1-90" value="Variation Control" style="rounded=1;whiteSpace=wrap;html=1;fillColor=#66B2FF;" parent="1" vertex="1">
          <mxGeometry x="-1896.25" y="5149.45" width="94.56" height="31.43" as="geometry" />
        </mxCell>
        <mxCell id="d5ky2tss_7Emb2lWA8z1-91" value="Variation Prepago" style="rounded=1;whiteSpace=wrap;html=1;fillColor=#FFFFFF;" parent="1" vertex="1">
          <mxGeometry x="-1801.69" y="5149.45" width="94.56" height="31.43" as="geometry" />
        </mxCell>
        <mxCell id="d5ky2tss_7Emb2lWA8z1-92" value="" style="rounded=0;whiteSpace=wrap;html=1;fillColor=#FFFFFF;rotation=90;" parent="1" vertex="1">
          <mxGeometry x="-1972.2199999999998" y="5191.5199999999995" width="338.95" height="329.32" as="geometry" />
        </mxCell>
        <mxCell id="d5ky2tss_7Emb2lWA8z1-93" value="&lt;u&gt;&lt;b&gt;Basic Information&lt;/b&gt;&lt;/u&gt;" style="text;html=1;align=center;verticalAlign=middle;resizable=0;points=[];autosize=1;" parent="1" vertex="1">
          <mxGeometry x="-1967.73" y="5192.339999999999" width="110" height="20" as="geometry" />
        </mxCell>
        <mxCell id="d5ky2tss_7Emb2lWA8z1-94" value="&lt;b&gt;Category&lt;/b&gt;" style="text;html=1;align=center;verticalAlign=middle;resizable=0;points=[];autosize=1;" parent="1" vertex="1">
          <mxGeometry x="-1961.6999999999998" y="5223.679999999999" width="70" height="20" as="geometry" />
        </mxCell>
        <mxCell id="d5ky2tss_7Emb2lWA8z1-95" value="Chips V" style="rounded=1;whiteSpace=wrap;html=1;fillColor=#FFFFFF;" parent="1" vertex="1">
          <mxGeometry x="-1891.0099999999998" y="5218.910000000001" width="81.12" height="27.77" as="geometry" />
        </mxCell>
        <mxCell id="d5ky2tss_7Emb2lWA8z1-96" value="&lt;b&gt;Type&lt;/b&gt;" style="text;html=1;align=center;verticalAlign=middle;resizable=0;points=[];autosize=1;" parent="1" vertex="1">
          <mxGeometry x="-1946.6999999999998" y="5265.04" width="40" height="20" as="geometry" />
        </mxCell>
        <mxCell id="d5ky2tss_7Emb2lWA8z1-97" value="Planes Control&amp;nbsp; V" style="rounded=1;whiteSpace=wrap;html=1;fillColor=#FFFFFF;" parent="1" vertex="1">
          <mxGeometry x="-1891.0099999999998" y="5260.2699999999995" width="106.29" height="27.77" as="geometry" />
        </mxCell>
        <mxCell id="d5ky2tss_7Emb2lWA8z1-98" value="Technical specifications" style="rounded=1;whiteSpace=wrap;html=1;fillColor=#FFFFFF;" parent="1" vertex="1">
          <mxGeometry x="-1947.6999999999998" y="5447.83" width="135.54" height="20.83" as="geometry" />
        </mxCell>
        <mxCell id="d5ky2tss_7Emb2lWA8z1-99" value="Load" style="rounded=1;whiteSpace=wrap;html=1;fillColor=#66B2FF;" parent="1" vertex="1">
          <mxGeometry x="-1817.6999999999998" y="5447.15" width="80" height="21.51" as="geometry" />
        </mxCell>
        <mxCell id="d5ky2tss_7Emb2lWA8z1-100" value="" style="rounded=1;whiteSpace=wrap;html=1;fillColor=#FFF2CC;" parent="1" vertex="1">
          <mxGeometry x="-1767.7999999999997" y="5193.7" width="120" height="113.88" as="geometry" />
        </mxCell>
        <mxCell id="d5ky2tss_7Emb2lWA8z1-101" value="" style="shape=collate;whiteSpace=wrap;html=1;fillColor=#FFF2CC;" parent="1" vertex="1">
          <mxGeometry x="-1763.06" y="5196.08" width="106.26" height="111.5" as="geometry" />
        </mxCell>
        <mxCell id="d5ky2tss_7Emb2lWA8z1-102" value="&lt;font style=&quot;font-size: 14px&quot;&gt;&lt;b&gt;Imagen&lt;/b&gt;&lt;/font&gt;" style="text;html=1;align=center;verticalAlign=middle;resizable=0;points=[];autosize=1;" parent="1" vertex="1">
          <mxGeometry x="-1737.6999999999998" y="5205.009999999999" width="60" height="20" as="geometry" />
        </mxCell>
        <mxCell id="d5ky2tss_7Emb2lWA8z1-103" value="" style="rounded=0;whiteSpace=wrap;html=1;fillColor=#FFFFFF;rotation=90;" parent="1" vertex="1">
          <mxGeometry x="-1661.2399999999998" y="5216.11" width="338.95" height="280.14" as="geometry" />
        </mxCell>
        <mxCell id="d5ky2tss_7Emb2lWA8z1-104" value="Plans carrusel" style="rounded=1;whiteSpace=wrap;html=1;" parent="1" vertex="1">
          <mxGeometry x="-1554.5499999999997" y="5149.009999999999" width="120" height="34.31" as="geometry" />
        </mxCell>
        <mxCell id="d5ky2tss_7Emb2lWA8z1-105" value="&lt;b&gt;Contract&lt;/b&gt;" style="text;html=1;align=center;verticalAlign=middle;resizable=0;points=[];autosize=1;" parent="1" vertex="1">
          <mxGeometry x="-1963.2199999999998" y="5301.36" width="60" height="20" as="geometry" />
        </mxCell>
        <mxCell id="d5ky2tss_7Emb2lWA8z1-106" value="Contrat 1 V" style="rounded=1;whiteSpace=wrap;html=1;fillColor=#FFFFFF;" parent="1" vertex="1">
          <mxGeometry x="-1894.5299999999997" y="5296.59" width="106.29" height="27.77" as="geometry" />
        </mxCell>
        <mxCell id="d5ky2tss_7Emb2lWA8z1-107" value="&lt;div&gt;&lt;b&gt;Variation Contract 1&lt;/b&gt;&lt;/div&gt;" style="rounded=1;whiteSpace=wrap;html=1;" parent="1" vertex="1">
          <mxGeometry x="-1617.17" y="5198.91" width="262.45" height="31.79" as="geometry" />
        </mxCell>
        <mxCell id="d5ky2tss_7Emb2lWA8z1-108" value="Portabilidad" style="rounded=1;whiteSpace=wrap;html=1;" parent="1" vertex="1">
          <mxGeometry x="-1617.8600000000001" y="5230.7300000000005" width="73.14" height="29.97" as="geometry" />
        </mxCell>
        <mxCell id="d5ky2tss_7Emb2lWA8z1-109" value="New Line" style="rounded=1;whiteSpace=wrap;html=1;" parent="1" vertex="1">
          <mxGeometry x="-1545.42" y="5230.7300000000005" width="70.7" height="29.97" as="geometry" />
        </mxCell>
        <mxCell id="d5ky2tss_7Emb2lWA8z1-110" value="Migration" style="rounded=1;whiteSpace=wrap;html=1;" parent="1" vertex="1">
          <mxGeometry x="-1476.15" y="5230.7300000000005" width="70.7" height="29.97" as="geometry" />
        </mxCell>
        <mxCell id="d5ky2tss_7Emb2lWA8z1-111" value="&lt;div&gt;&lt;br&gt;&lt;/div&gt;" style="rounded=1;whiteSpace=wrap;html=1;" parent="1" vertex="1">
          <mxGeometry x="-1626.3399999999997" y="5270.7" width="262.45" height="70" as="geometry" />
        </mxCell>
        <mxCell id="d5ky2tss_7Emb2lWA8z1-112" value="Ichip 29.90" style="text;html=1;align=center;verticalAlign=middle;resizable=0;points=[];autosize=1;" parent="1" vertex="1">
          <mxGeometry x="-1619.7799999999997" y="5279.589999999999" width="70" height="20" as="geometry" />
        </mxCell>
        <mxCell id="d5ky2tss_7Emb2lWA8z1-113" value="Reason Code" style="whiteSpace=wrap;html=1;" parent="1" vertex="1">
          <mxGeometry x="-1550.38" y="5278.58" width="90" height="30" as="geometry" />
        </mxCell>
        <mxCell id="d5ky2tss_7Emb2lWA8z1-114" value="&lt;div&gt;Habilitar&lt;/div&gt;&lt;div&gt; Plan&lt;/div&gt;" style="text;html=1;align=center;verticalAlign=middle;resizable=0;points=[];autosize=1;" parent="1" vertex="1">
          <mxGeometry x="-1460.6999999999998" y="5304.7" width="60" height="30" as="geometry" />
        </mxCell>
        <mxCell id="d5ky2tss_7Emb2lWA8z1-115" value="" style="whiteSpace=wrap;html=1;aspect=fixed;" parent="1" vertex="1">
          <mxGeometry x="-1403.1599999999999" y="5311.03" width="19.34" height="19.34" as="geometry" />
        </mxCell>
        <mxCell id="d5ky2tss_7Emb2lWA8z1-116" value="Order" style="text;html=1;align=center;verticalAlign=middle;resizable=0;points=[];autosize=1;" parent="1" vertex="1">
          <mxGeometry x="-1451.1799999999998" y="5281.36" width="50" height="20" as="geometry" />
        </mxCell>
        <mxCell id="d5ky2tss_7Emb2lWA8z1-117" value="1" style="whiteSpace=wrap;html=1;aspect=fixed;" parent="1" vertex="1">
          <mxGeometry x="-1405.4499999999998" y="5281.36" width="19.34" height="19.34" as="geometry" />
        </mxCell>
        <mxCell id="d5ky2tss_7Emb2lWA8z1-118" value="&lt;div&gt;&lt;br&gt;&lt;/div&gt;" style="rounded=1;whiteSpace=wrap;html=1;" parent="1" vertex="1">
          <mxGeometry x="-1626.3399999999997" y="5352.7" width="262.45" height="68" as="geometry" />
        </mxCell>
        <mxCell id="d5ky2tss_7Emb2lWA8z1-119" value="Ichip 29.90" style="text;html=1;align=center;verticalAlign=middle;resizable=0;points=[];autosize=1;" parent="1" vertex="1">
          <mxGeometry x="-1619.7799999999997" y="5361.589999999999" width="70" height="20" as="geometry" />
        </mxCell>
        <mxCell id="d5ky2tss_7Emb2lWA8z1-120" value="Reason Code" style="whiteSpace=wrap;html=1;" parent="1" vertex="1">
          <mxGeometry x="-1550.38" y="5360.58" width="90" height="30" as="geometry" />
        </mxCell>
        <mxCell id="d5ky2tss_7Emb2lWA8z1-121" value="Order" style="text;html=1;align=center;verticalAlign=middle;resizable=0;points=[];autosize=1;" parent="1" vertex="1">
          <mxGeometry x="-1451.1799999999998" y="5360.36" width="50" height="20" as="geometry" />
        </mxCell>
        <mxCell id="d5ky2tss_7Emb2lWA8z1-122" value="2" style="whiteSpace=wrap;html=1;aspect=fixed;" parent="1" vertex="1">
          <mxGeometry x="-1405.4499999999998" y="5363.36" width="19.34" height="19.34" as="geometry" />
        </mxCell>
        <mxCell id="d5ky2tss_7Emb2lWA8z1-123" value="&lt;div&gt;&lt;br&gt;&lt;/div&gt;" style="rounded=1;whiteSpace=wrap;html=1;" parent="1" vertex="1">
          <mxGeometry x="-1626.3399999999997" y="5430.7" width="262.45" height="80" as="geometry" />
        </mxCell>
        <mxCell id="d5ky2tss_7Emb2lWA8z1-124" value="Ichip 29.90" style="text;html=1;align=center;verticalAlign=middle;resizable=0;points=[];autosize=1;" parent="1" vertex="1">
          <mxGeometry x="-1619.7799999999997" y="5439.589999999999" width="70" height="20" as="geometry" />
        </mxCell>
        <mxCell id="d5ky2tss_7Emb2lWA8z1-125" value="Reason Code" style="whiteSpace=wrap;html=1;" parent="1" vertex="1">
          <mxGeometry x="-1550.38" y="5438.58" width="90" height="30" as="geometry" />
        </mxCell>
        <mxCell id="d5ky2tss_7Emb2lWA8z1-126" value="Order" style="text;html=1;align=center;verticalAlign=middle;resizable=0;points=[];autosize=1;" parent="1" vertex="1">
          <mxGeometry x="-1451.1799999999998" y="5441.36" width="50" height="20" as="geometry" />
        </mxCell>
        <mxCell id="d5ky2tss_7Emb2lWA8z1-127" value="1" style="whiteSpace=wrap;html=1;aspect=fixed;" parent="1" vertex="1">
          <mxGeometry x="-1405.4499999999998" y="5441.36" width="19.34" height="19.34" as="geometry" />
        </mxCell>
        <mxCell id="d5ky2tss_7Emb2lWA8z1-128" value="&lt;div&gt;Habilitar&lt;/div&gt;&lt;div&gt; Plan&lt;/div&gt;" style="text;html=1;align=center;verticalAlign=middle;resizable=0;points=[];autosize=1;" parent="1" vertex="1">
          <mxGeometry x="-1462.6999999999998" y="5384.7" width="60" height="30" as="geometry" />
        </mxCell>
        <mxCell id="d5ky2tss_7Emb2lWA8z1-129" value="" style="whiteSpace=wrap;html=1;aspect=fixed;" parent="1" vertex="1">
          <mxGeometry x="-1405.1599999999999" y="5391.03" width="19.34" height="19.34" as="geometry" />
        </mxCell>
        <mxCell id="d5ky2tss_7Emb2lWA8z1-130" value="&lt;div&gt;Habilitar&lt;/div&gt;&lt;div&gt; Plan&lt;/div&gt;" style="text;html=1;align=center;verticalAlign=middle;resizable=0;points=[];autosize=1;" parent="1" vertex="1">
          <mxGeometry x="-1462.6999999999998" y="5465.7" width="60" height="30" as="geometry" />
        </mxCell>
        <mxCell id="d5ky2tss_7Emb2lWA8z1-131" value="" style="whiteSpace=wrap;html=1;aspect=fixed;" parent="1" vertex="1">
          <mxGeometry x="-1405.1599999999999" y="5472.03" width="19.34" height="19.34" as="geometry" />
        </mxCell>
        <mxCell id="d5ky2tss_7Emb2lWA8z1-132" value="" style="rounded=1;whiteSpace=wrap;html=1;rotation=90;" parent="1" vertex="1">
          <mxGeometry x="-1923.96" y="4939.6" width="415.86" height="793.87" as="geometry" />
        </mxCell>
        <mxCell id="d5ky2tss_7Emb2lWA8z1-133" value="" style="rounded=1;whiteSpace=wrap;html=1;fillColor=#FFFFFF;" parent="1" vertex="1">
          <mxGeometry x="-2090.2799999999997" y="5179.17" width="75.43" height="31.49" as="geometry" />
        </mxCell>
        <mxCell id="d5ky2tss_7Emb2lWA8z1-134" value="" style="endArrow=none;html=1;exitX=1;exitY=0.85;exitDx=0;exitDy=0;exitPerimeter=0;" parent="1" source="d5ky2tss_7Emb2lWA8z1-132" edge="1">
          <mxGeometry width="50" height="50" relative="1" as="geometry">
            <mxPoint x="-1985.85" y="5456.66" as="sourcePoint" />
            <mxPoint x="-1993.7199999999998" y="5127.38" as="targetPoint" />
          </mxGeometry>
        </mxCell>
        <mxCell id="d5ky2tss_7Emb2lWA8z1-135" value="Images V" style="rounded=1;whiteSpace=wrap;html=1;fillColor=#FFFFFF;" parent="1" vertex="1">
          <mxGeometry x="-2092.41" y="5389.57" width="75.56" height="30.25" as="geometry" />
        </mxCell>
        <mxCell id="d5ky2tss_7Emb2lWA8z1-136" value="Users V" style="rounded=1;whiteSpace=wrap;html=1;fillColor=#FFFFFF;" parent="1" vertex="1">
          <mxGeometry x="-2092.41" y="5468.66" width="75.56" height="30.25" as="geometry" />
        </mxCell>
        <mxCell id="d5ky2tss_7Emb2lWA8z1-137" value="Socio Bitel V" style="rounded=1;whiteSpace=wrap;html=1;fillColor=#FFFFFF;" parent="1" vertex="1">
          <mxGeometry x="-2090.9700000000003" y="5223.68" width="81.12" height="27.77" as="geometry" />
        </mxCell>
        <mxCell id="d5ky2tss_7Emb2lWA8z1-138" value="&lt;div&gt;Planes&amp;nbsp; V&lt;br&gt;&lt;/div&gt;" style="rounded=1;whiteSpace=wrap;html=1;fillColor=#FFFFFF;" parent="1" vertex="1">
          <mxGeometry x="-2089.2799999999997" y="5270.7" width="73.43" height="28.89" as="geometry" />
        </mxCell>
        <mxCell id="d5ky2tss_7Emb2lWA8z1-139" value="Carrusel Plans &amp;gt;&lt;div&gt;&lt;br&gt;&lt;/div&gt;&lt;div&gt;&lt;br&gt;&lt;/div&gt;" style="rounded=1;whiteSpace=wrap;html=1;fillColor=#FFE599;" parent="1" vertex="1">
          <mxGeometry x="-2092.41" y="5309.23" width="75.56" height="65.81" as="geometry" />
        </mxCell>
        <mxCell id="d5ky2tss_7Emb2lWA8z1-140" value="" style="endArrow=none;dashed=1;html=1;dashPattern=1 3;strokeWidth=2;" parent="1" edge="1">
          <mxGeometry width="50" height="50" relative="1" as="geometry">
            <mxPoint x="-1549.9777049180339" y="5247.81" as="sourcePoint" />
            <mxPoint x="-1554.3199999999993" y="5250.010000000001" as="targetPoint" />
          </mxGeometry>
        </mxCell>
        <mxCell id="d5ky2tss_7Emb2lWA8z1-141" value="Orders&amp;nbsp; V" style="text;html=1;align=center;verticalAlign=middle;resizable=0;points=[];autosize=1;" parent="1" vertex="1">
          <mxGeometry x="-2087.5699999999997" y="5185.01" width="70" height="20" as="geometry" />
        </mxCell>
        <mxCell id="d5ky2tss_7Emb2lWA8z1-142" value="" style="endArrow=none;dashed=1;html=1;dashPattern=1 3;strokeWidth=2;" parent="1" edge="1">
          <mxGeometry width="50" height="50" relative="1" as="geometry">
            <mxPoint x="-1554.3199999999993" y="5230.010000000001" as="sourcePoint" />
            <mxPoint x="-1555.2400000000002" y="5229.711993355483" as="targetPoint" />
          </mxGeometry>
        </mxCell>
        <mxCell id="d5ky2tss_7Emb2lWA8z1-143" value="" style="endArrow=none;dashed=1;html=1;dashPattern=1 3;strokeWidth=2;exitX=0;exitY=0.5;exitDx=0;exitDy=0;entryX=1;entryY=0.5;entryDx=0;entryDy=0;" parent="1" source="d5ky2tss_7Emb2lWA8z1-139" target="d5ky2tss_7Emb2lWA8z1-139" edge="1">
          <mxGeometry width="50" height="50" relative="1" as="geometry">
            <mxPoint x="-1503.54" y="5175.04" as="sourcePoint" />
            <mxPoint x="-1453.54" y="5125.04" as="targetPoint" />
          </mxGeometry>
        </mxCell>
        <mxCell id="d5ky2tss_7Emb2lWA8z1-144" value="Catalogo" style="text;html=1;align=center;verticalAlign=middle;resizable=0;points=[];autosize=1;" parent="1" vertex="1">
          <mxGeometry x="-2092.5699999999997" y="5345.04" width="70" height="20" as="geometry" />
        </mxCell>
        <mxCell id="d5ky2tss_7Emb2lWA8z1-145" value="Payments V" style="rounded=1;whiteSpace=wrap;html=1;fillColor=#FFFFFF;" parent="1" vertex="1">
          <mxGeometry x="-2092.41" y="5429.05" width="75.56" height="30.25" as="geometry" />
        </mxCell>
        <mxCell id="d5ky2tss_7Emb2lWA8z1-146" value="Variation Control" style="rounded=1;whiteSpace=wrap;html=1;fillColor=#66B2FF;" parent="1" vertex="1">
          <mxGeometry x="-1896.25" y="5149.45" width="94.56" height="31.43" as="geometry" />
        </mxCell>
        <mxCell id="d5ky2tss_7Emb2lWA8z1-147" value="Variation Prepago" style="rounded=1;whiteSpace=wrap;html=1;fillColor=#FFFFFF;" parent="1" vertex="1">
          <mxGeometry x="-1801.69" y="5149.45" width="94.56" height="31.43" as="geometry" />
        </mxCell>
        <mxCell id="d5ky2tss_7Emb2lWA8z1-148" value="" style="rounded=0;whiteSpace=wrap;html=1;fillColor=#FFFFFF;rotation=90;" parent="1" vertex="1">
          <mxGeometry x="-1972.2199999999998" y="5191.5199999999995" width="338.95" height="329.32" as="geometry" />
        </mxCell>
        <mxCell id="d5ky2tss_7Emb2lWA8z1-149" value="&lt;u&gt;&lt;b&gt;Basic Information&lt;/b&gt;&lt;/u&gt;" style="text;html=1;align=center;verticalAlign=middle;resizable=0;points=[];autosize=1;" parent="1" vertex="1">
          <mxGeometry x="-1967.73" y="5192.339999999999" width="110" height="20" as="geometry" />
        </mxCell>
        <mxCell id="d5ky2tss_7Emb2lWA8z1-150" value="&lt;b&gt;Category&lt;/b&gt;" style="text;html=1;align=center;verticalAlign=middle;resizable=0;points=[];autosize=1;" parent="1" vertex="1">
          <mxGeometry x="-1961.6999999999998" y="5223.679999999999" width="70" height="20" as="geometry" />
        </mxCell>
        <mxCell id="d5ky2tss_7Emb2lWA8z1-151" value="Chip" style="rounded=1;whiteSpace=wrap;html=1;fillColor=#FFFFFF;" parent="1" vertex="1">
          <mxGeometry x="-1891.0099999999998" y="5218.910000000001" width="81.12" height="27.77" as="geometry" />
        </mxCell>
        <mxCell id="d5ky2tss_7Emb2lWA8z1-152" value="&lt;b&gt;Services&lt;/b&gt;" style="text;html=1;align=center;verticalAlign=middle;resizable=0;points=[];autosize=1;" parent="1" vertex="1">
          <mxGeometry x="-1961.6999999999998" y="5265.04" width="70" height="20" as="geometry" />
        </mxCell>
        <mxCell id="d5ky2tss_7Emb2lWA8z1-153" value="Planes Control&amp;nbsp; V" style="rounded=1;whiteSpace=wrap;html=1;fillColor=#FFFFFF;" parent="1" vertex="1">
          <mxGeometry x="-1891.0099999999998" y="5260.2699999999995" width="106.29" height="27.77" as="geometry" />
        </mxCell>
        <mxCell id="d5ky2tss_7Emb2lWA8z1-154" value="Commercial Terms" style="rounded=1;whiteSpace=wrap;html=1;fillColor=#FFFFFF;" parent="1" vertex="1">
          <mxGeometry x="-1947.6999999999998" y="5447.83" width="135.54" height="20.83" as="geometry" />
        </mxCell>
        <mxCell id="d5ky2tss_7Emb2lWA8z1-155" value="Load" style="rounded=1;whiteSpace=wrap;html=1;fillColor=#66B2FF;" parent="1" vertex="1">
          <mxGeometry x="-1817.6999999999998" y="5447.15" width="80" height="21.51" as="geometry" />
        </mxCell>
        <mxCell id="d5ky2tss_7Emb2lWA8z1-156" value="" style="rounded=1;whiteSpace=wrap;html=1;fillColor=#FFF2CC;" parent="1" vertex="1">
          <mxGeometry x="-1767.7999999999997" y="5192.7" width="120" height="113.88" as="geometry" />
        </mxCell>
        <mxCell id="d5ky2tss_7Emb2lWA8z1-157" value="" style="shape=collate;whiteSpace=wrap;html=1;fillColor=#FFF2CC;" parent="1" vertex="1">
          <mxGeometry x="-1763.06" y="5196.08" width="106.26" height="111.5" as="geometry" />
        </mxCell>
        <mxCell id="d5ky2tss_7Emb2lWA8z1-158" value="&lt;font style=&quot;font-size: 14px&quot;&gt;&lt;b&gt;Imagen&lt;/b&gt;&lt;/font&gt;" style="text;html=1;align=center;verticalAlign=middle;resizable=0;points=[];autosize=1;" parent="1" vertex="1">
          <mxGeometry x="-1737.6999999999998" y="5205.009999999999" width="60" height="20" as="geometry" />
        </mxCell>
        <mxCell id="d5ky2tss_7Emb2lWA8z1-159" value="" style="rounded=0;whiteSpace=wrap;html=1;fillColor=#FFFFFF;rotation=90;" parent="1" vertex="1">
          <mxGeometry x="-1661.2399999999998" y="5216.11" width="338.95" height="280.14" as="geometry" />
        </mxCell>
        <mxCell id="d5ky2tss_7Emb2lWA8z1-160" value="Plans carrusel Control" style="rounded=1;whiteSpace=wrap;html=1;" parent="1" vertex="1">
          <mxGeometry x="-1554.5499999999997" y="5149.009999999999" width="120" height="34.31" as="geometry" />
        </mxCell>
        <mxCell id="d5ky2tss_7Emb2lWA8z1-161" value="&lt;b&gt;Contract&lt;/b&gt;" style="text;html=1;align=center;verticalAlign=middle;resizable=0;points=[];autosize=1;" parent="1" vertex="1">
          <mxGeometry x="-1963.2199999999998" y="5301.36" width="60" height="20" as="geometry" />
        </mxCell>
        <mxCell id="d5ky2tss_7Emb2lWA8z1-162" value="Contrat 1 V" style="rounded=1;whiteSpace=wrap;html=1;fillColor=#FFFFFF;" parent="1" vertex="1">
          <mxGeometry x="-1894.5299999999997" y="5296.59" width="106.29" height="27.77" as="geometry" />
        </mxCell>
        <mxCell id="d5ky2tss_7Emb2lWA8z1-163" value="&lt;div&gt;&lt;b&gt;Variation Contract 1&lt;/b&gt;&lt;/div&gt;" style="rounded=1;whiteSpace=wrap;html=1;" parent="1" vertex="1">
          <mxGeometry x="-1617.17" y="5198.91" width="262.45" height="31.79" as="geometry" />
        </mxCell>
        <mxCell id="d5ky2tss_7Emb2lWA8z1-164" value="Portabilidad" style="rounded=1;whiteSpace=wrap;html=1;" parent="1" vertex="1">
          <mxGeometry x="-1617.8600000000001" y="5230.7300000000005" width="73.14" height="29.97" as="geometry" />
        </mxCell>
        <mxCell id="d5ky2tss_7Emb2lWA8z1-165" value="New Line" style="rounded=1;whiteSpace=wrap;html=1;" parent="1" vertex="1">
          <mxGeometry x="-1545.42" y="5230.7300000000005" width="70.7" height="29.97" as="geometry" />
        </mxCell>
        <mxCell id="d5ky2tss_7Emb2lWA8z1-166" value="Migration" style="rounded=1;whiteSpace=wrap;html=1;" parent="1" vertex="1">
          <mxGeometry x="-1476.15" y="5230.7300000000005" width="70.7" height="29.97" as="geometry" />
        </mxCell>
        <mxCell id="d5ky2tss_7Emb2lWA8z1-167" value="&lt;div&gt;&lt;br&gt;&lt;/div&gt;" style="rounded=1;whiteSpace=wrap;html=1;" parent="1" vertex="1">
          <mxGeometry x="-1626.3399999999997" y="5270.7" width="262.45" height="70" as="geometry" />
        </mxCell>
        <mxCell id="d5ky2tss_7Emb2lWA8z1-168" value="Ichip 29.90" style="text;html=1;align=center;verticalAlign=middle;resizable=0;points=[];autosize=1;" parent="1" vertex="1">
          <mxGeometry x="-1619.7799999999997" y="5279.589999999999" width="70" height="20" as="geometry" />
        </mxCell>
        <mxCell id="d5ky2tss_7Emb2lWA8z1-169" value="Reason Code" style="whiteSpace=wrap;html=1;" parent="1" vertex="1">
          <mxGeometry x="-1550.38" y="5278.58" width="90" height="30" as="geometry" />
        </mxCell>
        <mxCell id="d5ky2tss_7Emb2lWA8z1-170" value="&lt;div&gt;Available&lt;/div&gt;&lt;div&gt; Plan&lt;/div&gt;" style="text;html=1;align=center;verticalAlign=middle;resizable=0;points=[];autosize=1;" parent="1" vertex="1">
          <mxGeometry x="-1460.6999999999998" y="5304.7" width="60" height="30" as="geometry" />
        </mxCell>
        <mxCell id="d5ky2tss_7Emb2lWA8z1-171" value="" style="whiteSpace=wrap;html=1;aspect=fixed;" parent="1" vertex="1">
          <mxGeometry x="-1403.1599999999999" y="5311.03" width="19.34" height="19.34" as="geometry" />
        </mxCell>
        <mxCell id="d5ky2tss_7Emb2lWA8z1-172" value="Order" style="text;html=1;align=center;verticalAlign=middle;resizable=0;points=[];autosize=1;" parent="1" vertex="1">
          <mxGeometry x="-1451.1799999999998" y="5281.36" width="50" height="20" as="geometry" />
        </mxCell>
        <mxCell id="d5ky2tss_7Emb2lWA8z1-173" value="1" style="whiteSpace=wrap;html=1;aspect=fixed;" parent="1" vertex="1">
          <mxGeometry x="-1405.4499999999998" y="5281.36" width="19.34" height="19.34" as="geometry" />
        </mxCell>
        <mxCell id="d5ky2tss_7Emb2lWA8z1-174" value="&lt;div&gt;&lt;br&gt;&lt;/div&gt;" style="rounded=1;whiteSpace=wrap;html=1;" parent="1" vertex="1">
          <mxGeometry x="-1626.3399999999997" y="5352.7" width="262.45" height="68" as="geometry" />
        </mxCell>
        <mxCell id="d5ky2tss_7Emb2lWA8z1-175" value="Ichip 29.90" style="text;html=1;align=center;verticalAlign=middle;resizable=0;points=[];autosize=1;" parent="1" vertex="1">
          <mxGeometry x="-1619.7799999999997" y="5361.589999999999" width="70" height="20" as="geometry" />
        </mxCell>
        <mxCell id="d5ky2tss_7Emb2lWA8z1-176" value="Reason Code" style="whiteSpace=wrap;html=1;" parent="1" vertex="1">
          <mxGeometry x="-1550.38" y="5360.58" width="90" height="30" as="geometry" />
        </mxCell>
        <mxCell id="d5ky2tss_7Emb2lWA8z1-177" value="Order" style="text;html=1;align=center;verticalAlign=middle;resizable=0;points=[];autosize=1;" parent="1" vertex="1">
          <mxGeometry x="-1451.1799999999998" y="5360.36" width="50" height="20" as="geometry" />
        </mxCell>
        <mxCell id="d5ky2tss_7Emb2lWA8z1-178" value="2" style="whiteSpace=wrap;html=1;aspect=fixed;" parent="1" vertex="1">
          <mxGeometry x="-1405.4499999999998" y="5363.36" width="19.34" height="19.34" as="geometry" />
        </mxCell>
        <mxCell id="d5ky2tss_7Emb2lWA8z1-179" value="&lt;div&gt;&lt;br&gt;&lt;/div&gt;" style="rounded=1;whiteSpace=wrap;html=1;" parent="1" vertex="1">
          <mxGeometry x="-1626.3399999999997" y="5430.7" width="262.45" height="80" as="geometry" />
        </mxCell>
        <mxCell id="d5ky2tss_7Emb2lWA8z1-180" value="Ichip 29.90" style="text;html=1;align=center;verticalAlign=middle;resizable=0;points=[];autosize=1;" parent="1" vertex="1">
          <mxGeometry x="-1619.7799999999997" y="5439.589999999999" width="70" height="20" as="geometry" />
        </mxCell>
        <mxCell id="d5ky2tss_7Emb2lWA8z1-181" value="Reason Code" style="whiteSpace=wrap;html=1;" parent="1" vertex="1">
          <mxGeometry x="-1550.38" y="5438.58" width="90" height="30" as="geometry" />
        </mxCell>
        <mxCell id="d5ky2tss_7Emb2lWA8z1-182" value="Order" style="text;html=1;align=center;verticalAlign=middle;resizable=0;points=[];autosize=1;" parent="1" vertex="1">
          <mxGeometry x="-1451.1799999999998" y="5441.36" width="50" height="20" as="geometry" />
        </mxCell>
        <mxCell id="d5ky2tss_7Emb2lWA8z1-183" value="1" style="whiteSpace=wrap;html=1;aspect=fixed;" parent="1" vertex="1">
          <mxGeometry x="-1405.4499999999998" y="5441.36" width="19.34" height="19.34" as="geometry" />
        </mxCell>
        <mxCell id="d5ky2tss_7Emb2lWA8z1-184" value="&lt;div&gt;Available&lt;/div&gt;&lt;div&gt; Plan&lt;/div&gt;" style="text;html=1;align=center;verticalAlign=middle;resizable=0;points=[];autosize=1;" parent="1" vertex="1">
          <mxGeometry x="-1462.6999999999998" y="5384.7" width="60" height="30" as="geometry" />
        </mxCell>
        <mxCell id="d5ky2tss_7Emb2lWA8z1-185" value="" style="whiteSpace=wrap;html=1;aspect=fixed;" parent="1" vertex="1">
          <mxGeometry x="-1405.1599999999999" y="5391.03" width="19.34" height="19.34" as="geometry" />
        </mxCell>
        <mxCell id="d5ky2tss_7Emb2lWA8z1-186" value="&lt;div&gt;Available&lt;/div&gt;&lt;div&gt; Plan&lt;/div&gt;" style="text;html=1;align=center;verticalAlign=middle;resizable=0;points=[];autosize=1;" parent="1" vertex="1">
          <mxGeometry x="-1462.6999999999998" y="5465.7" width="60" height="30" as="geometry" />
        </mxCell>
        <mxCell id="d5ky2tss_7Emb2lWA8z1-187" value="" style="whiteSpace=wrap;html=1;aspect=fixed;" parent="1" vertex="1">
          <mxGeometry x="-1405.1599999999999" y="5472.03" width="19.34" height="19.34" as="geometry" />
        </mxCell>
        <mxCell id="d5ky2tss_7Emb2lWA8z1-188" value="" style="rounded=1;whiteSpace=wrap;html=1;fillColor=#FFFFFF;" parent="1" vertex="1">
          <mxGeometry x="-1258.9399999999996" y="5659.9" width="75.43" height="31.49" as="geometry" />
        </mxCell>
        <mxCell id="d5ky2tss_7Emb2lWA8z1-189" value="" style="endArrow=none;html=1;exitX=1.011;exitY=0.831;exitDx=0;exitDy=0;exitPerimeter=0;entryX=0.003;entryY=0.829;entryDx=0;entryDy=0;entryPerimeter=0;" parent="1" source="d5ky2tss_7Emb2lWA8z1-9" target="d5ky2tss_7Emb2lWA8z1-9" edge="1">
          <mxGeometry width="50" height="50" relative="1" as="geometry">
            <mxPoint x="-1154.5099999999998" y="5945.39" as="sourcePoint" />
            <mxPoint x="-1154.0299999999997" y="5668.679999999999" as="targetPoint" />
          </mxGeometry>
        </mxCell>
        <mxCell id="d5ky2tss_7Emb2lWA8z1-190" value="Images V" style="rounded=1;whiteSpace=wrap;html=1;fillColor=#FFFFFF;" parent="1" vertex="1">
          <mxGeometry x="-1261.0699999999997" y="5881.3" width="75.56" height="30.25" as="geometry" />
        </mxCell>
        <mxCell id="d5ky2tss_7Emb2lWA8z1-191" value="Users V" style="rounded=1;whiteSpace=wrap;html=1;fillColor=#FFFFFF;" parent="1" vertex="1">
          <mxGeometry x="-1256.2299999999996" y="5972.11" width="75.56" height="30.25" as="geometry" />
        </mxCell>
        <mxCell id="d5ky2tss_7Emb2lWA8z1-192" value="Socio Bitel V" style="rounded=1;whiteSpace=wrap;html=1;fillColor=#FFFFFF;" parent="1" vertex="1">
          <mxGeometry x="-1259.6299999999997" y="5704.410000000001" width="81.12" height="27.77" as="geometry" />
        </mxCell>
        <mxCell id="d5ky2tss_7Emb2lWA8z1-193" value="&lt;div&gt;Planes &lt;br&gt;&lt;/div&gt;&lt;div&gt;&lt;br&gt;&lt;/div&gt;&lt;div&gt;Equipos &amp;gt;&lt;br&gt;&lt;/div&gt;" style="rounded=1;whiteSpace=wrap;html=1;fillColor=#FFF2CC;" parent="1" vertex="1">
          <mxGeometry x="-1258.9399999999996" y="5746.88" width="73.43" height="54.51" as="geometry" />
        </mxCell>
        <mxCell id="d5ky2tss_7Emb2lWA8z1-194" value="Products V" style="rounded=1;whiteSpace=wrap;html=1;fillColor=#FFFFFF;" parent="1" vertex="1">
          <mxGeometry x="-1261.0699999999997" y="5831.96" width="75.56" height="30.25" as="geometry" />
        </mxCell>
        <mxCell id="d5ky2tss_7Emb2lWA8z1-195" value="" style="endArrow=none;dashed=1;html=1;dashPattern=1 3;strokeWidth=2;" parent="1" edge="1">
          <mxGeometry width="50" height="50" relative="1" as="geometry">
            <mxPoint x="-718.6377049180344" y="5728.540000000002" as="sourcePoint" />
            <mxPoint x="-722.9800000000002" y="5730.740000000001" as="targetPoint" />
          </mxGeometry>
        </mxCell>
        <mxCell id="d5ky2tss_7Emb2lWA8z1-196" value="Orders&amp;nbsp; &amp;gt;" style="text;html=1;align=center;verticalAlign=middle;resizable=0;points=[];autosize=1;" parent="1" vertex="1">
          <mxGeometry x="-1256.2299999999996" y="5665.74" width="70" height="20" as="geometry" />
        </mxCell>
        <mxCell id="d5ky2tss_7Emb2lWA8z1-197" value="" style="endArrow=none;dashed=1;html=1;dashPattern=1 3;strokeWidth=2;" parent="1" edge="1">
          <mxGeometry width="50" height="50" relative="1" as="geometry">
            <mxPoint x="-722.9800000000002" y="5710.740000000001" as="sourcePoint" />
            <mxPoint x="-723.9000000000003" y="5710.441993355483" as="targetPoint" />
          </mxGeometry>
        </mxCell>
        <mxCell id="d5ky2tss_7Emb2lWA8z1-198" value="" style="endArrow=none;dashed=1;html=1;exitX=0;exitY=0.5;exitDx=0;exitDy=0;entryX=1;entryY=0.5;entryDx=0;entryDy=0;" parent="1" source="d5ky2tss_7Emb2lWA8z1-193" target="d5ky2tss_7Emb2lWA8z1-193" edge="1">
          <mxGeometry width="50" height="50" relative="1" as="geometry">
            <mxPoint x="-853.51" y="5761.39" as="sourcePoint" />
            <mxPoint x="-803.51" y="5711.39" as="targetPoint" />
          </mxGeometry>
        </mxCell>
        <mxCell id="d5ky2tss_7Emb2lWA8z1-199" value="Payments V" style="rounded=1;whiteSpace=wrap;html=1;fillColor=#FFFFFF;" parent="1" vertex="1">
          <mxGeometry x="-1261.7899999999995" y="5926.39" width="75.56" height="30.25" as="geometry" />
        </mxCell>
        <mxCell id="d5ky2tss_7Emb2lWA8z1-200" value="Brand&amp;nbsp;&amp;nbsp; V" style="rounded=1;whiteSpace=wrap;html=1;fillColor=#FFFFFF;" parent="1" vertex="1">
          <mxGeometry x="-1139.5099999999998" y="5627.199999999999" width="94.56" height="31.43" as="geometry" />
        </mxCell>
        <mxCell id="d5ky2tss_7Emb2lWA8z1-201" value="Label" style="rounded=1;whiteSpace=wrap;html=1;fillColor=#FFFFFF;" parent="1" vertex="1">
          <mxGeometry x="-1142.4799999999996" y="5766.389999999999" width="94.56" height="31.43" as="geometry" />
        </mxCell>
        <mxCell id="d5ky2tss_7Emb2lWA8z1-202" value="Priority" style="rounded=1;whiteSpace=wrap;html=1;fillColor=#FFFFFF;" parent="1" vertex="1">
          <mxGeometry x="-1140.7899999999995" y="5849.87" width="94.56" height="31.43" as="geometry" />
        </mxCell>
        <mxCell id="d5ky2tss_7Emb2lWA8z1-203" value="" style="rounded=1;whiteSpace=wrap;html=1;fillColor=#FFF2CC;" parent="1" vertex="1">
          <mxGeometry x="-976.51" y="5652.509999999999" width="120" height="113.88" as="geometry" />
        </mxCell>
        <mxCell id="d5ky2tss_7Emb2lWA8z1-204" value="" style="shape=collate;whiteSpace=wrap;html=1;fillColor=#FFF2CC;" parent="1" vertex="1">
          <mxGeometry x="-971.77" y="5654.889999999999" width="106.26" height="111.5" as="geometry" />
        </mxCell>
        <mxCell id="d5ky2tss_7Emb2lWA8z1-205" value="" style="endArrow=none;dashed=1;html=1;entryX=0;entryY=0.5;entryDx=0;entryDy=0;" parent="1" edge="1">
          <mxGeometry width="50" height="50" relative="1" as="geometry">
            <mxPoint x="-841.51" y="6012.39" as="sourcePoint" />
            <mxPoint x="-843.0000000000007" y="5625.335" as="targetPoint" />
          </mxGeometry>
        </mxCell>
        <mxCell id="d5ky2tss_7Emb2lWA8z1-206" value="Cost" style="rounded=1;whiteSpace=wrap;html=1;fillColor=#FFFFFF;" parent="1" vertex="1">
          <mxGeometry x="-1141.23" y="5807.53" width="94.56" height="31.43" as="geometry" />
        </mxCell>
        <mxCell id="d5ky2tss_7Emb2lWA8z1-207" value="Model" style="rounded=1;whiteSpace=wrap;html=1;fillColor=#FFFFFF;" parent="1" vertex="1">
          <mxGeometry x="-1139.5099999999998" y="5674.45" width="94.56" height="31.43" as="geometry" />
        </mxCell>
        <mxCell id="d5ky2tss_7Emb2lWA8z1-208" value="Update" style="rounded=1;whiteSpace=wrap;html=1;fillColor=#00FF80;" parent="1" vertex="1">
          <mxGeometry x="-1139.5099999999998" y="5894.96" width="94.56" height="31.43" as="geometry" />
        </mxCell>
        <mxCell id="d5ky2tss_7Emb2lWA8z1-209" value="Save" style="rounded=1;whiteSpace=wrap;html=1;fillColor=#00FF80;" parent="1" vertex="1">
          <mxGeometry x="-1027.78" y="5894.96" width="94.56" height="31.43" as="geometry" />
        </mxCell>
        <mxCell id="d5ky2tss_7Emb2lWA8z1-210" value="&amp;nbsp;+ Add Stock Model" style="rounded=1;whiteSpace=wrap;html=1;fillColor=#B9E0A5;" parent="1" vertex="1">
          <mxGeometry x="-754.1" y="5592.909999999999" width="118.07" height="23.69" as="geometry" />
        </mxCell>
        <mxCell id="d5ky2tss_7Emb2lWA8z1-211" value="" style="rounded=0;whiteSpace=wrap;html=1;fillColor=#FFFFFF;rotation=90;" parent="1" vertex="1">
          <mxGeometry x="-810.02" y="5826.81" width="242.59" height="227.54" as="geometry" />
        </mxCell>
        <mxCell id="d5ky2tss_7Emb2lWA8z1-212" value="" style="rounded=1;whiteSpace=wrap;html=1;fillColor=#FFFFFF;" parent="1" vertex="1">
          <mxGeometry x="-663.8600000000001" y="5827.67" width="79.51" height="20.98" as="geometry" />
        </mxCell>
        <mxCell id="d5ky2tss_7Emb2lWA8z1-213" value="Internal Memory" style="text;html=1;align=center;verticalAlign=middle;resizable=0;points=[];autosize=1;" parent="1" vertex="1">
          <mxGeometry x="-786.48" y="5829.909999999999" width="100" height="20" as="geometry" />
        </mxCell>
        <mxCell id="d5ky2tss_7Emb2lWA8z1-214" value="" style="rounded=1;whiteSpace=wrap;html=1;fillColor=#FFFFFF;" parent="1" vertex="1">
          <mxGeometry x="-664.6700000000001" y="5861.41" width="79.51" height="20.98" as="geometry" />
        </mxCell>
        <mxCell id="d5ky2tss_7Emb2lWA8z1-215" value="External Memory" style="text;html=1;align=center;verticalAlign=middle;resizable=0;points=[];autosize=1;" parent="1" vertex="1">
          <mxGeometry x="-783.05" y="5861.25" width="100" height="20" as="geometry" />
        </mxCell>
        <mxCell id="d5ky2tss_7Emb2lWA8z1-216" value="Front camera" style="text;html=1;align=center;verticalAlign=middle;resizable=0;points=[];autosize=1;" parent="1" vertex="1">
          <mxGeometry x="-795.11" y="5917.64" width="90" height="20" as="geometry" />
        </mxCell>
        <mxCell id="d5ky2tss_7Emb2lWA8z1-217" value="Back camera" style="text;html=1;align=center;verticalAlign=middle;resizable=0;points=[];autosize=1;" parent="1" vertex="1">
          <mxGeometry x="-786.51" y="5943.97" width="90" height="20" as="geometry" />
        </mxCell>
        <mxCell id="d5ky2tss_7Emb2lWA8z1-218" value="" style="rounded=1;whiteSpace=wrap;html=1;fillColor=#FFFFFF;" parent="1" vertex="1">
          <mxGeometry x="-664.6700000000001" y="5889.66" width="79.51" height="20.98" as="geometry" />
        </mxCell>
        <mxCell id="d5ky2tss_7Emb2lWA8z1-219" value="Screen " style="text;html=1;align=center;verticalAlign=middle;resizable=0;points=[];autosize=1;" parent="1" vertex="1">
          <mxGeometry x="-781.51" y="5887.39" width="50" height="20" as="geometry" />
        </mxCell>
        <mxCell id="d5ky2tss_7Emb2lWA8z1-220" value="Update" style="rounded=1;whiteSpace=wrap;html=1;fillColor=#00FF80;" parent="1" vertex="1">
          <mxGeometry x="-784.76" y="6070.55" width="94.56" height="31.43" as="geometry" />
        </mxCell>
        <mxCell id="d5ky2tss_7Emb2lWA8z1-221" value="Save" style="rounded=1;whiteSpace=wrap;html=1;fillColor=#00FF80;" parent="1" vertex="1">
          <mxGeometry x="-674.85" y="6070.55" width="94.56" height="31.43" as="geometry" />
        </mxCell>
        <mxCell id="d5ky2tss_7Emb2lWA8z1-222" value="New Image&amp;nbsp;&amp;nbsp;&amp;nbsp;&amp;nbsp;&amp;nbsp;&amp;nbsp;&amp;nbsp;&amp;nbsp;&amp;nbsp; " style="rounded=1;whiteSpace=wrap;html=1;fillColor=#FFFFFF;" parent="1" vertex="1">
          <mxGeometry x="-976.0500000000001" y="5783.759999999999" width="104.11" height="20.83" as="geometry" />
        </mxCell>
        <mxCell id="d5ky2tss_7Emb2lWA8z1-223" value="Load" style="rounded=1;whiteSpace=wrap;html=1;fillColor=#66B2FF;" parent="1" vertex="1">
          <mxGeometry x="-904.94" y="5783.08" width="43.23" height="21.51" as="geometry" />
        </mxCell>
        <mxCell id="d5ky2tss_7Emb2lWA8z1-224" value="Product Code" style="rounded=1;whiteSpace=wrap;html=1;fillColor=#FFFFFF;" parent="1" vertex="1">
          <mxGeometry x="-1139.35" y="5720.63" width="94.56" height="31.43" as="geometry" />
        </mxCell>
        <mxCell id="d5ky2tss_7Emb2lWA8z1-225" value="" style="rounded=1;whiteSpace=wrap;html=1;fillColor=#FFFFFF;" parent="1" vertex="1">
          <mxGeometry x="-664.6700000000001" y="5917.88" width="79.51" height="20.98" as="geometry" />
        </mxCell>
        <mxCell id="d5ky2tss_7Emb2lWA8z1-226" value="" style="rounded=1;whiteSpace=wrap;html=1;fillColor=#FFFFFF;" parent="1" vertex="1">
          <mxGeometry x="-664.6700000000001" y="5947.099999999999" width="79.51" height="20.98" as="geometry" />
        </mxCell>
        <mxCell id="d5ky2tss_7Emb2lWA8z1-227" value="RAM Memory" style="text;html=1;align=center;verticalAlign=middle;resizable=0;points=[];autosize=1;" parent="1" vertex="1">
          <mxGeometry x="-791.11" y="5975.64" width="90" height="20" as="geometry" />
        </mxCell>
        <mxCell id="d5ky2tss_7Emb2lWA8z1-228" value="Procesador" style="text;html=1;align=center;verticalAlign=middle;resizable=0;points=[];autosize=1;" parent="1" vertex="1">
          <mxGeometry x="-780.51" y="6006.87" width="80" height="20" as="geometry" />
        </mxCell>
        <mxCell id="d5ky2tss_7Emb2lWA8z1-229" value="" style="rounded=1;whiteSpace=wrap;html=1;fillColor=#FFFFFF;" parent="1" vertex="1">
          <mxGeometry x="-663.6700000000001" y="5977.88" width="79.51" height="20.98" as="geometry" />
        </mxCell>
        <mxCell id="d5ky2tss_7Emb2lWA8z1-230" value="" style="rounded=1;whiteSpace=wrap;html=1;fillColor=#FFFFFF;" parent="1" vertex="1">
          <mxGeometry x="-663.6700000000001" y="6010" width="79.51" height="20.98" as="geometry" />
        </mxCell>
        <mxCell id="d5ky2tss_7Emb2lWA8z1-231" value="Operative Systems" style="text;html=1;align=center;verticalAlign=middle;resizable=0;points=[];autosize=1;" parent="1" vertex="1">
          <mxGeometry x="-800.51" y="6031.87" width="120" height="20" as="geometry" />
        </mxCell>
        <mxCell id="d5ky2tss_7Emb2lWA8z1-232" value="" style="rounded=1;whiteSpace=wrap;html=1;fillColor=#FFFFFF;" parent="1" vertex="1">
          <mxGeometry x="-663.6700000000001" y="6035" width="79.51" height="20.98" as="geometry" />
        </mxCell>
        <mxCell id="d5ky2tss_7Emb2lWA8z1-233" value="Technical specifications" style="rounded=1;whiteSpace=wrap;html=1;fillColor=#FFFFFF;" parent="1" vertex="1">
          <mxGeometry x="-1133.3999999999996" y="6071.84" width="135.54" height="20.83" as="geometry" />
        </mxCell>
        <mxCell id="d5ky2tss_7Emb2lWA8z1-234" value="Load" style="rounded=1;whiteSpace=wrap;html=1;fillColor=#66B2FF;" parent="1" vertex="1">
          <mxGeometry x="-1003.4" y="6071.16" width="80" height="21.51" as="geometry" />
        </mxCell>
        <mxCell id="d5ky2tss_7Emb2lWA8z1-235" value="Red&amp;nbsp;&amp;nbsp;&amp;nbsp;&amp;nbsp;&amp;nbsp; V" style="rounded=1;whiteSpace=wrap;html=1;fillColor=#FFFFFF;" parent="1" vertex="1">
          <mxGeometry x="-787.6100000000001" y="5631.929999999999" width="79.51" height="20.98" as="geometry" />
        </mxCell>
        <mxCell id="d5ky2tss_7Emb2lWA8z1-236" value="Color" style="text;html=1;align=center;verticalAlign=middle;resizable=0;points=[];autosize=1;" parent="1" vertex="1">
          <mxGeometry x="-839.2600000000001" y="5632.909999999999" width="40" height="20" as="geometry" />
        </mxCell>
        <mxCell id="d5ky2tss_7Emb2lWA8z1-237" value="" style="rounded=1;whiteSpace=wrap;html=1;fillColor=#FFFFFF;" parent="1" vertex="1">
          <mxGeometry x="-656.1600000000002" y="5631.159999999999" width="79.51" height="20.98" as="geometry" />
        </mxCell>
        <mxCell id="d5ky2tss_7Emb2lWA8z1-238" value="&lt;div&gt;Sotck&lt;/div&gt;&lt;div&gt;Model&lt;br&gt;&lt;/div&gt;" style="text;html=1;align=center;verticalAlign=middle;resizable=0;points=[];autosize=1;" parent="1" vertex="1">
          <mxGeometry x="-708.0600000000001" y="5624.889999999999" width="50" height="30" as="geometry" />
        </mxCell>
        <mxCell id="d5ky2tss_7Emb2lWA8z1-239" value="" style="rounded=1;whiteSpace=wrap;html=1;fillColor=#FFF2CC;" parent="1" vertex="1">
          <mxGeometry x="-802.6200000000001" y="5703.919999999999" width="48.82" height="45.91" as="geometry" />
        </mxCell>
        <mxCell id="d5ky2tss_7Emb2lWA8z1-240" value="New Image&amp;nbsp;&amp;nbsp;&amp;nbsp;&amp;nbsp;&amp;nbsp;&amp;nbsp;&amp;nbsp;&amp;nbsp;&amp;nbsp; " style="rounded=1;whiteSpace=wrap;html=1;fillColor=#FFFFFF;" parent="1" vertex="1">
          <mxGeometry x="-824.8000000000001" y="5669.3099999999995" width="104.11" height="20.83" as="geometry" />
        </mxCell>
        <mxCell id="d5ky2tss_7Emb2lWA8z1-241" value="Load" style="rounded=1;whiteSpace=wrap;html=1;fillColor=#66B2FF;" parent="1" vertex="1">
          <mxGeometry x="-753.69" y="5668.63" width="43.23" height="21.51" as="geometry" />
        </mxCell>
        <mxCell id="d5ky2tss_7Emb2lWA8z1-242" value="" style="shape=collate;whiteSpace=wrap;html=1;fillColor=#FFF2CC;" parent="1" vertex="1">
          <mxGeometry x="-971.77" y="5654.889999999999" width="106.26" height="111.5" as="geometry" />
        </mxCell>
        <mxCell id="d5ky2tss_7Emb2lWA8z1-243" value="" style="shape=collate;whiteSpace=wrap;html=1;fillColor=#FFF2CC;" parent="1" vertex="1">
          <mxGeometry x="-799.14" y="5706.62" width="43.05" height="40.29" as="geometry" />
        </mxCell>
        <mxCell id="d5ky2tss_7Emb2lWA8z1-244" value="" style="rounded=1;whiteSpace=wrap;html=1;fillColor=#FFF2CC;" parent="1" vertex="1">
          <mxGeometry x="-735.3000000000001" y="5703.919999999999" width="48.82" height="45.91" as="geometry" />
        </mxCell>
        <mxCell id="d5ky2tss_7Emb2lWA8z1-245" value="" style="shape=collate;whiteSpace=wrap;html=1;fillColor=#FFF2CC;" parent="1" vertex="1">
          <mxGeometry x="-731.82" y="5706.62" width="43.05" height="40.29" as="geometry" />
        </mxCell>
        <mxCell id="d5ky2tss_7Emb2lWA8z1-246" value="" style="rounded=1;whiteSpace=wrap;html=1;fillColor=#FFF2CC;" parent="1" vertex="1">
          <mxGeometry x="-670.0400000000001" y="5703.919999999999" width="48.82" height="45.91" as="geometry" />
        </mxCell>
        <mxCell id="d5ky2tss_7Emb2lWA8z1-247" value="" style="shape=collate;whiteSpace=wrap;html=1;fillColor=#FFF2CC;" parent="1" vertex="1">
          <mxGeometry x="-666.5600000000001" y="5706.62" width="43.05" height="40.29" as="geometry" />
        </mxCell>
        <mxCell id="d5ky2tss_7Emb2lWA8z1-248" value="" style="rounded=1;whiteSpace=wrap;html=1;fillColor=#FFF2CC;" parent="1" vertex="1">
          <mxGeometry x="-601.6700000000001" y="5703.919999999999" width="48.82" height="45.91" as="geometry" />
        </mxCell>
        <mxCell id="d5ky2tss_7Emb2lWA8z1-249" value="" style="shape=collate;whiteSpace=wrap;html=1;fillColor=#FFF2CC;" parent="1" vertex="1">
          <mxGeometry x="-598.19" y="5706.62" width="43.05" height="40.29" as="geometry" />
        </mxCell>
        <mxCell id="d5ky2tss_7Emb2lWA8z1-250" value="1" style="whiteSpace=wrap;html=1;aspect=fixed;" parent="1" vertex="1">
          <mxGeometry x="-790.7400000000002" y="5762.28" width="24.69" height="24.69" as="geometry" />
        </mxCell>
        <mxCell id="d5ky2tss_7Emb2lWA8z1-251" value="2" style="whiteSpace=wrap;html=1;aspect=fixed;" parent="1" vertex="1">
          <mxGeometry x="-723.7500000000002" y="5762.28" width="24.69" height="24.69" as="geometry" />
        </mxCell>
        <mxCell id="d5ky2tss_7Emb2lWA8z1-252" value="3" style="whiteSpace=wrap;html=1;aspect=fixed;" parent="1" vertex="1">
          <mxGeometry x="-655.6900000000002" y="5764.88" width="24.69" height="24.69" as="geometry" />
        </mxCell>
        <mxCell id="d5ky2tss_7Emb2lWA8z1-253" value="4" style="whiteSpace=wrap;html=1;aspect=fixed;" parent="1" vertex="1">
          <mxGeometry x="-589.0300000000002" y="5762.28" width="24.69" height="24.69" as="geometry" />
        </mxCell>
        <mxCell id="d5ky2tss_7Emb2lWA8z1-254" value="&lt;b&gt;Technical Summary&lt;/b&gt;" style="text;html=1;align=center;verticalAlign=middle;resizable=0;points=[];autosize=1;" parent="1" vertex="1">
          <mxGeometry x="-763.41" y="5801.39" width="120" height="20" as="geometry" />
        </mxCell>
        <mxCell id="d5ky2tss_7Emb2lWA8z1-255" value="&lt;b&gt;Image Product&lt;br&gt;&lt;/b&gt;&amp;nbsp;Front" style="text;html=1;align=center;verticalAlign=middle;resizable=0;points=[];autosize=1;" parent="1" vertex="1">
          <mxGeometry x="-972.84" y="5717.39" width="100" height="30" as="geometry" />
        </mxCell>
        <mxCell id="d5ky2tss_7Emb2lWA8z1-256" value="&lt;b&gt;+&lt;/b&gt;" style="text;html=1;align=center;verticalAlign=middle;resizable=0;points=[];autosize=1;" parent="1" vertex="1">
          <mxGeometry x="-1139.35" y="5631.889999999999" width="20" height="20" as="geometry" />
        </mxCell>
        <mxCell id="d5ky2tss_7Emb2lWA8z1-257" value="&lt;b&gt;+&lt;/b&gt;" style="text;html=1;align=center;verticalAlign=middle;resizable=0;points=[];autosize=1;" parent="1" vertex="1">
          <mxGeometry x="-1891.6999999999998" y="5300.48" width="20" height="20" as="geometry" />
        </mxCell>
        <mxCell id="d5ky2tss_7Emb2lWA8z1-258" value="Description Control V" style="swimlane;childLayout=stackLayout;horizontal=1;startSize=30;horizontalStack=0;rounded=1;fontSize=14;fontStyle=0;strokeWidth=2;resizeParent=0;resizeLast=1;shadow=0;dashed=0;align=center;" parent="1" vertex="1">
          <mxGeometry x="-1946.5300000000002" y="5341.2" width="260" height="91" as="geometry" />
        </mxCell>
        <mxCell id="d5ky2tss_7Emb2lWA8z1-259" value="+Attribute1&#xa;+Attribute2&#xa;+Attribute3" style="align=left;strokeColor=none;fillColor=none;spacingLeft=4;fontSize=12;verticalAlign=top;resizable=0;rotatable=0;part=1;" parent="d5ky2tss_7Emb2lWA8z1-258" vertex="1">
          <mxGeometry y="30" width="260" height="61" as="geometry" />
        </mxCell>
        <mxCell id="d5ky2tss_7Emb2lWA8z1-260" value="" style="rounded=1;whiteSpace=wrap;html=1;rotation=90;" parent="1" vertex="1">
          <mxGeometry x="-1067.6399999999999" y="4933.64" width="415.86" height="793.87" as="geometry" />
        </mxCell>
        <mxCell id="d5ky2tss_7Emb2lWA8z1-261" value="" style="rounded=1;whiteSpace=wrap;html=1;fillColor=#FFFFFF;" parent="1" vertex="1">
          <mxGeometry x="-1233.9599999999991" y="5173.21" width="75.43" height="31.49" as="geometry" />
        </mxCell>
        <mxCell id="d5ky2tss_7Emb2lWA8z1-262" value="" style="endArrow=none;html=1;" parent="1" edge="1">
          <mxGeometry width="50" height="50" relative="1" as="geometry">
            <mxPoint x="-1129.5299999999993" y="5450.7" as="sourcePoint" />
            <mxPoint x="-1129.0499999999988" y="5173.990000000001" as="targetPoint" />
          </mxGeometry>
        </mxCell>
        <mxCell id="d5ky2tss_7Emb2lWA8z1-263" value="Images V" style="rounded=1;whiteSpace=wrap;html=1;fillColor=#FFFFFF;" parent="1" vertex="1">
          <mxGeometry x="-1236.0899999999992" y="5383.61" width="75.56" height="30.25" as="geometry" />
        </mxCell>
        <mxCell id="d5ky2tss_7Emb2lWA8z1-264" value="Users V" style="rounded=1;whiteSpace=wrap;html=1;fillColor=#FFFFFF;" parent="1" vertex="1">
          <mxGeometry x="-1236.0899999999992" y="5462.7" width="75.56" height="30.25" as="geometry" />
        </mxCell>
        <mxCell id="d5ky2tss_7Emb2lWA8z1-265" value="Socio Bitel V" style="rounded=1;whiteSpace=wrap;html=1;fillColor=#FFFFFF;" parent="1" vertex="1">
          <mxGeometry x="-1234.6499999999996" y="5217.72" width="81.12" height="27.77" as="geometry" />
        </mxCell>
        <mxCell id="d5ky2tss_7Emb2lWA8z1-266" value="&lt;div&gt;Planes&amp;nbsp; V&lt;br&gt;&lt;/div&gt;" style="rounded=1;whiteSpace=wrap;html=1;fillColor=#FFFFFF;" parent="1" vertex="1">
          <mxGeometry x="-1232.9599999999991" y="5264.74" width="73.43" height="28.89" as="geometry" />
        </mxCell>
        <mxCell id="d5ky2tss_7Emb2lWA8z1-267" value="Carrusel Plans &amp;gt;&lt;div&gt;&lt;br&gt;&lt;/div&gt;&lt;div&gt;&lt;br&gt;&lt;/div&gt;" style="rounded=1;whiteSpace=wrap;html=1;fillColor=#FFE599;" parent="1" vertex="1">
          <mxGeometry x="-1236.0899999999992" y="5303.2699999999995" width="75.56" height="65.81" as="geometry" />
        </mxCell>
        <mxCell id="d5ky2tss_7Emb2lWA8z1-268" value="" style="endArrow=none;dashed=1;html=1;dashPattern=1 3;strokeWidth=2;" parent="1" edge="1">
          <mxGeometry width="50" height="50" relative="1" as="geometry">
            <mxPoint x="-693.657704918033" y="5241.850000000001" as="sourcePoint" />
            <mxPoint x="-698.0000000000007" y="5244.05" as="targetPoint" />
          </mxGeometry>
        </mxCell>
        <mxCell id="d5ky2tss_7Emb2lWA8z1-269" value="Orders&amp;nbsp; V" style="text;html=1;align=center;verticalAlign=middle;resizable=0;points=[];autosize=1;" parent="1" vertex="1">
          <mxGeometry x="-1231.249999999999" y="5179.05" width="70" height="20" as="geometry" />
        </mxCell>
        <mxCell id="d5ky2tss_7Emb2lWA8z1-270" value="" style="endArrow=none;dashed=1;html=1;dashPattern=1 3;strokeWidth=2;" parent="1" edge="1">
          <mxGeometry width="50" height="50" relative="1" as="geometry">
            <mxPoint x="-698.0000000000007" y="5224.05" as="sourcePoint" />
            <mxPoint x="-698.9200000000008" y="5223.751993355482" as="targetPoint" />
          </mxGeometry>
        </mxCell>
        <mxCell id="d5ky2tss_7Emb2lWA8z1-271" value="" style="endArrow=none;dashed=1;html=1;dashPattern=1 3;strokeWidth=2;exitX=0;exitY=0.5;exitDx=0;exitDy=0;entryX=1;entryY=0.5;entryDx=0;entryDy=0;" parent="1" source="d5ky2tss_7Emb2lWA8z1-267" target="d5ky2tss_7Emb2lWA8z1-267" edge="1">
          <mxGeometry width="50" height="50" relative="1" as="geometry">
            <mxPoint x="-647.2200000000001" y="5169.08" as="sourcePoint" />
            <mxPoint x="-597.2200000000001" y="5119.08" as="targetPoint" />
          </mxGeometry>
        </mxCell>
        <mxCell id="d5ky2tss_7Emb2lWA8z1-272" value="Catalogo" style="text;html=1;align=center;verticalAlign=middle;resizable=0;points=[];autosize=1;" parent="1" vertex="1">
          <mxGeometry x="-1236.249999999999" y="5339.08" width="70" height="20" as="geometry" />
        </mxCell>
        <mxCell id="d5ky2tss_7Emb2lWA8z1-273" value="Payments V" style="rounded=1;whiteSpace=wrap;html=1;fillColor=#FFFFFF;" parent="1" vertex="1">
          <mxGeometry x="-1236.0899999999992" y="5423.09" width="75.56" height="30.25" as="geometry" />
        </mxCell>
        <mxCell id="d5ky2tss_7Emb2lWA8z1-274" value="Variation Control" style="rounded=1;whiteSpace=wrap;html=1;fillColor=#66B2FF;" parent="1" vertex="1">
          <mxGeometry x="-1039.9299999999998" y="5143.49" width="94.56" height="31.43" as="geometry" />
        </mxCell>
        <mxCell id="d5ky2tss_7Emb2lWA8z1-275" value="Variation Prepago" style="rounded=1;whiteSpace=wrap;html=1;fillColor=#FFFFFF;" parent="1" vertex="1">
          <mxGeometry x="-945.3700000000002" y="5143.49" width="94.56" height="31.43" as="geometry" />
        </mxCell>
        <mxCell id="d5ky2tss_7Emb2lWA8z1-276" value="" style="rounded=0;whiteSpace=wrap;html=1;fillColor=#FFFFFF;rotation=90;" parent="1" vertex="1">
          <mxGeometry x="-1115.8999999999996" y="5185.56" width="338.95" height="329.32" as="geometry" />
        </mxCell>
        <mxCell id="d5ky2tss_7Emb2lWA8z1-277" value="&lt;u&gt;&lt;b&gt;Basic Information&lt;/b&gt;&lt;/u&gt;" style="text;html=1;align=center;verticalAlign=middle;resizable=0;points=[];autosize=1;" parent="1" vertex="1">
          <mxGeometry x="-1111.4099999999999" y="5186.38" width="110" height="20" as="geometry" />
        </mxCell>
        <mxCell id="d5ky2tss_7Emb2lWA8z1-278" value="&lt;b&gt;Category&lt;/b&gt;" style="text;html=1;align=center;verticalAlign=middle;resizable=0;points=[];autosize=1;" parent="1" vertex="1">
          <mxGeometry x="-1105.3799999999997" y="5217.72" width="70" height="20" as="geometry" />
        </mxCell>
        <mxCell id="d5ky2tss_7Emb2lWA8z1-279" value="Chips V" style="rounded=1;whiteSpace=wrap;html=1;fillColor=#FFFFFF;" parent="1" vertex="1">
          <mxGeometry x="-1034.6899999999996" y="5212.95" width="81.12" height="27.77" as="geometry" />
        </mxCell>
        <mxCell id="d5ky2tss_7Emb2lWA8z1-280" value="&lt;b&gt;Type&lt;/b&gt;" style="text;html=1;align=center;verticalAlign=middle;resizable=0;points=[];autosize=1;" parent="1" vertex="1">
          <mxGeometry x="-1090.3799999999997" y="5259.08" width="40" height="20" as="geometry" />
        </mxCell>
        <mxCell id="d5ky2tss_7Emb2lWA8z1-281" value="Planes Control&amp;nbsp; V" style="rounded=1;whiteSpace=wrap;html=1;fillColor=#FFFFFF;" parent="1" vertex="1">
          <mxGeometry x="-1034.6899999999996" y="5254.31" width="106.29" height="27.77" as="geometry" />
        </mxCell>
        <mxCell id="d5ky2tss_7Emb2lWA8z1-282" value="Technical specifications" style="rounded=1;whiteSpace=wrap;html=1;fillColor=#FFFFFF;" parent="1" vertex="1">
          <mxGeometry x="-1091.3799999999997" y="5441.87" width="135.54" height="20.83" as="geometry" />
        </mxCell>
        <mxCell id="d5ky2tss_7Emb2lWA8z1-283" value="Load" style="rounded=1;whiteSpace=wrap;html=1;fillColor=#66B2FF;" parent="1" vertex="1">
          <mxGeometry x="-961.38" y="5441.19" width="80" height="21.51" as="geometry" />
        </mxCell>
        <mxCell id="d5ky2tss_7Emb2lWA8z1-284" value="" style="rounded=1;whiteSpace=wrap;html=1;fillColor=#FFF2CC;" parent="1" vertex="1">
          <mxGeometry x="-911.4799999999999" y="5187.74" width="120" height="113.88" as="geometry" />
        </mxCell>
        <mxCell id="d5ky2tss_7Emb2lWA8z1-285" value="" style="shape=collate;whiteSpace=wrap;html=1;fillColor=#FFF2CC;" parent="1" vertex="1">
          <mxGeometry x="-906.7400000000001" y="5190.12" width="106.26" height="111.5" as="geometry" />
        </mxCell>
        <mxCell id="d5ky2tss_7Emb2lWA8z1-286" value="&lt;font style=&quot;font-size: 14px&quot;&gt;&lt;b&gt;Imagen&lt;/b&gt;&lt;/font&gt;" style="text;html=1;align=center;verticalAlign=middle;resizable=0;points=[];autosize=1;" parent="1" vertex="1">
          <mxGeometry x="-881.38" y="5199.05" width="60" height="20" as="geometry" />
        </mxCell>
        <mxCell id="d5ky2tss_7Emb2lWA8z1-287" value="" style="rounded=0;whiteSpace=wrap;html=1;fillColor=#FFFFFF;rotation=90;" parent="1" vertex="1">
          <mxGeometry x="-804.92" y="5210.15" width="338.95" height="280.14" as="geometry" />
        </mxCell>
        <mxCell id="d5ky2tss_7Emb2lWA8z1-288" value="Plans carrusel" style="rounded=1;whiteSpace=wrap;html=1;" parent="1" vertex="1">
          <mxGeometry x="-698.2299999999999" y="5143.05" width="120" height="34.31" as="geometry" />
        </mxCell>
        <mxCell id="d5ky2tss_7Emb2lWA8z1-289" value="&lt;b&gt;Contract&lt;/b&gt;" style="text;html=1;align=center;verticalAlign=middle;resizable=0;points=[];autosize=1;" parent="1" vertex="1">
          <mxGeometry x="-1106.8999999999996" y="5295.400000000001" width="60" height="20" as="geometry" />
        </mxCell>
        <mxCell id="d5ky2tss_7Emb2lWA8z1-290" value="Contrat 1 V" style="rounded=1;whiteSpace=wrap;html=1;fillColor=#FFFFFF;" parent="1" vertex="1">
          <mxGeometry x="-1038.2099999999996" y="5290.63" width="106.29" height="27.77" as="geometry" />
        </mxCell>
        <mxCell id="d5ky2tss_7Emb2lWA8z1-291" value="&lt;div&gt;&lt;b&gt;Variation Contract 1&lt;/b&gt;&lt;/div&gt;" style="rounded=1;whiteSpace=wrap;html=1;" parent="1" vertex="1">
          <mxGeometry x="-760.8500000000003" y="5192.95" width="262.45" height="31.79" as="geometry" />
        </mxCell>
        <mxCell id="d5ky2tss_7Emb2lWA8z1-292" value="Portabilidad" style="rounded=1;whiteSpace=wrap;html=1;" parent="1" vertex="1">
          <mxGeometry x="-761.5400000000003" y="5224.7699999999995" width="73.14" height="29.97" as="geometry" />
        </mxCell>
        <mxCell id="d5ky2tss_7Emb2lWA8z1-293" value="New Line" style="rounded=1;whiteSpace=wrap;html=1;" parent="1" vertex="1">
          <mxGeometry x="-689.1000000000003" y="5224.7699999999995" width="70.7" height="29.97" as="geometry" />
        </mxCell>
        <mxCell id="d5ky2tss_7Emb2lWA8z1-294" value="Migration" style="rounded=1;whiteSpace=wrap;html=1;" parent="1" vertex="1">
          <mxGeometry x="-619.8300000000003" y="5224.7699999999995" width="70.7" height="29.97" as="geometry" />
        </mxCell>
        <mxCell id="d5ky2tss_7Emb2lWA8z1-295" value="&lt;div&gt;&lt;br&gt;&lt;/div&gt;" style="rounded=1;whiteSpace=wrap;html=1;" parent="1" vertex="1">
          <mxGeometry x="-770.0199999999999" y="5264.74" width="262.45" height="70" as="geometry" />
        </mxCell>
        <mxCell id="d5ky2tss_7Emb2lWA8z1-296" value="Ichip 29.90" style="text;html=1;align=center;verticalAlign=middle;resizable=0;points=[];autosize=1;" parent="1" vertex="1">
          <mxGeometry x="-763.4599999999999" y="5273.63" width="70" height="20" as="geometry" />
        </mxCell>
        <mxCell id="d5ky2tss_7Emb2lWA8z1-297" value="Reason Code" style="whiteSpace=wrap;html=1;" parent="1" vertex="1">
          <mxGeometry x="-694.0600000000003" y="5272.62" width="90" height="30" as="geometry" />
        </mxCell>
        <mxCell id="d5ky2tss_7Emb2lWA8z1-298" value="&lt;div&gt;Habilitar&lt;/div&gt;&lt;div&gt; Plan&lt;/div&gt;" style="text;html=1;align=center;verticalAlign=middle;resizable=0;points=[];autosize=1;" parent="1" vertex="1">
          <mxGeometry x="-604.38" y="5298.74" width="60" height="30" as="geometry" />
        </mxCell>
        <mxCell id="d5ky2tss_7Emb2lWA8z1-299" value="" style="whiteSpace=wrap;html=1;aspect=fixed;" parent="1" vertex="1">
          <mxGeometry x="-546.84" y="5305.07" width="19.34" height="19.34" as="geometry" />
        </mxCell>
        <mxCell id="d5ky2tss_7Emb2lWA8z1-300" value="Order" style="text;html=1;align=center;verticalAlign=middle;resizable=0;points=[];autosize=1;" parent="1" vertex="1">
          <mxGeometry x="-594.86" y="5275.4" width="50" height="20" as="geometry" />
        </mxCell>
        <mxCell id="d5ky2tss_7Emb2lWA8z1-301" value="1" style="whiteSpace=wrap;html=1;aspect=fixed;" parent="1" vertex="1">
          <mxGeometry x="-549.13" y="5275.4" width="19.34" height="19.34" as="geometry" />
        </mxCell>
        <mxCell id="d5ky2tss_7Emb2lWA8z1-302" value="&lt;div&gt;&lt;br&gt;&lt;/div&gt;" style="rounded=1;whiteSpace=wrap;html=1;" parent="1" vertex="1">
          <mxGeometry x="-770.0199999999999" y="5346.74" width="262.45" height="68" as="geometry" />
        </mxCell>
        <mxCell id="d5ky2tss_7Emb2lWA8z1-303" value="Ichip 29.90" style="text;html=1;align=center;verticalAlign=middle;resizable=0;points=[];autosize=1;" parent="1" vertex="1">
          <mxGeometry x="-763.4599999999999" y="5355.63" width="70" height="20" as="geometry" />
        </mxCell>
        <mxCell id="d5ky2tss_7Emb2lWA8z1-304" value="Reason Code" style="whiteSpace=wrap;html=1;" parent="1" vertex="1">
          <mxGeometry x="-694.0600000000003" y="5354.62" width="90" height="30" as="geometry" />
        </mxCell>
        <mxCell id="d5ky2tss_7Emb2lWA8z1-305" value="Order" style="text;html=1;align=center;verticalAlign=middle;resizable=0;points=[];autosize=1;" parent="1" vertex="1">
          <mxGeometry x="-594.86" y="5354.4" width="50" height="20" as="geometry" />
        </mxCell>
        <mxCell id="d5ky2tss_7Emb2lWA8z1-306" value="2" style="whiteSpace=wrap;html=1;aspect=fixed;" parent="1" vertex="1">
          <mxGeometry x="-549.13" y="5357.4" width="19.34" height="19.34" as="geometry" />
        </mxCell>
        <mxCell id="d5ky2tss_7Emb2lWA8z1-307" value="&lt;div&gt;&lt;br&gt;&lt;/div&gt;" style="rounded=1;whiteSpace=wrap;html=1;" parent="1" vertex="1">
          <mxGeometry x="-770.0199999999999" y="5424.74" width="262.45" height="80" as="geometry" />
        </mxCell>
        <mxCell id="d5ky2tss_7Emb2lWA8z1-308" value="Ichip 29.90" style="text;html=1;align=center;verticalAlign=middle;resizable=0;points=[];autosize=1;" parent="1" vertex="1">
          <mxGeometry x="-763.4599999999999" y="5433.63" width="70" height="20" as="geometry" />
        </mxCell>
        <mxCell id="d5ky2tss_7Emb2lWA8z1-309" value="Reason Code" style="whiteSpace=wrap;html=1;" parent="1" vertex="1">
          <mxGeometry x="-694.0600000000003" y="5432.62" width="90" height="30" as="geometry" />
        </mxCell>
        <mxCell id="d5ky2tss_7Emb2lWA8z1-310" value="Order" style="text;html=1;align=center;verticalAlign=middle;resizable=0;points=[];autosize=1;" parent="1" vertex="1">
          <mxGeometry x="-594.86" y="5435.4" width="50" height="20" as="geometry" />
        </mxCell>
        <mxCell id="d5ky2tss_7Emb2lWA8z1-311" value="1" style="whiteSpace=wrap;html=1;aspect=fixed;" parent="1" vertex="1">
          <mxGeometry x="-549.13" y="5435.4" width="19.34" height="19.34" as="geometry" />
        </mxCell>
        <mxCell id="d5ky2tss_7Emb2lWA8z1-312" value="&lt;div&gt;Habilitar&lt;/div&gt;&lt;div&gt; Plan&lt;/div&gt;" style="text;html=1;align=center;verticalAlign=middle;resizable=0;points=[];autosize=1;" parent="1" vertex="1">
          <mxGeometry x="-606.38" y="5378.74" width="60" height="30" as="geometry" />
        </mxCell>
        <mxCell id="d5ky2tss_7Emb2lWA8z1-313" value="" style="whiteSpace=wrap;html=1;aspect=fixed;" parent="1" vertex="1">
          <mxGeometry x="-548.84" y="5385.07" width="19.34" height="19.34" as="geometry" />
        </mxCell>
        <mxCell id="d5ky2tss_7Emb2lWA8z1-314" value="&lt;div&gt;Habilitar&lt;/div&gt;&lt;div&gt; Plan&lt;/div&gt;" style="text;html=1;align=center;verticalAlign=middle;resizable=0;points=[];autosize=1;" parent="1" vertex="1">
          <mxGeometry x="-606.38" y="5459.74" width="60" height="30" as="geometry" />
        </mxCell>
        <mxCell id="d5ky2tss_7Emb2lWA8z1-315" value="" style="whiteSpace=wrap;html=1;aspect=fixed;" parent="1" vertex="1">
          <mxGeometry x="-548.84" y="5466.07" width="19.34" height="19.34" as="geometry" />
        </mxCell>
        <mxCell id="d5ky2tss_7Emb2lWA8z1-316" value="" style="rounded=1;whiteSpace=wrap;html=1;rotation=90;" parent="1" vertex="1">
          <mxGeometry x="-1067.6399999999999" y="4933.64" width="415.86" height="793.87" as="geometry" />
        </mxCell>
        <mxCell id="d5ky2tss_7Emb2lWA8z1-317" value="" style="rounded=1;whiteSpace=wrap;html=1;fillColor=#FFFFFF;" parent="1" vertex="1">
          <mxGeometry x="-1233.9599999999991" y="5173.21" width="75.43" height="31.49" as="geometry" />
        </mxCell>
        <mxCell id="d5ky2tss_7Emb2lWA8z1-318" value="" style="endArrow=none;html=1;exitX=1;exitY=0.85;exitDx=0;exitDy=0;exitPerimeter=0;" parent="1" source="d5ky2tss_7Emb2lWA8z1-316" edge="1">
          <mxGeometry width="50" height="50" relative="1" as="geometry">
            <mxPoint x="-1129.5299999999997" y="5450.7" as="sourcePoint" />
            <mxPoint x="-1137.3999999999992" y="5121.419999999999" as="targetPoint" />
          </mxGeometry>
        </mxCell>
        <mxCell id="d5ky2tss_7Emb2lWA8z1-319" value="Images V" style="rounded=1;whiteSpace=wrap;html=1;fillColor=#FFFFFF;" parent="1" vertex="1">
          <mxGeometry x="-1236.0899999999992" y="5383.61" width="75.56" height="30.25" as="geometry" />
        </mxCell>
        <mxCell id="d5ky2tss_7Emb2lWA8z1-320" value="Users V" style="rounded=1;whiteSpace=wrap;html=1;fillColor=#FFFFFF;" parent="1" vertex="1">
          <mxGeometry x="-1236.0899999999992" y="5462.7" width="75.56" height="30.25" as="geometry" />
        </mxCell>
        <mxCell id="d5ky2tss_7Emb2lWA8z1-321" value="Socio Bitel V" style="rounded=1;whiteSpace=wrap;html=1;fillColor=#FFFFFF;" parent="1" vertex="1">
          <mxGeometry x="-1234.6499999999996" y="5217.72" width="81.12" height="27.77" as="geometry" />
        </mxCell>
        <mxCell id="d5ky2tss_7Emb2lWA8z1-322" value="&lt;div&gt;Planes&amp;nbsp; V&lt;br&gt;&lt;/div&gt;" style="rounded=1;whiteSpace=wrap;html=1;fillColor=#FFFFFF;" parent="1" vertex="1">
          <mxGeometry x="-1232.9599999999991" y="5264.74" width="73.43" height="28.89" as="geometry" />
        </mxCell>
        <mxCell id="d5ky2tss_7Emb2lWA8z1-323" value="Carrusel Plans &amp;gt;&lt;div&gt;&lt;br&gt;&lt;/div&gt;&lt;div&gt;&lt;br&gt;&lt;/div&gt;" style="rounded=1;whiteSpace=wrap;html=1;fillColor=#FFE599;" parent="1" vertex="1">
          <mxGeometry x="-1236.0899999999992" y="5303.2699999999995" width="75.56" height="65.81" as="geometry" />
        </mxCell>
        <mxCell id="d5ky2tss_7Emb2lWA8z1-324" value="" style="endArrow=none;dashed=1;html=1;dashPattern=1 3;strokeWidth=2;" parent="1" edge="1">
          <mxGeometry width="50" height="50" relative="1" as="geometry">
            <mxPoint x="-693.657704918033" y="5241.850000000001" as="sourcePoint" />
            <mxPoint x="-698.0000000000007" y="5244.05" as="targetPoint" />
          </mxGeometry>
        </mxCell>
        <mxCell id="d5ky2tss_7Emb2lWA8z1-325" value="Orders&amp;nbsp; V" style="text;html=1;align=center;verticalAlign=middle;resizable=0;points=[];autosize=1;" parent="1" vertex="1">
          <mxGeometry x="-1231.249999999999" y="5179.05" width="70" height="20" as="geometry" />
        </mxCell>
        <mxCell id="d5ky2tss_7Emb2lWA8z1-326" value="" style="endArrow=none;dashed=1;html=1;dashPattern=1 3;strokeWidth=2;" parent="1" edge="1">
          <mxGeometry width="50" height="50" relative="1" as="geometry">
            <mxPoint x="-698.0000000000007" y="5224.05" as="sourcePoint" />
            <mxPoint x="-698.9200000000008" y="5223.751993355482" as="targetPoint" />
          </mxGeometry>
        </mxCell>
        <mxCell id="d5ky2tss_7Emb2lWA8z1-327" value="" style="endArrow=none;dashed=1;html=1;dashPattern=1 3;strokeWidth=2;exitX=0;exitY=0.5;exitDx=0;exitDy=0;entryX=1;entryY=0.5;entryDx=0;entryDy=0;" parent="1" source="d5ky2tss_7Emb2lWA8z1-323" target="d5ky2tss_7Emb2lWA8z1-323" edge="1">
          <mxGeometry width="50" height="50" relative="1" as="geometry">
            <mxPoint x="-647.2200000000001" y="5169.08" as="sourcePoint" />
            <mxPoint x="-597.2200000000001" y="5119.08" as="targetPoint" />
          </mxGeometry>
        </mxCell>
        <mxCell id="d5ky2tss_7Emb2lWA8z1-328" value="Catalogo" style="text;html=1;align=center;verticalAlign=middle;resizable=0;points=[];autosize=1;" parent="1" vertex="1">
          <mxGeometry x="-1236.249999999999" y="5339.08" width="70" height="20" as="geometry" />
        </mxCell>
        <mxCell id="d5ky2tss_7Emb2lWA8z1-329" value="Payments V" style="rounded=1;whiteSpace=wrap;html=1;fillColor=#FFFFFF;" parent="1" vertex="1">
          <mxGeometry x="-1236.0899999999992" y="5423.09" width="75.56" height="30.25" as="geometry" />
        </mxCell>
        <mxCell id="d5ky2tss_7Emb2lWA8z1-330" value="&lt;div&gt;Variation&lt;/div&gt;&lt;div&gt; Prepaid&lt;/div&gt;" style="rounded=1;whiteSpace=wrap;html=1;fillColor=#66B2FF;" parent="1" vertex="1">
          <mxGeometry x="-967.4000000000001" y="5150.45" width="94.56" height="31.43" as="geometry" />
        </mxCell>
        <mxCell id="d5ky2tss_7Emb2lWA8z1-331" value="&lt;div&gt;Variation&lt;/div&gt;&lt;div&gt;Control&lt;br&gt;&lt;/div&gt;" style="rounded=1;whiteSpace=wrap;html=1;fillColor=#FFFFFF;" parent="1" vertex="1">
          <mxGeometry x="-1061.96" y="5150.45" width="94.56" height="31.43" as="geometry" />
        </mxCell>
        <mxCell id="d5ky2tss_7Emb2lWA8z1-332" value="" style="rounded=0;whiteSpace=wrap;html=1;fillColor=#FFFFFF;rotation=90;" parent="1" vertex="1">
          <mxGeometry x="-1115.8999999999996" y="5185.56" width="338.95" height="329.32" as="geometry" />
        </mxCell>
        <mxCell id="d5ky2tss_7Emb2lWA8z1-333" value="&lt;u&gt;&lt;b&gt;Basic Information&lt;/b&gt;&lt;/u&gt;" style="text;html=1;align=center;verticalAlign=middle;resizable=0;points=[];autosize=1;" parent="1" vertex="1">
          <mxGeometry x="-1111.4099999999999" y="5186.38" width="110" height="20" as="geometry" />
        </mxCell>
        <mxCell id="d5ky2tss_7Emb2lWA8z1-334" value="&lt;b&gt;Category&lt;/b&gt;" style="text;html=1;align=center;verticalAlign=middle;resizable=0;points=[];autosize=1;" parent="1" vertex="1">
          <mxGeometry x="-1105.3799999999997" y="5217.72" width="70" height="20" as="geometry" />
        </mxCell>
        <mxCell id="d5ky2tss_7Emb2lWA8z1-335" value="Chip" style="rounded=1;whiteSpace=wrap;html=1;fillColor=#FFFFFF;" parent="1" vertex="1">
          <mxGeometry x="-1034.6899999999996" y="5212.95" width="81.12" height="27.77" as="geometry" />
        </mxCell>
        <mxCell id="d5ky2tss_7Emb2lWA8z1-336" value="&lt;b&gt;Services&lt;/b&gt;" style="text;html=1;align=center;verticalAlign=middle;resizable=0;points=[];autosize=1;" parent="1" vertex="1">
          <mxGeometry x="-1105.3799999999997" y="5259.08" width="70" height="20" as="geometry" />
        </mxCell>
        <mxCell id="d5ky2tss_7Emb2lWA8z1-337" value="Prepaid&amp;nbsp; V" style="rounded=1;whiteSpace=wrap;html=1;fillColor=#FFFFFF;" parent="1" vertex="1">
          <mxGeometry x="-1034.6899999999996" y="5254.31" width="106.29" height="27.77" as="geometry" />
        </mxCell>
        <mxCell id="d5ky2tss_7Emb2lWA8z1-338" value="Commercial Terms" style="rounded=1;whiteSpace=wrap;html=1;fillColor=#FFFFFF;" parent="1" vertex="1">
          <mxGeometry x="-1091.3799999999997" y="5441.87" width="135.54" height="20.83" as="geometry" />
        </mxCell>
        <mxCell id="d5ky2tss_7Emb2lWA8z1-339" value="Load" style="rounded=1;whiteSpace=wrap;html=1;fillColor=#66B2FF;" parent="1" vertex="1">
          <mxGeometry x="-961.38" y="5441.19" width="80" height="21.51" as="geometry" />
        </mxCell>
        <mxCell id="d5ky2tss_7Emb2lWA8z1-340" value="" style="rounded=1;whiteSpace=wrap;html=1;fillColor=#FFF2CC;" parent="1" vertex="1">
          <mxGeometry x="-911.4799999999999" y="5186.74" width="120" height="113.88" as="geometry" />
        </mxCell>
        <mxCell id="d5ky2tss_7Emb2lWA8z1-341" value="" style="shape=collate;whiteSpace=wrap;html=1;fillColor=#FFF2CC;" parent="1" vertex="1">
          <mxGeometry x="-906.7400000000001" y="5190.12" width="106.26" height="111.5" as="geometry" />
        </mxCell>
        <mxCell id="d5ky2tss_7Emb2lWA8z1-342" value="&lt;font style=&quot;font-size: 14px&quot;&gt;&lt;b&gt;Imagen&lt;/b&gt;&lt;/font&gt;" style="text;html=1;align=center;verticalAlign=middle;resizable=0;points=[];autosize=1;" parent="1" vertex="1">
          <mxGeometry x="-881.38" y="5199.05" width="60" height="20" as="geometry" />
        </mxCell>
        <mxCell id="d5ky2tss_7Emb2lWA8z1-343" value="" style="rounded=0;whiteSpace=wrap;html=1;fillColor=#FFFFFF;rotation=90;" parent="1" vertex="1">
          <mxGeometry x="-804.92" y="5210.15" width="338.95" height="280.14" as="geometry" />
        </mxCell>
        <mxCell id="d5ky2tss_7Emb2lWA8z1-344" value="&lt;div&gt;Plans carrusel&lt;/div&gt;&lt;div&gt;Prepaid&lt;br&gt;&lt;/div&gt;" style="rounded=1;whiteSpace=wrap;html=1;" parent="1" vertex="1">
          <mxGeometry x="-698.2299999999999" y="5143.05" width="120" height="34.31" as="geometry" />
        </mxCell>
        <mxCell id="d5ky2tss_7Emb2lWA8z1-345" value="&lt;div&gt;&lt;b&gt;Variation Prepaid&lt;br&gt;&lt;/b&gt;&lt;/div&gt;" style="rounded=1;whiteSpace=wrap;html=1;" parent="1" vertex="1">
          <mxGeometry x="-760.8500000000003" y="5192.95" width="262.45" height="31.79" as="geometry" />
        </mxCell>
        <mxCell id="d5ky2tss_7Emb2lWA8z1-346" value="Portabilidad" style="rounded=1;whiteSpace=wrap;html=1;" parent="1" vertex="1">
          <mxGeometry x="-761.5400000000003" y="5224.7699999999995" width="73.14" height="29.97" as="geometry" />
        </mxCell>
        <mxCell id="d5ky2tss_7Emb2lWA8z1-347" value="New Line" style="rounded=1;whiteSpace=wrap;html=1;" parent="1" vertex="1">
          <mxGeometry x="-689.1000000000003" y="5224.7699999999995" width="70.7" height="29.97" as="geometry" />
        </mxCell>
        <mxCell id="d5ky2tss_7Emb2lWA8z1-348" value="&lt;div&gt;&lt;br&gt;&lt;/div&gt;" style="rounded=1;whiteSpace=wrap;html=1;" parent="1" vertex="1">
          <mxGeometry x="-770.0199999999999" y="5264.74" width="262.45" height="70" as="geometry" />
        </mxCell>
        <mxCell id="d5ky2tss_7Emb2lWA8z1-349" value="Bifri 10" style="text;html=1;align=center;verticalAlign=middle;resizable=0;points=[];autosize=1;" parent="1" vertex="1">
          <mxGeometry x="-753.4599999999999" y="5273.63" width="50" height="20" as="geometry" />
        </mxCell>
        <mxCell id="d5ky2tss_7Emb2lWA8z1-350" value="Reason Code" style="whiteSpace=wrap;html=1;" parent="1" vertex="1">
          <mxGeometry x="-694.0600000000003" y="5272.62" width="90" height="30" as="geometry" />
        </mxCell>
        <mxCell id="d5ky2tss_7Emb2lWA8z1-351" value="&lt;div&gt;Available&lt;/div&gt;&lt;div&gt; Plan&lt;/div&gt;" style="text;html=1;align=center;verticalAlign=middle;resizable=0;points=[];autosize=1;" parent="1" vertex="1">
          <mxGeometry x="-604.38" y="5298.74" width="60" height="30" as="geometry" />
        </mxCell>
        <mxCell id="d5ky2tss_7Emb2lWA8z1-352" value="" style="whiteSpace=wrap;html=1;aspect=fixed;" parent="1" vertex="1">
          <mxGeometry x="-546.84" y="5305.07" width="19.34" height="19.34" as="geometry" />
        </mxCell>
        <mxCell id="d5ky2tss_7Emb2lWA8z1-353" value="Order" style="text;html=1;align=center;verticalAlign=middle;resizable=0;points=[];autosize=1;" parent="1" vertex="1">
          <mxGeometry x="-594.86" y="5275.4" width="50" height="20" as="geometry" />
        </mxCell>
        <mxCell id="d5ky2tss_7Emb2lWA8z1-354" value="1" style="whiteSpace=wrap;html=1;aspect=fixed;" parent="1" vertex="1">
          <mxGeometry x="-549.13" y="5275.4" width="19.34" height="19.34" as="geometry" />
        </mxCell>
        <mxCell id="d5ky2tss_7Emb2lWA8z1-355" value="&lt;div&gt;&lt;br&gt;&lt;/div&gt;" style="rounded=1;whiteSpace=wrap;html=1;" parent="1" vertex="1">
          <mxGeometry x="-770.0199999999999" y="5346.74" width="262.45" height="68" as="geometry" />
        </mxCell>
        <mxCell id="d5ky2tss_7Emb2lWA8z1-356" value="Datos 45 " style="text;html=1;align=center;verticalAlign=middle;resizable=0;points=[];autosize=1;" parent="1" vertex="1">
          <mxGeometry x="-763.4599999999999" y="5355.63" width="70" height="20" as="geometry" />
        </mxCell>
        <mxCell id="d5ky2tss_7Emb2lWA8z1-357" value="Reason Code" style="whiteSpace=wrap;html=1;" parent="1" vertex="1">
          <mxGeometry x="-694.0600000000003" y="5354.62" width="90" height="30" as="geometry" />
        </mxCell>
        <mxCell id="d5ky2tss_7Emb2lWA8z1-358" value="Order" style="text;html=1;align=center;verticalAlign=middle;resizable=0;points=[];autosize=1;" parent="1" vertex="1">
          <mxGeometry x="-594.86" y="5354.4" width="50" height="20" as="geometry" />
        </mxCell>
        <mxCell id="d5ky2tss_7Emb2lWA8z1-359" value="2" style="whiteSpace=wrap;html=1;aspect=fixed;" parent="1" vertex="1">
          <mxGeometry x="-549.13" y="5357.4" width="19.34" height="19.34" as="geometry" />
        </mxCell>
        <mxCell id="d5ky2tss_7Emb2lWA8z1-360" value="&lt;div&gt;&lt;br&gt;&lt;/div&gt;" style="rounded=1;whiteSpace=wrap;html=1;" parent="1" vertex="1">
          <mxGeometry x="-770.0199999999999" y="5424.74" width="262.45" height="80" as="geometry" />
        </mxCell>
        <mxCell id="d5ky2tss_7Emb2lWA8z1-361" value="Datos 75" style="text;html=1;align=center;verticalAlign=middle;resizable=0;points=[];autosize=1;" parent="1" vertex="1">
          <mxGeometry x="-763.4599999999999" y="5433.63" width="70" height="20" as="geometry" />
        </mxCell>
        <mxCell id="d5ky2tss_7Emb2lWA8z1-362" value="Reason Code" style="whiteSpace=wrap;html=1;" parent="1" vertex="1">
          <mxGeometry x="-694.0600000000003" y="5432.62" width="90" height="30" as="geometry" />
        </mxCell>
        <mxCell id="d5ky2tss_7Emb2lWA8z1-363" value="Order" style="text;html=1;align=center;verticalAlign=middle;resizable=0;points=[];autosize=1;" parent="1" vertex="1">
          <mxGeometry x="-594.86" y="5435.4" width="50" height="20" as="geometry" />
        </mxCell>
        <mxCell id="d5ky2tss_7Emb2lWA8z1-364" value="1" style="whiteSpace=wrap;html=1;aspect=fixed;" parent="1" vertex="1">
          <mxGeometry x="-549.13" y="5435.4" width="19.34" height="19.34" as="geometry" />
        </mxCell>
        <mxCell id="d5ky2tss_7Emb2lWA8z1-365" value="&lt;div&gt;Available&lt;/div&gt;&lt;div&gt; Plan&lt;/div&gt;" style="text;html=1;align=center;verticalAlign=middle;resizable=0;points=[];autosize=1;" parent="1" vertex="1">
          <mxGeometry x="-606.38" y="5378.74" width="60" height="30" as="geometry" />
        </mxCell>
        <mxCell id="d5ky2tss_7Emb2lWA8z1-366" value="" style="whiteSpace=wrap;html=1;aspect=fixed;" parent="1" vertex="1">
          <mxGeometry x="-548.84" y="5385.07" width="19.34" height="19.34" as="geometry" />
        </mxCell>
        <mxCell id="d5ky2tss_7Emb2lWA8z1-367" value="&lt;div&gt;Available&lt;/div&gt;&lt;div&gt; Plan&lt;/div&gt;" style="text;html=1;align=center;verticalAlign=middle;resizable=0;points=[];autosize=1;" parent="1" vertex="1">
          <mxGeometry x="-606.38" y="5459.74" width="60" height="30" as="geometry" />
        </mxCell>
        <mxCell id="d5ky2tss_7Emb2lWA8z1-368" value="" style="whiteSpace=wrap;html=1;aspect=fixed;" parent="1" vertex="1">
          <mxGeometry x="-548.84" y="5466.07" width="19.34" height="19.34" as="geometry" />
        </mxCell>
        <mxCell id="d5ky2tss_7Emb2lWA8z1-369" value="Description Prepaid V" style="swimlane;childLayout=stackLayout;horizontal=1;startSize=30;horizontalStack=0;rounded=1;fontSize=14;fontStyle=0;strokeWidth=2;resizeParent=0;resizeLast=1;shadow=0;dashed=0;align=center;" parent="1" vertex="1">
          <mxGeometry x="-1084.4000000000003" y="5334.900000000001" width="260" height="91" as="geometry" />
        </mxCell>
        <mxCell id="d5ky2tss_7Emb2lWA8z1-370" value="+Attribute1&#xa;+Attribute2&#xa;+Attribute3" style="align=left;strokeColor=none;fillColor=none;spacingLeft=4;fontSize=12;verticalAlign=top;resizable=0;rotatable=0;part=1;" parent="d5ky2tss_7Emb2lWA8z1-369" vertex="1">
          <mxGeometry y="30" width="260" height="61" as="geometry" />
        </mxCell>
        <mxCell id="B_jd62QVZYPn1DrVgohh-1" value="&lt;font style=&quot;font-size: 24px;&quot;&gt;TRAGALUZ&lt;/font&gt;" style="text;html=1;align=center;verticalAlign=middle;resizable=0;points=[];autosize=1;strokeColor=none;fillColor=none;" vertex="1" parent="1">
          <mxGeometry x="232.95000000000005" y="-602.93" width="150" height="40" as="geometry" />
        </mxCell>
        <mxCell id="B_jd62QVZYPn1DrVgohh-2" value="" style="endArrow=none;html=1;entryX=0.167;entryY=1.027;entryDx=0;entryDy=0;exitX=1;exitY=1;exitDx=0;exitDy=0;entryPerimeter=0;" edge="1" parent="1" source="mVTbrcH1SR3zDorAHqVb-81" target="mVTbrcH1SR3zDorAHqVb-80">
          <mxGeometry width="50" height="50" relative="1" as="geometry">
            <mxPoint x="1120.4500000000007" y="246.32000000000016" as="sourcePoint" />
            <mxPoint x="1345.4500000000007" y="-678.6799999999998" as="targetPoint" />
          </mxGeometry>
        </mxCell>
        <mxCell id="mVTbrcH1SR3zDorAHqVb-82" value="&lt;font style=&quot;font-size: 24px&quot;&gt;casa de 3 pisos&lt;/font&gt;" style="text;whiteSpace=wrap;html=1;" parent="1" vertex="1">
          <mxGeometry x="1146.89" y="-256.94999999999993" width="190" height="30" as="geometry" />
        </mxCell>
        <mxCell id="mVTbrcH1SR3zDorAHqVb-23" value="&lt;font style=&quot;font-size: 24px&quot;&gt;casa de 3 pisos&lt;/font&gt;" style="text;whiteSpace=wrap;html=1;" parent="1" vertex="1">
          <mxGeometry x="-510.6699999999999" y="-223.18" width="190" height="30" as="geometry" />
        </mxCell>
        <mxCell id="mVTbrcH1SR3zDorAHqVb-25" value="&lt;font style=&quot;font-size: 24px&quot;&gt;casa de 1 piso&lt;/font&gt;" style="text;whiteSpace=wrap;html=1;" parent="1" vertex="1">
          <mxGeometry x="791.7400000000001" y="-231.18" width="190" height="30" as="geometry" />
        </mxCell>
        <mxCell id="B_jd62QVZYPn1DrVgohh-5" value="&lt;font style=&quot;font-size: 24px;&quot;&gt;TRAGALUZ&lt;/font&gt;" style="text;html=1;align=center;verticalAlign=middle;resizable=0;points=[];autosize=1;strokeColor=none;fillColor=none;" vertex="1" parent="1">
          <mxGeometry x="2004.69" y="-618.68" width="150" height="40" as="geometry" />
        </mxCell>
        <mxCell id="B_jd62QVZYPn1DrVgohh-7" value="&lt;font style=&quot;font-size: 48px;&quot;&gt;&lt;b&gt;PRIMER PISO&lt;/b&gt;&lt;/font&gt;" style="text;html=1;align=center;verticalAlign=middle;resizable=0;points=[];autosize=1;strokeColor=none;fillColor=none;fontSize=24;" vertex="1" parent="1">
          <mxGeometry x="-137.05" y="-985" width="340" height="70" as="geometry" />
        </mxCell>
        <mxCell id="B_jd62QVZYPn1DrVgohh-8" value="&lt;b&gt;TERRAZA&lt;/b&gt;" style="text;html=1;align=center;verticalAlign=middle;resizable=0;points=[];autosize=1;strokeColor=none;fillColor=none;fontSize=48;" vertex="1" parent="1">
          <mxGeometry x="1610" y="-993.97" width="250" height="70" as="geometry" />
        </mxCell>
      </root>
    </mxGraphModel>
  </diagram>
</mxfile>
